<svg width="488" height="171" viewBox="0 0 488 171" fill="none" xmlns="http://www.w3.org/2000/svg">
<path d="M73.3551 113V43.1818H99.5369C104.901 43.1818 109.401 44.1136 113.037 45.9773C116.696 47.8409 119.457 50.4545 121.321 53.8182C123.207 57.1591 124.151 61.0568 124.151 65.5114C124.151 69.9886 123.196 73.875 121.287 77.1705C119.401 80.4432 116.616 82.9773 112.935 84.7727C109.253 86.5455 104.73 87.4318 99.3665 87.4318H80.7188V76.9318H97.6619C100.798 76.9318 103.366 76.5 105.366 75.6364C107.366 74.75 108.844 73.4659 109.798 71.7841C110.776 70.0795 111.264 67.9886 111.264 65.5114C111.264 63.0341 110.776 60.9205 109.798 59.1705C108.821 57.3977 107.332 56.0568 105.332 55.1477C103.332 54.2159 100.753 53.75 97.5938 53.75H86.0028V113H73.3551ZM109.423 81.3636L126.707 113H112.594L95.6165 81.3636H109.423Z" fill="white"/>
<path d="M157.338 114.023C152.224 114.023 147.793 112.898 144.043 110.648C140.293 108.398 137.384 105.25 135.315 101.205C133.27 97.1591 132.247 92.4318 132.247 87.0227C132.247 81.6136 133.27 76.875 135.315 72.8068C137.384 68.7386 140.293 65.5795 144.043 63.3295C147.793 61.0795 152.224 59.9545 157.338 59.9545C162.452 59.9545 166.884 61.0795 170.634 63.3295C174.384 65.5795 177.281 68.7386 179.327 72.8068C181.395 76.875 182.429 81.6136 182.429 87.0227C182.429 92.4318 181.395 97.1591 179.327 101.205C177.281 105.25 174.384 108.398 170.634 110.648C166.884 112.898 162.452 114.023 157.338 114.023ZM157.406 104.136C160.179 104.136 162.497 103.375 164.361 101.852C166.224 100.307 167.611 98.2386 168.52 95.6477C169.452 93.0568 169.918 90.1705 169.918 86.9886C169.918 83.7841 169.452 80.8864 168.52 78.2955C167.611 75.6818 166.224 73.6023 164.361 72.0568C162.497 70.5114 160.179 69.7386 157.406 69.7386C154.565 69.7386 152.202 70.5114 150.315 72.0568C148.452 73.6023 147.054 75.6818 146.122 78.2955C145.213 80.8864 144.759 83.7841 144.759 86.9886C144.759 90.1705 145.213 93.0568 146.122 95.6477C147.054 98.2386 148.452 100.307 150.315 101.852C152.202 103.375 154.565 104.136 157.406 104.136Z" fill="white"/>
<path d="M212.335 113.92C208.222 113.92 204.54 112.864 201.29 110.75C198.04 108.636 195.472 105.568 193.585 101.545C191.699 97.5227 190.756 92.6364 190.756 86.8864C190.756 81.0682 191.71 76.1591 193.619 72.1591C195.551 68.1364 198.153 65.1023 201.426 63.0568C204.699 60.9886 208.347 59.9545 212.369 59.9545C215.438 59.9545 217.96 60.4773 219.938 61.5227C221.915 62.5455 223.483 63.7841 224.642 65.2386C225.801 66.6705 226.699 68.0227 227.335 69.2955H227.847V43.1818H240.222V113H228.085V104.75H227.335C226.699 106.023 225.778 107.375 224.574 108.807C223.369 110.216 221.778 111.42 219.801 112.42C217.824 113.42 215.335 113.92 212.335 113.92ZM215.778 103.795C218.392 103.795 220.619 103.091 222.46 101.682C224.301 100.25 225.699 98.2614 226.653 95.7159C227.608 93.1705 228.085 90.2045 228.085 86.8182C228.085 83.4318 227.608 80.4886 226.653 77.9886C225.722 75.4886 224.335 73.5455 222.494 72.1591C220.676 70.7727 218.438 70.0795 215.778 70.0795C213.028 70.0795 210.733 70.7955 208.892 72.2273C207.051 73.6591 205.665 75.6364 204.733 78.1591C203.801 80.6818 203.335 83.5682 203.335 86.8182C203.335 90.0909 203.801 93.0114 204.733 95.5795C205.688 98.125 207.085 100.136 208.926 101.614C210.79 103.068 213.074 103.795 215.778 103.795Z" fill="white"/>
<path d="M253.372 113V60.6364H265.338V69.3636H265.884C266.838 66.3409 268.474 64.0114 270.793 62.375C273.134 60.7159 275.804 59.8864 278.804 59.8864C279.486 59.8864 280.247 59.9205 281.088 59.9886C281.952 60.0341 282.668 60.1136 283.236 60.2273V71.5795C282.713 71.3977 281.884 71.2386 280.747 71.1023C279.634 70.9432 278.554 70.8636 277.509 70.8636C275.259 70.8636 273.236 71.3523 271.44 72.3295C269.668 73.2841 268.27 74.6136 267.247 76.3182C266.224 78.0227 265.713 79.9886 265.713 82.2159V113H253.372Z" fill="white"/>
<path d="M291.435 113V60.6364H303.776V113H291.435ZM297.639 53.2045C295.685 53.2045 294.003 52.5568 292.594 51.2614C291.185 49.9432 290.48 48.3636 290.48 46.5227C290.48 44.6591 291.185 43.0795 292.594 41.7841C294.003 40.4659 295.685 39.8068 297.639 39.8068C299.616 39.8068 301.298 40.4659 302.685 41.7841C304.094 43.0795 304.798 44.6591 304.798 46.5227C304.798 48.3636 304.094 49.9432 302.685 51.2614C301.298 52.5568 299.616 53.2045 297.639 53.2045Z" fill="white"/>
<path d="M339.239 133.727C334.807 133.727 331 133.125 327.818 131.92C324.636 130.739 322.08 129.148 320.148 127.148C318.216 125.148 316.875 122.932 316.125 120.5L327.239 117.807C327.739 118.83 328.466 119.841 329.42 120.841C330.375 121.864 331.659 122.705 333.273 123.364C334.909 124.045 336.966 124.386 339.443 124.386C342.943 124.386 345.841 123.534 348.136 121.83C350.432 120.148 351.58 117.375 351.58 113.511V103.591H350.966C350.33 104.864 349.398 106.17 348.17 107.511C346.966 108.852 345.364 109.977 343.364 110.886C341.386 111.795 338.898 112.25 335.898 112.25C331.875 112.25 328.227 111.307 324.955 109.42C321.705 107.511 319.114 104.67 317.182 100.898C315.273 97.1023 314.318 92.3523 314.318 86.6477C314.318 80.8977 315.273 76.0455 317.182 72.0909C319.114 68.1136 321.716 65.1023 324.989 63.0568C328.261 60.9886 331.909 59.9545 335.932 59.9545C339 59.9545 341.523 60.4773 343.5 61.5227C345.5 62.5455 347.091 63.7841 348.273 65.2386C349.455 66.6705 350.352 68.0227 350.966 69.2955H351.648V60.6364H363.818V113.852C363.818 118.33 362.75 122.034 360.614 124.966C358.477 127.898 355.557 130.091 351.852 131.545C348.148 133 343.943 133.727 339.239 133.727ZM339.341 102.568C341.955 102.568 344.182 101.932 346.023 100.659C347.864 99.3864 349.261 97.5568 350.216 95.1705C351.17 92.7841 351.648 89.9205 351.648 86.5795C351.648 83.2841 351.17 80.3977 350.216 77.9205C349.284 75.4432 347.898 73.5227 346.057 72.1591C344.239 70.7727 342 70.0795 339.341 70.0795C336.591 70.0795 334.295 70.7955 332.455 72.2273C330.614 73.6591 329.227 75.625 328.295 78.125C327.364 80.6023 326.898 83.4205 326.898 86.5795C326.898 89.7841 327.364 92.5909 328.295 95C329.25 97.3864 330.648 99.25 332.489 100.591C334.352 101.909 336.636 102.568 339.341 102.568Z" fill="white"/>
<path d="M399.307 114.023C394.193 114.023 389.761 112.898 386.011 110.648C382.261 108.398 379.352 105.25 377.284 101.205C375.239 97.1591 374.216 92.4318 374.216 87.0227C374.216 81.6136 375.239 76.875 377.284 72.8068C379.352 68.7386 382.261 65.5795 386.011 63.3295C389.761 61.0795 394.193 59.9545 399.307 59.9545C404.42 59.9545 408.852 61.0795 412.602 63.3295C416.352 65.5795 419.25 68.7386 421.295 72.8068C423.364 76.875 424.398 81.6136 424.398 87.0227C424.398 92.4318 423.364 97.1591 421.295 101.205C419.25 105.25 416.352 108.398 412.602 110.648C408.852 112.898 404.42 114.023 399.307 114.023ZM399.375 104.136C402.148 104.136 404.466 103.375 406.33 101.852C408.193 100.307 409.58 98.2386 410.489 95.6477C411.42 93.0568 411.886 90.1705 411.886 86.9886C411.886 83.7841 411.42 80.8864 410.489 78.2955C409.58 75.6818 408.193 73.6023 406.33 72.0568C404.466 70.5114 402.148 69.7386 399.375 69.7386C396.534 69.7386 394.17 70.5114 392.284 72.0568C390.42 73.6023 389.023 75.6818 388.091 78.2955C387.182 80.8864 386.727 83.7841 386.727 86.9886C386.727 90.1705 387.182 93.0568 388.091 95.6477C389.023 98.2386 390.42 100.307 392.284 101.852C394.17 103.375 396.534 104.136 399.375 104.136Z" fill="white"/>
<path d="M160 0H0V85H22V19.4792H160V0Z" fill="#FD3836"/>
<path d="M327 170L487 170.035L487.019 85.035L465.019 85.0302L465.004 150.551L327.004 150.521L327 170Z" fill="#FD3836"/>
</svg>
