<svg width="64" height="64" viewBox="0 0 64 64" fill="none" xmlns="http://www.w3.org/2000/svg">
<path d="M24.6137 12.8129H11.9515V1.4428H36.3715V28.1238C36.3715 32.1292 35.5747 35.5962 33.9812 38.5249C32.3876 41.4105 30.1911 43.607 27.3917 45.1144C24.6353 46.6218 21.5559 47.3755 18.1534 47.3755C14.8802 47.3755 11.8439 46.5572 9.04441 44.9206C6.28802 43.284 4.09152 41.0875 2.45491 38.3311C0.818304 35.5316 0 32.4953 0 29.2221H11.7577C11.7577 31.2032 12.3176 32.8614 13.4374 34.1965C14.6003 35.5316 16.1507 36.1992 18.0888 36.1992C20.1561 36.1992 21.7497 35.5532 22.8694 34.2611C24.0323 32.926 24.6137 30.9879 24.6137 28.4468V12.8129Z" fill="#F6F6F6"/>
<path d="M48.8829 17.5935C51.7254 17.5935 53.9865 18.0242 55.6662 18.8856C57.6904 19.9192 59.2409 21.3405 60.3176 23.1494C61.4374 24.9583 61.9973 26.9825 61.9973 29.2221C61.9973 31.3324 61.4374 33.2921 60.3176 35.1009C59.1978 36.8668 57.6689 38.2665 55.7308 39.3001C58.0565 40.1184 60.0161 41.5397 61.6097 43.5639C63.2032 45.5882 64 47.8708 64 50.4118C64 52.6514 63.4186 54.7187 62.2557 56.6137C61.1359 58.4657 59.6285 59.93 57.7335 61.0067C56.786 61.5236 55.7308 61.9112 54.568 62.1696C53.4051 62.428 51.8546 62.5572 49.9166 62.5572H30.0188V17.5935H48.8829Z" fill="#BE110F"/>
</svg>
