<svg width="297" height="384" viewBox="0 0 297 384" fill="none" xmlns="http://www.w3.org/2000/svg">
<path d="M106 91.5001C108.634 64.1997 120.5 30.5 151.5 38.0001C174 36.4998 176.5 43.5 181.5 51C190.13 65.107 185.99 88.8895 183.5 108.5C180.533 131.864 169.5 155 145 155C116.167 155 103.23 120.2 106 91.5001Z" fill="#D9A48C" stroke="#D9A48C"/>
<path d="M108.5 84.499C108.5 83 108.5 78.709 108.5 74.999C108.5 73.5 125 71.9995 147 77.499C164.5 74.9995 184.5 78.9994 185 79.999C185.5 82.9994 185.151 88.4723 185 88.499C184.423 88.601 183.5 88.4994 183.5 88.4994L184.5 80.499L168.5 77.999L152 79.999C152 79.999 148.75 79.499 147 79.4995C145.25 79.4999 142.5 78.999 142.5 78.999L110 75.499L110.5 85.999L109.5 85.499C109.5 85.499 108.5 85.0513 108.5 84.499Z" fill="#1A1A1A" stroke="#1A1A1A"/>
<path d="M123.5 95.5C114.227 93.8229 110.003 97.5 110 75.5C110 74.9996 120.675 74.6408 127.5 75C146.5 76 142.044 80.5424 141 87.5C139.5 97.5 130.895 96.8375 123.5 95.5Z" fill="#F6F6F6"/>
<path d="M168.649 98.804C178.059 98.2889 181.795 102.461 184.524 80.6313C184.586 80.1348 174.038 78.4556 167.221 77.9662C148.244 76.6037 152.102 81.6634 152.276 88.6967C152.525 98.8055 161.146 99.2146 168.649 98.804Z" fill="#F6F6F6"/>
<path d="M108.5 138L110 139C110 139 107.5 120.5 105.5 108.5C106 95 104.5 89.5 108.5 73C113 64.5 112.5 55.5 124.5 43.5C130.5 40 136.5 34 151.5 37.5C160 37.5 163.5 36.5 172.5 40.5C183.5 48 190 63 185.5 95C181.163 125.841 177 132 173 142C176.033 139.828 177 140.5 180.5 134.5C184 128.5 186 123.5 186 123.5L194 111C194 111 201.705 99.7451 204 91.5004C206.62 82.0874 205 66.5004 205 66.5004C205 66.5004 204.939 49.5124 200.5 40.0004C195.761 29.8466 192.739 20.8417 181.5 18.5C169.5 15.9997 156 18.5 156 18.5C156 18.5 152 7.44015 126.5 10.5004C118.906 11.4117 114 18.0004 114 18.0004C114 18.0004 110.682 20.0004 107.5 27.5004C104.072 35.5791 98.5 47.5004 98.5 47.5004C98.5 47.5004 81.5 67.0004 89.5 99.0004C91.0484 105.194 96 114 96 114C96 114 98 123.5 105.5 129C105 136 107 139.5 107 139.5L108.5 138Z" fill="#1A1A1A"/>
<path d="M102 158.5C102 158.5 107.5 147 110 139.5C115 147 120.5 151.5 134 163.5C142.5 165.5 147 167.5 157 164.5C163.572 159.578 171.5 146 171.5 146L175 161C175 161 180 161.5 188 163C199 170.5 210.913 171.562 225 174C240 189 248 206.5 256.5 231.5C268.147 250.216 284 276.5 291.5 284C297.5 303.5 293 319.5 296.5 331.5C294 343 285.5 347 285.5 347L245 349.5L243 381H88.5H57C49.5 377.5 49.1642 364.336 44.5 353.5C34.9939 331.416 12 310.5 22.4999 296C23.9998 285 23.9999 260 28.5 249.5C26.5 242 25.5 237.5 27.5 228C27.5 224.5 24 224.5 27.5 217C27.5 212.899 31.5 195 35.5 191C48.5 182 43.5 183.5 48.5 177C57 171 74.5 169.5 74.5 169.5H87L90 166.5C90.5 166 95 165 95 165C96 162.5 99.4616 160.843 102 158.5Z" fill="#BE110F"/>
<path d="M287 346C289.5 342.5 292 341 292.5 332.5C292.26 326.737 287 323 282 318C277.5 311.5 270.178 305.638 265.5 302C273 297.5 273.5 297 278 293.5C284.5 287.5 286 281 286 281C286 281 289.828 282.438 291 284C297 292 295 308.5 295 308.5C295 308.5 295 325 296 333.5C293.5 341 289 345.5 287 346Z" fill="#A31311" stroke="#A31311"/>
<path d="M138 275.5C138 275.5 120.5 158.5 131.5 162.5C148.5 170.5 158 165.5 162 161C164.5 167.5 198 269 198 269L197.5 380.5H127L138 275.5Z" fill="#F6F6F6" stroke="#E7E7E7" stroke-width="6"/>
<path d="M48.5 287C48.7187 278.554 59.9999 267 59.9999 267C59.9999 267 76.7217 258.028 90.5 258.5C102.782 258.92 109.986 260.849 122 267C135.179 273.747 138 285.5 152.5 292C160.874 295.754 177 294 177 294C177 294 234.5 296.5 265 302.5C272.221 307.831 275.75 311.785 281.5 318.5C286.201 323.99 291.963 326.35 292 333.5C292.029 339.176 288.746 341.843 285.5 346.5C241 347.5 234.017 351.214 202 345C165.299 337.877 113.5 308.5 113.5 308.5L73.9999 305C73.9999 305 48.1683 299.806 48.5 287Z" fill="#D59B81" stroke="#D59B81"/>
<path d="M103 117C97.9999 113.5 95.2658 89.5373 100.5 91.5C104.5 92.9999 105.5 93 105.5 100.5C105.5 103.932 106.674 113.426 106 117C105 117.5 103.941 117.157 103 117Z" fill="#D9A48C" stroke="#D9A48C"/>
<path d="M185.08 120.468C190.373 117.43 195.238 93.8075 189.85 95.2943C185.732 96.4305 184.736 96.3412 184.065 103.811C183.758 107.229 181.739 116.58 182.092 120.2C183.043 120.788 184.129 120.54 185.08 120.468Z" fill="#D9A48C" stroke="#D9A48C"/>
<path d="M111 141.5C108.062 134.377 107.5 121 107.5 121C107.5 121 116.5 154 143.5 155.5C162.97 156.582 175.5 135.5 174 139.5C171.918 145.051 168.5 153.65 168.5 153.65L157 165.15C157 165.15 151.589 166.891 147 166.5C142.411 166.109 134 163.5 134 163.5C134 163.5 117.5 151.5 111 141.5Z" fill="#D59B81"/>
<path d="M117.5 311.5C110.5 319.5 114 323.5 112 331C107.83 340.175 110 338 99 352.5C91.5001 359.5 89.5001 380.5 89.5001 380.5H126C126 380.5 158.373 367.747 177.5 356.5C203.054 341.473 215 325.5 237.5 309.5C246.5 308 252.164 307.583 260.5 303.5C272.414 297.664 282 291 285.5 280.5C287.895 273.316 274.261 254.988 271.5 250C269.586 246.54 266.472 247.412 263 246.5C248.5 249 220.5 272.5 220.5 272.5L175 295.5C175 295.5 134.5 303 117.5 311.5Z" fill="#D9A48C" stroke="#D9A48C"/>
<path d="M65.0002 317.5C72.7903 311.69 88.0002 308 88.0002 308C88.0002 308 112.5 307 116.5 311C111.5 317 112 329 112 329L107.5 339C107.5 339 103 347 98.5002 352C89.0002 364.5 89.0002 381 89.0002 381H57.0002C48.5 372 47 365 45.0002 352.5C51 337 54.5 331 65.0002 317.5Z" fill="#A31311"/>
<path d="M152 189C140.646 191.057 125 177 125 177C125 177 124.619 171.659 125.5 166.5L126.5 157.5L168.5 153.5L170.5 175.5C170.5 175.5 161.5 189 152 189Z" fill="#D59B81"/>
</svg>
