<svg width="186" height="32" viewBox="0 0 186 32" fill="none" xmlns="http://www.w3.org/2000/svg">
<path d="M16.7644 8.38621H8.14019V0.617931H24.7726V18.8469C24.7726 21.5834 24.2299 23.9522 23.1446 25.9531C22.0592 27.9246 20.5632 29.4253 18.6564 30.4552C16.7791 31.4851 14.6817 32 12.3643 32C10.1349 32 8.06686 31.4409 6.16015 30.3228C4.28277 29.2046 2.78673 27.7039 1.67204 25.8207C0.557347 23.908 0 21.8336 0 19.5972H8.00819C8.00819 20.9508 8.38953 22.0837 9.15222 22.9959C9.94424 23.908 11.0003 24.3641 12.3203 24.3641C13.7283 24.3641 14.8137 23.9228 15.5764 23.04C16.3684 22.1278 16.7644 20.8037 16.7644 19.0676V8.38621Z" fill="#F6F6F6"/>
<path d="M67.3862 0.617931H88.9467V2.25103H69.0143V14.6979H86.3507V16.331H69.0143V29.7048H88.9467V31.3379H67.3862V0.617931Z" fill="#F6F6F6"/>
<path d="M109.726 29.7048V6.22345C108.758 7.72414 107.481 8.91586 105.897 9.79862C104.343 10.6814 102.641 11.1228 100.793 11.1228V9.53379C102.407 9.53379 103.888 9.13655 105.237 8.34207C106.616 7.51816 107.702 6.42943 108.494 5.07586C109.315 3.69287 109.726 2.19218 109.726 0.573794H111.31V29.7048H120.55V31.3379H100.485V29.7048H109.726Z" fill="#F6F6F6"/>
<path d="M142.297 29.7048V6.22345C141.329 7.72414 140.053 8.91586 138.469 9.79862C136.914 10.6814 135.212 11.1228 133.364 11.1228V9.53379C134.978 9.53379 136.459 9.13655 137.809 8.34207C139.187 7.51816 140.273 6.42943 141.065 5.07586C141.886 3.69287 142.297 2.19218 142.297 0.573794H143.881V29.7048H153.121V31.3379H133.056V29.7048H142.297Z" fill="#F6F6F6"/>
<path d="M186 21.6276C186 23.5108 185.531 25.2469 184.592 26.8359C183.683 28.4248 182.436 29.6901 180.852 30.6317C179.268 31.5439 177.537 32 175.66 32C173.782 32 172.052 31.5439 170.468 30.6317C168.884 29.6901 167.622 28.4248 166.684 26.8359C165.774 25.2469 165.32 23.5108 165.32 21.6276V10.3724C165.32 8.48919 165.774 6.7531 166.684 5.16414C167.622 3.57517 168.884 2.3246 170.468 1.41241C172.052 0.470805 173.782 0 175.66 0C177.537 0 179.268 0.470805 180.852 1.41241C182.436 2.3246 183.683 3.57517 184.592 5.16414C185.531 6.7531 186 8.48919 186 10.3724V21.6276ZM166.904 21.6276C166.904 22.628 167.094 23.6579 167.476 24.7172L183.008 5.69379C182.216 4.45793 181.175 3.47218 179.884 2.73655C178.593 2.00092 177.185 1.6331 175.66 1.6331C174.076 1.6331 172.609 2.03034 171.26 2.82483C169.94 3.58989 168.884 4.6492 168.092 6.00276C167.3 7.3269 166.904 8.78345 166.904 10.3724V21.6276ZM184.416 10.3724C184.416 9.37195 184.225 8.34207 183.844 7.28276L168.312 26.3062C169.104 27.5715 170.145 28.572 171.436 29.3076C172.726 30.0432 174.134 30.411 175.66 30.411C177.244 30.411 178.696 30.0138 180.016 29.2193C181.365 28.4248 182.436 27.3655 183.228 26.0414C184.02 24.6878 184.416 23.2166 184.416 21.6276V10.3724Z" fill="#F6F6F6"/>
<path d="M47.5335 0.61125C49.4695 0.61125 51.0096 0.905502 52.1536 1.49401C53.5323 2.20022 54.5883 3.17125 55.3217 4.40711C56.0844 5.64297 56.4657 7.02596 56.4657 8.55608C56.4657 9.99792 56.0844 11.3368 55.3217 12.5726C54.559 13.7791 53.5176 14.7354 52.1976 15.4416C53.7817 16.0007 55.1164 16.9717 56.2017 18.3547C57.2871 19.7377 57.8297 21.2972 57.8297 23.0333C57.8297 24.5634 57.4337 25.9758 56.6417 27.2706C55.879 28.5358 54.8523 29.5363 53.5616 30.2719C52.9163 30.625 52.1976 30.8899 51.4056 31.0664C50.6136 31.243 49.5575 31.3312 48.2375 31.3312H34.6852V0.61125H47.5335Z" fill="#BE110F"/>
</svg>
