<svg width="64" height="64" viewBox="0 0 64 64" fill="none" xmlns="http://www.w3.org/2000/svg">
<g clip-path="url(#clip0_1245_7168)">
<rect x="10" y="4" width="44" height="56" fill="white"/>
<path d="M3.63407 63.1145C2.30158 62.4302 1.57476 61.7057 0.928707 60.3774L0 58.6063V32V5.39371L0.888328 3.62264C1.57476 2.29434 2.30158 1.56981 3.63407 0.925786L5.41073 0H32.2221C58.1047 0 59.0334 0.0402516 60.5678 0.805031C61.4158 1.2478 62.5464 2.17358 63.0713 2.89811L64 4.22642V32V59.7736L63.0713 61.1019C62.5464 61.8264 61.4158 62.7522 60.5678 63.195C59.0334 63.9597 58.1047 64 32.2221 64H5.41073L3.63407 63.1145ZM48.2524 56.473L46.2334 54.5409L47.7274 54.4201C49.1407 54.2994 49.2215 54.2189 49.3426 52.8101C49.4233 52.005 49.383 50.6365 49.3022 49.8314C49.1811 48.5434 49.0196 48.3019 48.212 48.3019C47.2833 48.3019 47.2429 48.1811 47.2429 45.8868V43.4717H46.0315C44.8202 43.4717 44.8202 43.4314 44.8202 41.2579C44.8202 39.0843 44.8202 39.044 43.6088 39.044C42.4379 39.044 42.3975 39.0038 42.3975 37.0314C42.3975 35.1396 42.4782 35.0189 43.4069 35.0189C44.6991 35.0189 46.0315 33.6906 46.0315 32.4025C46.0315 31.839 45.5874 30.9937 45.0221 30.5107L44.0126 29.6252L45.2644 28.3371C46.4353 27.1296 46.4757 27.0088 45.7489 26.6063C45.0625 26.2038 45.0625 26.1635 45.9508 25.922C46.7987 25.6805 46.8391 25.5195 46.8391 20.2868V14.8931H45.7893C44.8606 14.8931 44.7798 14.8126 45.224 14.2893C45.6278 13.766 45.6278 13.5245 45.0625 12.9208C44.376 12.1962 44.376 12.1157 45.1836 11.3107C47.6467 8.85535 44.1741 5.47421 41.2265 7.48679C40.3786 8.09057 40.2574 8.09057 39.0864 7.00377C37.9155 5.87673 37.8751 5.83648 37.3098 6.64151C36.7445 7.40629 36.7041 7.40629 36.5022 6.52075C36.2599 5.67547 36.0984 5.63522 30.6877 5.63522C25.1558 5.63522 25.1155 5.63522 25.3577 6.52075C25.5192 7.20503 25.4385 7.32579 24.8328 7.08428C24.3886 6.92327 23.8233 7.08428 23.3792 7.48679C22.7331 8.09057 22.5716 8.09057 21.7237 7.48679C20.4719 6.60126 18.7356 6.68176 17.7666 7.6478C16.7167 8.69434 16.7571 9.98239 17.8473 11.1497L18.7356 12.0755L17.5647 13.283C16.4341 14.4503 16.4341 14.4906 17.2013 15.0943C17.9685 15.6579 17.9281 15.6579 17.0801 15.6981C16.1514 15.6981 16.1514 15.7786 16.1514 21.3736V27.0491L17.1609 26.8075C18.0896 26.566 18.13 26.6063 17.6858 27.3308C17.282 28.0151 17.3224 28.2566 17.9685 28.9811C18.6953 29.7862 18.6953 29.8264 17.8473 30.712C17.3628 31.2352 16.959 32.0403 16.959 32.5233C16.959 33.6906 18.3319 35.0189 19.5836 35.0189C20.5123 35.0189 20.5931 35.1396 20.5931 36.9912C20.5931 38.883 20.5123 39.0038 19.5028 39.1245C18.453 39.2453 18.3722 39.4063 18.2511 41.3786C18.13 43.3107 18.0492 43.4717 17.1205 43.4717C16.1918 43.4717 16.1514 43.5925 16.1514 45.8868C16.1514 48.1409 16.0707 48.3019 15.2631 48.3019C14.3344 48.3019 14.3344 48.3824 14.3344 53.3333V58.3648H32.3028H50.2713L48.2524 56.473Z" fill="#006637"/>
<path d="M15.7073 56.9962C15.6265 56.9157 15.5861 55.1849 15.6669 53.1723L15.788 49.5094H16.959C17.6051 49.5094 18.1704 49.7912 18.3319 50.1534C18.6549 50.9585 18.6549 55.7081 18.3319 56.5132C18.13 57.0767 16.1514 57.439 15.7073 56.9962Z" fill="#1F1A17"/>
<path d="M22.8139 56.1912C23.6619 54.9032 23.5003 51.3208 22.612 51.3208C22.289 51.3208 21.966 51.7233 21.8852 52.2466C21.7641 52.9309 21.5218 53.1321 20.8757 53.0516C20.1893 52.9711 20.0278 52.6089 19.947 51.2001L19.8663 49.4692L24.3483 49.59L28.8707 49.7107V51.3208C28.8707 52.4881 28.7092 52.9711 28.1842 53.0516C27.7401 53.1321 27.4574 52.8504 27.3767 52.2466C27.2959 51.7233 26.9729 51.3208 26.6499 51.3208C25.7212 51.3208 25.6808 53.7359 26.5691 55.5875L27.3363 57.1573H24.7925H22.2082L22.8139 56.1912Z" fill="#1F1A17"/>
<path d="M30.6069 55.7484C30.7281 54.7421 30.9704 54.3396 31.4953 54.3396C31.8991 54.3396 32.3028 54.7019 32.424 55.1446C32.6663 56.1107 34.241 56.2314 34.6044 55.3056C34.8871 54.5006 34.2006 54.0578 32.2625 53.7358C30.8088 53.4943 30.7685 53.4138 30.6069 51.683C30.5262 50.6767 30.5666 49.7912 30.6473 49.6704C30.7281 49.5899 32.0202 49.5094 33.5142 49.5094C36.2599 49.5094 37.1483 49.9119 37.1483 51.2C37.1483 52.0452 35.9369 52.166 34.7659 51.4415C33.8776 50.9182 32.5451 51.2805 32.7874 52.0453C32.9085 52.2868 33.8372 52.6893 34.8467 52.8905C36.906 53.2528 37.4713 54.1383 36.9868 56.1509C36.7445 57.1169 36.583 57.1572 33.595 57.1572H30.4454L30.6069 55.7484Z" fill="#1F1A17"/>
<path d="M41.7514 56.3924C42.6801 55.3861 42.5186 51.3207 41.5899 51.3207C41.2669 51.3207 40.9438 51.7232 40.8631 52.2465C40.7823 52.81 40.4593 53.132 39.9344 53.132C39.2883 53.132 39.1672 52.8503 39.1672 51.3207V49.5094H43.6088H48.0505V51.3207C48.0505 52.6088 47.8889 53.132 47.4852 53.132C47.1621 53.132 46.8391 52.7295 46.7583 52.2465C46.6776 51.7232 46.3546 51.3207 46.0315 51.3207C45.1432 51.3207 44.9817 54.5408 45.7893 55.7484C46.1527 56.3119 46.4353 56.8352 46.4353 56.9559C46.4353 57.0767 45.224 57.1572 43.73 57.1572C41.1457 57.1572 41.065 57.117 41.7514 56.3924Z" fill="#1F1A17"/>
<path d="M27.4574 33.0063C27.4574 31.2352 28.3861 30.712 28.8706 32.2415C29.0322 32.6843 29.3552 32.9661 29.5975 32.8856C30.3647 32.644 30.405 30.3095 29.7186 28.9007C29.3552 28.2164 29.0725 27.5724 29.0725 27.4918C29.0725 27.4516 30.1628 27.3711 31.5356 27.3711H33.9583L33.3527 28.2566C32.4643 29.4642 32.4643 33.0063 33.3123 33.0063C33.6757 33.0063 34.0391 32.7246 34.1602 32.4025C34.3217 32.0805 34.7659 31.7988 35.1697 31.7988C35.7754 31.7988 35.9369 32.0805 35.9369 33.2076V34.6164H31.6971H27.4574V33.0063Z" fill="#DF4F1D"/>
<path d="M21.764 30.7522L18.776 27.7736L19.8662 26.727C21.0776 25.5195 21.9255 25.761 21.5621 27.21C21.3602 27.8943 21.4814 28.1761 21.9255 28.1761C22.8542 28.1761 24.6309 25.8415 24.6309 24.6339C24.6309 23.5874 24.6713 23.6277 26.4479 25.3585L28.2246 27.1295L26.7306 27.7736C24.0252 29.0214 22.8542 31.4365 25.2366 30.8327C26.7306 30.4704 27.0536 31.4365 25.8019 32.644L24.7116 33.6906L21.764 30.7522Z" fill="#DF4F1D"/>
<path d="M37.3501 32.4427C36.3003 31.5975 36.2195 31.3962 36.7041 30.8327C37.1079 30.3497 37.3905 30.2692 37.7135 30.5912C38.3596 31.2352 38.7634 31.0742 38.7634 30.2289C38.7634 29.3836 37.1886 28.0956 35.412 27.5321L34.2814 27.1698L36.1388 25.3585C37.7135 23.7887 37.9558 23.7082 37.9558 24.4729C37.9558 25.4792 40.217 28.1761 41.065 28.1761C41.5495 28.1761 41.6303 27.8943 41.4688 26.9685C41.1053 25.278 41.8725 25.0365 43.2454 26.405L44.4164 27.5723L41.4688 30.5107L38.5615 33.4088L37.3501 32.4427Z" fill="#DF4F1D"/>
<path d="M17.3628 21.1321V16.9056H18.9779C20.6335 16.9056 21.2795 17.7509 19.9874 18.2742C19.6644 18.3949 19.3817 18.7572 19.3817 19.1195C19.3817 19.9245 21.8448 19.9245 23.4196 19.1195L24.6309 18.4755V20.9308V23.3861L23.7426 22.7824C22.7331 22.0578 19.5836 21.8968 19.1798 22.5409C19.0587 22.7421 19.301 23.1446 19.7855 23.4264C20.2297 23.7082 20.5931 24.2717 20.5931 24.6339C20.5931 25.1975 20.27 25.3585 18.9779 25.3585H17.3628V21.1321Z" fill="#DF4F1D"/>
<path d="M41.9937 24.2315C41.9937 23.7485 42.3571 23.3459 42.8416 23.2252C43.3262 23.1044 43.6088 22.7824 43.5281 22.4604C43.2454 21.7761 40.1363 22.0176 38.8845 22.8227L37.9558 23.4264V20.9711C37.9558 19.6428 38.0366 18.5158 38.0769 18.5158C38.1577 18.5158 38.8038 18.7975 39.4902 19.1598C41.1457 19.9648 43.3665 19.7636 43.5281 18.8378C43.6088 18.3145 43.4069 18.1132 42.8416 18.1132C42.2763 18.1132 41.9937 17.8717 41.9937 17.3082C41.9937 16.6239 42.2763 16.5032 43.6088 16.5032H45.2643L45.1432 20.6491L45.0221 24.7547L43.5281 24.8755C42.2359 24.9963 41.9937 24.8755 41.9937 24.2315Z" fill="#DF4F1D"/>
<path d="M24.6309 16.9056C24.6309 16.4629 24.0252 15.4163 23.258 14.5711C22.1678 13.4038 21.764 13.2025 21.3602 13.5648C20.9564 13.9673 20.9968 14.2088 21.4006 14.6918C21.8448 15.2151 21.8448 15.4163 21.3602 15.9396C20.8353 16.4226 20.593 16.3824 19.5836 15.2956L18.4126 14.0478L21.3199 11.1899L24.1867 8.29181L25.3173 9.09684C26.8921 10.2641 26.8113 11.1094 25.1558 10.9484C24.1867 10.9082 23.8233 11.0289 23.8233 11.4717C23.8233 12.156 26.5287 14.088 27.5382 14.088C28.6284 14.088 28.4265 14.5711 26.7306 16.2214C24.9943 17.9119 24.6309 18.0327 24.6309 16.9056Z" fill="#DF4F1D"/>
<path d="M36.1792 16.1409L34.6044 14.5308L35.9773 13.9673C37.7136 13.2427 38.9249 11.8742 38.6019 11.0692C38.4404 10.5861 38.1981 10.5056 37.5924 10.8277C37.0271 11.1497 36.7041 11.1094 36.3811 10.7069C36.0581 10.3446 36.2196 9.94212 37.0675 9.13709L38.1981 8.05029L41.1054 10.9887L44.0126 13.8868L42.9628 15.0138C42.1148 15.8994 41.7918 16.0604 41.3477 15.6578C40.9035 15.2956 40.8631 15.0541 41.2265 14.6113C41.5899 14.2088 41.5899 13.927 41.2669 13.605C40.6208 12.961 39.248 14.249 38.4 16.2214L37.754 17.7509L36.1792 16.1409Z" fill="#DF4F1D"/>
<path d="M29.7186 12.8805C30.4454 11.4717 30.3242 8.77482 29.5571 8.53331C29.2744 8.45281 28.911 8.73457 28.7899 9.21759C28.6687 9.7006 28.2649 10.0629 27.8208 10.0629C27.2151 10.0629 27.0536 9.78111 27.0536 8.45281V6.80249L31.2126 6.92325L35.3312 7.044L35.4523 8.57356C35.5735 9.86161 35.4523 10.0629 34.7659 10.0629C34.2813 10.0629 33.9179 9.78111 33.9179 9.41884C33.9179 9.05658 33.6353 8.85532 33.2315 8.93582C32.6662 9.05658 32.5451 9.41884 32.6258 10.6666C32.7066 11.5522 33.0296 12.6792 33.3526 13.2025C33.9179 14.088 33.9179 14.088 31.5356 14.088H29.1533L29.7186 12.8805Z" fill="#DF4F1D"/>
<path d="M38.077 57.1169C38.2385 56.5937 38.3596 55.7484 38.3596 55.2654C38.3596 54.4604 38.5615 54.3396 39.7729 54.3396C41.6303 54.3396 41.5899 55.0239 39.4902 56.7144C37.9155 58.0427 37.8347 58.083 38.077 57.1169Z" fill="#006637"/>
<path d="M19.7451 55.8692C19.947 54.8227 20.2297 54.5007 21.118 54.4201C22.4909 54.2591 22.4909 54.7019 21.0776 56.0705C19.624 57.4793 19.4221 57.439 19.7451 55.8692Z" fill="#006637"/>
<path d="M28.1439 55.6276C27.2152 54.6214 27.2959 54.3396 28.4669 54.3396C29.2745 54.3396 29.4763 54.5409 29.4763 55.3459C29.4763 56.5534 29.0322 56.6339 28.1439 55.6276Z" fill="#006637"/>
<path d="M17.3628 46.4906V44.6793L31.6164 44.7598L45.8297 44.8805L45.9508 46.6113L46.0719 48.3019H31.7375H17.3628V46.4906Z" fill="#006637"/>
<path d="M19.7855 42.2641V40.6541H31.6972H43.6088V42.2641V43.8742H31.6972H19.7855V42.2641Z" fill="#006637"/>
<path d="M22.2082 37.8365V36.2264H31.6972H41.1861V37.8365V39.4466H31.6972H22.2082V37.8365Z" fill="#006637"/>
<path d="M22.1274 34.1333C22.4909 33.7711 22.7331 33.7711 23.0965 34.1333C23.4599 34.4956 23.3792 34.6164 22.612 34.6164C21.8448 34.6164 21.764 34.4956 22.1274 34.1333Z" fill="#006637"/>
<path d="M39.1672 34.4553C39.1672 34.3748 39.4095 34.0931 39.7325 33.8516C40.1363 33.4893 40.3785 33.5296 40.7823 34.0126C41.2265 34.5358 41.1053 34.6163 40.217 34.6163C39.6517 34.6163 39.1672 34.5358 39.1672 34.4553Z" fill="#006637"/>
<path d="M18.6549 33.3283C17.8877 32.5635 18.0896 31.839 19.1798 31.3157C20.0278 30.9132 20.3508 30.9535 20.9161 31.517C21.441 32.0402 21.4814 32.3623 21.1584 32.9258C20.5931 33.7711 19.3413 34.0126 18.6549 33.3283Z" fill="#006637"/>
<path d="M41.9937 33.2076C41.5899 32.7245 41.5495 32.3623 41.8726 31.8793C42.4379 30.9535 43.2454 30.8327 44.2145 31.5572C44.8606 32.0403 44.9413 32.2818 44.5779 32.8855C43.9722 33.8516 42.6801 34.0126 41.9937 33.2076Z" fill="#006637"/>
<path d="M27.094 29.6251C26.7306 29.1824 26.771 29.0214 27.2959 28.8201C28.2246 28.4578 28.265 28.4981 28.265 29.3836C28.265 30.3094 27.74 30.4302 27.094 29.6251Z" fill="#006637"/>
<path d="M33.918 29.8264C33.918 29.6252 34.1602 29.3032 34.4429 29.0617C35.0486 28.5384 36.1388 29.1019 35.7754 29.7459C35.4524 30.2692 33.918 30.3497 33.918 29.8264Z" fill="#006637"/>
<path d="M33.1104 23.1447V20.1258H34.5236C35.7754 20.1258 35.9369 20.005 35.9369 19.0793C35.9369 18.5157 36.0984 18.1535 36.3407 18.3145C36.583 18.4352 36.7445 19.6025 36.7445 20.8906C36.7445 23.0239 36.6233 23.3057 35.2101 24.6742C34.3621 25.4793 33.5546 26.1635 33.393 26.1635C33.2315 26.1635 33.1104 24.795 33.1104 23.1447Z" fill="#006637"/>
<path d="M22.4909 25.0767C21.9256 24.5534 22.2082 23.3861 22.8139 23.5874C23.1369 23.7484 23.4196 24.1912 23.4196 24.5937C23.4196 25.3585 22.9754 25.6 22.4909 25.0767Z" fill="#006637"/>
<path d="M29.2744 24.956C29.1129 24.6742 29.3956 24.634 30.1628 24.795C31.6972 25.1572 31.8587 25.3585 30.5666 25.3585C30.0012 25.3585 29.3956 25.1572 29.2744 24.956Z" fill="#006637"/>
<path d="M39.4498 24.795C39.2883 24.3925 39.5306 23.99 40.0151 23.7082C40.742 23.3459 40.8227 23.3862 40.7016 24.1912C40.5401 25.278 39.7729 25.6403 39.4498 24.795Z" fill="#006637"/>
<path d="M26.771 23.6679C25.5193 22.3396 25.4789 18.9987 26.6498 17.9119C27.094 17.5094 27.5785 17.2679 27.6593 17.3887C27.7804 17.5094 27.8612 19.2 27.7804 21.1321L27.6593 24.634L26.771 23.6679Z" fill="#006637"/>
<path d="M29.9205 24.2717C29.1533 24.1107 29.0726 23.99 29.5167 23.6679C29.9609 23.3862 29.9609 23.2252 29.5975 23.0642C29.2341 22.9434 29.1129 21.9774 29.1533 20.005L29.2341 17.1069L29.436 19.9245C29.6379 22.3799 29.759 22.7422 30.4858 22.7422C31.2126 22.7422 31.3338 22.3799 31.5357 19.9245L31.7375 17.1069L31.8183 19.7635C31.8991 21.7359 31.7375 22.5811 31.2934 22.9434C30.7685 23.3862 30.7685 23.5069 31.3741 23.99C32.1413 24.5535 31.8587 24.634 29.9205 24.2717Z" fill="#006637"/>
<path d="M32.6662 18.1132C32.2625 17.8315 32.2221 17.6302 32.5855 17.2679C33.1912 16.6642 34.4833 16.9459 34.6448 17.7107C34.7659 18.4352 33.5949 18.6365 32.6662 18.1132Z" fill="#006637"/>
<path d="M21.8044 17.5497C21.8044 17.2679 22.0871 16.7849 22.4101 16.5031C22.8946 16.1006 23.0561 16.1409 23.258 16.6239C23.3792 16.9862 23.3792 17.4692 23.2177 17.7107C22.8542 18.3145 21.8044 18.1937 21.8044 17.5497Z" fill="#006637"/>
<path d="M39.4902 17.8717C39.3691 17.7509 39.3287 17.3081 39.4498 16.8654C39.6114 16.2616 39.7729 16.1811 40.217 16.5434C40.9439 17.1471 40.9439 18.1132 40.2574 18.1132C39.9344 18.1132 39.6114 17.9924 39.4902 17.8717Z" fill="#006637"/>
<path d="M28.8707 15.6981C28.9918 15.4968 29.759 15.2956 30.5262 15.2956C31.2934 15.2956 31.899 15.4968 31.899 15.6981C31.899 15.9396 31.1722 16.1006 30.2435 16.1006C29.2744 16.1006 28.7091 15.9396 28.8707 15.6981Z" fill="#006637"/>
<path d="M26.9325 12.639C26.5691 12.2365 27.417 11.2704 28.1438 11.2704C28.911 11.2704 28.6284 12.639 27.8208 12.8C27.4978 12.8403 27.094 12.8 26.9325 12.639Z" fill="#006637"/>
<path d="M34.3218 12.0755C34.3218 11.1497 34.7256 11.0289 35.4524 11.7535C36.1792 12.478 36.0581 12.8805 35.1293 12.8805C34.6044 12.8805 34.3218 12.5988 34.3218 12.0755Z" fill="#006637"/>
<path d="M18.5338 10.2239C17.8473 9.37863 18.5338 8.25159 19.7855 8.25159C21.0372 8.25159 21.7237 9.37863 21.0372 10.2239C20.7142 10.5862 20.1893 10.8679 19.7855 10.8679C19.3817 10.8679 18.8568 10.5862 18.5338 10.2239Z" fill="#006637"/>
<path d="M41.9533 10.2239C41.2669 9.37863 41.9533 8.25159 43.205 8.25159C44.4568 8.25159 45.1432 9.37863 44.4568 10.2239C44.1337 10.5862 43.6088 10.8679 43.205 10.8679C42.8013 10.8679 42.2763 10.5862 41.9533 10.2239Z" fill="#006637"/>
<rect x="22.363" y="36.4012" width="18.6481" height="2.87013" stroke="#C5582A" stroke-width="0.35"/>
<rect x="19.9403" y="40.8289" width="23.4935" height="2.87013" stroke="#C5582A" stroke-width="0.35"/>
<path d="M17.5176 44.8543H45.8495L45.8945 48.1271H17.5176V44.8543Z" stroke="#C5582A" stroke-width="0.35"/>
</g>
<defs>
<clipPath id="clip0_1245_7168">
<rect width="64" height="64" fill="white"/>
</clipPath>
</defs>
</svg>
