<svg width="64" height="64" viewBox="0 0 64 64" fill="none" xmlns="http://www.w3.org/2000/svg">
<path d="M9.13018 34.6071C9.22021 36.4977 11.1307 35.6074 11.961 35.0272C12.7912 34.4471 12.9612 34.9372 13.0813 33.8269C13.155 33.1025 13.1851 32.3743 13.1713 31.6463C11.9107 31.5174 10.6453 31.8399 9.60031 32.5566C9.08017 32.9367 8.1099 34.137 9.12018 34.5571" fill="#F6D2A2"/>
<path d="M10.1104 35.9775C9.9235 35.9801 9.73854 35.939 9.5703 35.8575C9.37785 35.7464 9.21876 35.5857 9.10967 35.3922C9.00057 35.1986 8.94547 34.9793 8.95012 34.7572C8.82638 34.6955 8.72023 34.6036 8.64153 34.4899C8.56284 34.3762 8.51415 34.2445 8.5 34.107C8.53586 33.7741 8.64395 33.4531 8.81672 33.1663C8.98948 32.8795 9.22277 32.6338 9.50028 32.4465C10.5794 31.7036 11.8882 31.3702 13.1913 31.5063H13.3413V31.6563C13.3622 32.2269 13.3455 32.7983 13.2913 33.3668V33.8669C13.2413 34.6471 13.0913 34.7672 12.6912 34.8672C12.4777 34.9333 12.2754 35.0311 12.091 35.1573C11.5154 35.6019 10.8318 35.885 10.1104 35.9775ZM12.6511 31.8464C11.6007 31.8301 10.5717 32.1451 9.71033 32.7466C9.48652 32.9012 9.29657 33.0997 9.1521 33.3302C9.00763 33.5607 8.91168 33.8182 8.8701 34.087C8.88238 34.1804 8.92082 34.2685 8.98099 34.3411C9.04117 34.4136 9.12062 34.4677 9.2102 34.4971H9.31022V34.6071C9.29577 34.7808 9.32693 34.9552 9.40062 35.1131C9.47431 35.271 9.58797 35.4069 9.73034 35.5074C10.1092 35.5661 10.4964 35.5411 10.8645 35.4339C11.2326 35.3268 11.5728 35.1401 11.8609 34.8872C12.0696 34.7409 12.2988 34.6263 12.5411 34.5471C12.8012 34.4571 12.8612 34.4371 12.9012 33.8169V33.3168C12.948 32.8181 12.9681 32.3172 12.9612 31.8163H12.6511V31.8464Z" fill="#010101"/>
<path d="M9.13016 34.6071C9.41607 34.5438 9.677 34.3977 9.88036 34.187L9.13016 34.6071Z" fill="#C7B199"/>
<path d="M9.13017 34.7872C9.08374 34.8018 9.03342 34.7973 8.99028 34.7748C8.94713 34.7523 8.9147 34.7136 8.9001 34.6672C8.88551 34.6207 8.88996 34.5704 8.91247 34.5273C8.93498 34.4841 8.97371 34.4517 9.02014 34.4371H9.14017C9.35154 34.3881 9.54325 34.2765 9.69032 34.117C9.70477 34.098 9.72283 34.0819 9.74347 34.0699C9.76411 34.0578 9.78692 34.0499 9.81061 34.0467C9.83429 34.0434 9.85839 34.0449 9.88151 34.0509C9.90464 34.057 9.92635 34.0675 9.94539 34.082C9.96444 34.0964 9.98046 34.1145 9.99252 34.1351C10.0046 34.1558 10.0125 34.1786 10.0157 34.2023C10.019 34.226 10.0175 34.2501 10.0115 34.2732C10.0054 34.2963 9.99485 34.318 9.9804 34.3371C9.79131 34.5544 9.53982 34.708 9.2602 34.7772H9.13017V34.7872Z" fill="#010101"/>
<path d="M13.4914 12.1109C6.25941 10.1104 11.6409 0.877839 17.4925 4.65888L13.4914 12.1109Z" fill="#74CDDD"/>
<path d="M13.5814 12.321H13.4414C11.3808 11.7408 10.1104 10.5205 9.87038 8.89003C9.78528 8.00357 9.94892 7.11093 10.3429 6.3123C10.737 5.51367 11.3457 4.84066 12.101 4.36878C12.9215 3.84971 13.8791 3.58932 14.8495 3.62142C15.8198 3.65353 16.7581 3.97665 17.5425 4.54883L17.6825 4.63886L13.5814 12.321ZM14.5817 3.93867C13.7608 3.93972 12.958 4.17953 12.271 4.62886C11.572 5.06263 11.0079 5.68284 10.6421 6.41973C10.2763 7.15662 10.1233 7.98095 10.2005 8.80001C10.4205 10.2504 11.5408 11.3507 13.3713 11.9009L17.1724 4.72888C16.4035 4.24801 15.5184 3.98524 14.6117 3.96867L14.5817 3.93867Z" fill="#010101"/>
<path d="M45.6203 3.96869C51.3419 -0.0324099 56.5133 8.97007 49.8615 11.3007L45.6203 3.96869Z" fill="#74CDDD"/>
<path d="M49.7813 11.5208L45.3801 3.91867L45.5102 3.82865C46.2426 3.24156 47.1334 2.88612 48.0688 2.80773C49.0042 2.72933 49.9417 2.93154 50.7616 3.38853C51.5353 3.84163 52.1682 4.50025 52.5902 5.29129C53.0122 6.08234 53.2068 6.97485 53.1523 7.86976C53.0522 8.87004 52.5121 10.5805 49.9214 11.4708L49.7813 11.5208ZM45.8603 4.0187L49.9414 11.0806C50.6821 10.8798 51.3474 10.4654 51.8543 9.88907C52.3613 9.31279 52.6874 8.60008 52.7922 7.83976C52.8445 7.01094 52.6656 6.18388 52.2752 5.45088C51.8849 4.71787 51.2985 4.10775 50.5816 3.68861C49.8505 3.2695 49.0114 3.07711 48.1707 3.13589C47.3301 3.19466 46.5259 3.50194 45.8603 4.0187Z" fill="#010101"/>
<path d="M46.8506 57.8535C48.301 58.7538 50.9617 61.4745 48.7811 62.7949C46.6905 64.7154 45.5102 60.6843 43.6697 60.1341C44.0232 59.563 44.4863 59.0674 45.0322 58.676C45.5781 58.2845 46.1961 58.005 46.8506 57.8535Z" fill="#F6D2A2"/>
<path d="M47.6708 63.4851H47.5908C46.7606 63.4351 46.0804 62.6249 45.4202 61.8547C44.9641 61.191 44.3437 60.6568 43.6197 60.3042L43.3796 60.2342L43.5297 59.9841C44.2738 58.7973 45.4566 57.9524 46.8206 57.6335H46.9506C47.8809 58.2136 49.8014 59.8941 49.7914 61.4145C49.7857 61.7149 49.699 62.0082 49.5406 62.2634C49.3821 62.5187 49.1578 62.7265 48.8912 62.8649C48.5812 63.2234 48.1431 63.4461 47.6708 63.4851ZM43.9498 60.0442C44.6284 60.4432 45.2174 60.9778 45.6803 61.6146C46.1176 62.333 46.7996 62.8693 47.6008 63.125C47.7904 63.1169 47.9765 63.0712 48.1482 62.9905C48.3199 62.9097 48.4739 62.7957 48.6011 62.6549C48.8193 62.5482 49.0038 62.3835 49.1344 62.1788C49.2649 61.9741 49.3366 61.7373 49.3413 61.4946C49.3413 60.2742 47.8009 58.7438 46.7306 58.0536C45.5903 58.3468 44.6016 59.0571 43.9598 60.0442H43.9498Z" fill="#010101"/>
<path d="M48.7811 62.9849C48.7478 62.9847 48.7152 62.9752 48.6869 62.9576C48.6587 62.9399 48.6359 62.9148 48.6211 62.8849C48.5153 62.6635 48.4218 62.4364 48.341 62.2047C48.2193 61.752 47.9932 61.334 47.6808 60.9844C47.6637 60.968 47.65 60.9483 47.6405 60.9266C47.6311 60.9049 47.6259 60.8816 47.6255 60.8579C47.625 60.8342 47.6292 60.8107 47.6378 60.7886C47.6465 60.7665 47.6594 60.7464 47.6758 60.7293C47.6922 60.7122 47.7118 60.6986 47.7335 60.6891C47.7552 60.6796 47.7786 60.6744 47.8023 60.674C47.826 60.6735 47.8495 60.6777 47.8716 60.6864C47.8936 60.695 47.9138 60.7079 47.9309 60.7243C48.2762 61.1014 48.5296 61.5533 48.6711 62.0447C48.7495 62.2628 48.8396 62.4765 48.9411 62.6849C48.9621 62.7274 48.9654 62.7764 48.9504 62.8213C48.9354 62.8663 48.9034 62.9035 48.8611 62.9249L48.7811 62.9849Z" fill="#010101"/>
<path d="M20.8734 60.9244C19.1629 61.1844 18.2027 62.7249 16.7823 63.5051C16.6332 63.6427 16.4527 63.7416 16.2566 63.7932C16.0604 63.8448 15.8546 63.8476 15.6572 63.8012C15.4597 63.7548 15.2767 63.6607 15.124 63.5271C14.9714 63.3935 14.8539 63.2245 14.7817 63.035C14.6824 63.0373 14.5839 63.0169 14.4938 62.9753C14.4036 62.9337 14.3242 62.872 14.2616 62.7949C13.0212 60.7943 15.5519 59.404 16.8823 58.4237C18.7528 58.0636 19.9031 59.654 20.8734 60.9244Z" fill="#F6D2A2"/>
<path d="M15.882 63.9852C15.7758 63.9993 15.6681 63.9993 15.5619 63.9852C15.3742 63.9245 15.2005 63.8268 15.051 63.698C14.9016 63.5692 14.7794 63.4118 14.6917 63.235C14.5951 63.2343 14.5001 63.2103 14.4147 63.165C14.3294 63.1198 14.2563 63.0546 14.2015 62.975C13.0012 61.0844 15.0418 59.654 16.3921 58.7038L16.8623 58.3637C18.7528 57.9836 19.9531 59.544 20.9134 60.8044L21.1835 61.1645H20.8834C19.9181 61.3951 19.0396 61.8986 18.3527 62.6149C17.892 63.0384 17.3892 63.4138 16.8523 63.7352C16.5553 63.8995 16.2214 63.9855 15.882 63.9852ZM14.6817 62.8249C14.7509 62.8097 14.8225 62.8097 14.8917 62.8249H14.9417L15.0218 62.985C15.0868 63.1264 15.1797 63.2534 15.2948 63.3582C15.41 63.463 15.545 63.5436 15.6919 63.5951C16.0439 63.648 16.4026 63.5619 16.6922 63.3551C17.211 63.045 17.6969 62.683 18.1426 62.2748C18.8178 61.5999 19.6442 61.0958 20.5533 60.8044C19.633 59.604 18.5527 58.3037 16.9823 58.6038L16.5322 58.9238C15.1518 59.9241 13.4413 61.1044 14.4316 62.6949C14.4538 62.7325 14.4842 62.7647 14.5206 62.789C14.557 62.8132 14.5984 62.8289 14.6417 62.8349L14.6817 62.8249Z" fill="#010101"/>
<path d="M14.8117 63.225C14.7821 63.2267 14.7524 63.2211 14.7255 63.2086C14.6985 63.1961 14.6751 63.1771 14.6573 63.1533C14.6394 63.1295 14.6278 63.1017 14.6233 63.0723C14.6188 63.043 14.6217 63.013 14.6317 62.985C14.7054 62.5044 14.9056 62.0522 15.2118 61.6746C15.3566 61.476 15.4838 61.2651 15.5919 61.0444C15.6118 61.0007 15.6483 60.9666 15.6933 60.9497C15.7383 60.9328 15.7882 60.9345 15.832 60.9544C15.8758 60.9743 15.9098 61.0108 15.9267 61.0558C15.9436 61.1008 15.9419 61.1507 15.922 61.1945C15.8059 61.4361 15.6686 61.6671 15.5119 61.8847C15.2478 62.2245 15.0787 62.6284 15.0218 63.055C15.0207 63.0805 15.0142 63.1056 15.0027 63.1284C14.9913 63.1512 14.975 63.1714 14.9552 63.1875C14.9353 63.2035 14.9122 63.2152 14.8875 63.2217C14.8628 63.2282 14.8369 63.2293 14.8117 63.225ZM13.7914 9.57023C12.7912 9.07009 12.141 8.3799 12.7211 7.2796C13.3013 6.17929 14.2616 6.36934 15.2218 6.86948L13.7914 9.57023ZM48.351 8.60996C49.3512 8.10982 50.0014 7.41963 49.4213 6.31933C48.8411 5.21903 47.8808 5.40908 46.9206 5.90922L48.351 8.60996Z" fill="#010101"/>
<path d="M54.9228 34.3671C54.8328 36.2576 52.9223 35.3674 52.0921 34.7872C51.2618 34.207 51.0918 34.6972 50.9718 33.5869C50.898 32.8625 50.8679 32.1343 50.8817 31.4063C52.1423 31.2773 53.4077 31.5999 54.4527 32.3165C54.9728 32.6966 55.9431 33.8969 54.9328 34.3171" fill="#F6D2A2"/>
<path d="M53.9425 35.6974C53.2551 35.6227 52.5978 35.3749 52.032 34.9772C51.8476 34.851 51.6453 34.7532 51.4318 34.6871C51.0317 34.5471 50.8817 34.4271 50.8317 33.6869V33.1867C50.7775 32.6183 50.7608 32.0469 50.7817 31.4762V31.2362H50.9317C52.2348 31.1001 53.5436 31.4335 54.6227 32.1764C54.9002 32.3638 55.1335 32.6094 55.3063 32.8962C55.4791 33.183 55.5872 33.504 55.623 33.8369C55.6089 33.9744 55.5602 34.1062 55.4815 34.2198C55.4028 34.3335 55.2966 34.4254 55.1729 34.4871C55.1775 34.7092 55.1224 34.9285 55.0133 35.1221C54.9043 35.3156 54.7452 35.4763 54.5527 35.5874C54.3623 35.6764 54.152 35.7143 53.9425 35.6974ZM51.0317 31.5763C51.025 32.0771 51.045 32.578 51.0918 33.0767V33.5768C51.0918 34.187 51.1818 34.207 51.4519 34.307C51.6941 34.3862 51.9234 34.5008 52.132 34.6471C52.4198 34.9007 52.7599 35.0877 53.1282 35.1948C53.4964 35.302 53.8838 35.3268 54.2626 35.2673C54.405 35.1668 54.5187 35.0309 54.5924 34.873C54.666 34.7151 54.6972 34.5407 54.6828 34.3671V34.247H54.7828C54.8724 34.2177 54.9518 34.1636 55.012 34.091C55.0722 34.0185 55.1106 33.9304 55.1229 33.8369C55.0813 33.5681 54.9853 33.3106 54.8409 33.0801C54.6964 32.8497 54.5065 32.6511 54.2826 32.4965C53.335 31.8294 52.1884 31.5049 51.0317 31.5763Z" fill="#010101"/>
<path d="M54.9227 34.367C54.6403 34.3122 54.3797 34.1767 54.1725 33.9769L54.9227 34.367Z" fill="#C7B199"/>
<path d="M54.9228 34.5471H54.7327C54.4526 34.458 54.2077 34.283 54.0326 34.047C54.0181 34.0279 54.0076 34.0062 54.0015 33.9831C53.9954 33.96 53.994 33.9359 53.9972 33.9122C54.0005 33.8885 54.0084 33.8657 54.0204 33.845C54.0325 33.8244 54.0485 33.8063 54.0676 33.7919C54.0866 33.7774 54.1083 33.7669 54.1314 33.7608C54.1546 33.7548 54.1787 33.7533 54.2024 33.7566C54.226 33.7598 54.2489 33.7677 54.2695 33.7798C54.2901 33.7918 54.3082 33.8079 54.3226 33.8269C54.4697 33.9864 54.6614 34.098 54.8728 34.147H54.9928C55.0459 34.1563 55.0931 34.1862 55.124 34.2303C55.155 34.2744 55.1672 34.329 55.1579 34.382C55.1486 34.4351 55.1186 34.4823 55.0745 34.5132C55.0304 34.5442 54.9759 34.5564 54.9228 34.5471Z" fill="#010101"/>
<path d="M31.3064 0.147614C38.5483 0.147614 45.3102 1.14789 48.8712 8.14982C52.0421 15.942 50.8717 24.3543 51.4019 32.5866C51.822 39.6585 52.7423 47.8308 49.4614 54.3926C46.0304 61.2745 37.368 62.9849 30.2661 62.7549C24.6845 62.5548 17.9427 60.7543 14.7918 55.6329C11.0908 49.6313 12.8413 40.7488 13.1113 34.097C13.4314 26.2148 10.9707 18.3026 13.5615 10.5805C16.2522 2.57828 23.4942 0.767785 31.2963 0.147614" fill="#74CDDD"/>
<path d="M31.4963 62.985H30.256C27.2744 62.9012 24.3285 62.3127 21.5436 61.2445C18.7082 60.2167 16.2828 58.2968 14.6317 55.773C11.6309 50.9316 12.171 44.2498 12.6311 38.3482C12.7512 36.8678 12.8612 35.4574 12.9112 34.137C12.9642 31.3381 12.8439 28.5387 12.5511 25.7547C12.131 20.7533 11.6909 15.5819 13.3713 10.5705C13.9135 8.80986 14.816 7.18125 16.0214 5.78813C17.2268 4.39501 18.7088 3.26786 20.3733 2.47827C23.074 1.15791 26.3749 0.397697 31.2263 0.0175925C38.3682 -0.0324212 45.4102 0.967855 49.0312 8.05981C51.3518 13.7614 51.3818 19.8831 51.4218 25.8047C51.4218 28.0253 51.4218 30.3159 51.5819 32.5566C51.5819 33.2368 51.6619 33.9269 51.7119 34.6171C52.132 41.1089 52.6121 48.481 49.6213 54.4426C45.8803 61.9047 36.4777 62.985 31.4963 62.985ZM31.3063 0.327678C23.7742 0.967855 16.4322 2.5883 13.7314 10.6405C12.071 15.5819 12.5111 20.7133 12.9212 25.6447C13.215 28.442 13.3353 31.2548 13.2813 34.067C13.2313 35.3973 13.1113 36.8077 13.0012 38.2981C12.5411 44.1398 12.001 50.7716 14.9318 55.5029C16.1621 57.5034 20.1232 62.1747 30.266 62.5048C34.6572 62.6649 45.2701 62.1647 49.2712 54.2225C52.212 48.3409 51.7419 41.0289 51.3218 34.5771C51.3218 33.8769 51.2318 33.1867 51.1918 32.5166C51.0817 30.336 51.0317 28.0353 51.0317 25.8147C51.0317 19.9331 50.9717 13.8114 48.6711 8.20985C47.1912 5.16485 44.5714 2.82536 41.3791 1.69806C38.1243 0.66982 34.7175 0.206334 31.3063 0.327678Z" fill="#010101"/>
<path d="M32.5766 9.86029C33.877 17.4124 46.2204 15.4218 44.4499 7.79972C42.8595 0.967839 32.1465 2.85836 32.5766 9.86029Z" fill="white"/>
<path d="M38.4482 14.7917C37.6793 14.7949 36.9153 14.6698 36.1876 14.4216C35.1975 14.094 34.3187 13.4961 33.6506 12.6954C32.9824 11.8947 32.5515 10.9231 32.4066 9.89033C32.3393 9.08192 32.4436 8.26842 32.7125 7.50308C32.9814 6.73775 33.4089 6.03782 33.967 5.44911C35.0375 4.35086 36.4472 3.64598 37.9681 3.44855C39.362 3.22795 40.7897 3.4741 42.0292 4.14875C42.6904 4.53493 43.2629 5.05609 43.7092 5.67826C44.1556 6.30043 44.4659 7.00966 44.6199 7.75974C44.8891 8.70812 44.8875 9.71293 44.6153 10.6604C44.3431 11.608 43.8111 12.4604 43.0795 13.1212C41.7889 14.2203 40.1433 14.8139 38.4482 14.7917ZM32.7567 9.84032C32.8936 10.8094 33.2986 11.721 33.9261 12.4722C34.5535 13.2233 35.3784 13.7842 36.3076 14.0915C37.4147 14.4617 38.5982 14.5421 39.7451 14.3249C40.8921 14.1078 41.9643 13.6004 42.8594 12.8511C43.5337 12.2289 44.0237 11.4332 44.276 10.5511C44.5283 9.66894 44.5331 8.73442 44.2898 7.84977C43.9828 6.48939 43.156 5.30303 41.9859 4.54418C40.8159 3.78533 39.3954 3.51417 38.0281 3.78865C36.536 3.91638 35.152 4.61906 34.1684 5.74827C33.1847 6.87749 32.6785 8.34481 32.7567 9.84032Z" fill="#010101"/>
<path d="M17.8225 11.0907C19.503 17.6625 30.0259 15.972 29.6358 9.38018C29.1657 1.478 16.2121 2.96841 17.8225 11.0907Z" fill="white"/>
<path d="M23.4442 15.4218C22.3742 15.4299 21.319 15.1721 20.3733 14.6716C19.6963 14.3047 19.1047 13.7986 18.6375 13.1866C18.1703 12.5745 17.838 11.8704 17.6626 11.1206C17.4017 10.0975 17.4403 9.02086 17.7736 8.01896C18.107 7.01705 18.7212 6.13199 19.5431 5.46908C20.5368 4.71081 21.7131 4.22827 22.9531 4.0702C24.1931 3.91213 25.4528 4.08413 26.605 4.56883C27.5423 4.97862 28.3422 5.64893 28.9096 6.50006C29.477 7.3512 29.7881 8.34737 29.8059 9.37016C30.016 12.8711 27.2352 14.9117 24.5745 15.3718C24.1996 15.4177 23.8216 15.4344 23.4442 15.4218ZM18.0227 11.0506C18.3689 12.4411 19.2477 13.6397 20.4695 14.3882C21.6914 15.1367 23.1585 15.375 24.5545 15.0517C27.0752 14.6516 29.7059 12.7311 29.5058 9.44018C29.4937 8.47771 29.2042 7.53917 28.6719 6.73719C28.1396 5.93521 27.3872 5.30387 26.505 4.91893C25.4095 4.4591 24.212 4.2965 23.0335 4.44754C21.8551 4.59858 20.7373 5.05792 19.7931 5.77917C19.0285 6.39949 18.4561 7.22447 18.1426 8.15785C17.8291 9.09122 17.7875 10.0945 18.0227 11.0506Z" fill="#010101"/>
<path d="M34.027 18.9728C34.1233 20.0142 34.1233 21.0623 34.027 22.1037C33.7342 22.4744 33.3196 22.7296 32.8567 22.8239C32.572 22.7802 32.3029 22.6657 32.0739 22.4909C31.845 22.3162 31.6636 22.0867 31.5463 21.8236C31.4821 20.6428 31.5122 19.4587 31.6364 18.2827L34.027 18.9728Z" fill="white"/>
<path d="M32.9668 22.9739H32.9167C32.5988 22.9245 32.2987 22.7948 32.0449 22.597C31.791 22.3992 31.5919 22.1399 31.4663 21.8436C31.3833 21.0355 31.3833 20.221 31.4663 19.4129C31.4663 19.0428 31.5263 18.6527 31.5364 18.2726V17.9725L34.2371 18.8028V18.9728C34.2371 19.2929 34.2371 19.633 34.2871 19.9731C34.3774 20.6871 34.3774 21.4097 34.2871 22.1237V22.1737C34.1823 22.3449 34.0442 22.4933 33.8809 22.6101C33.7177 22.7269 33.5327 22.8098 33.3369 22.8539L33.0268 22.9739H32.9668ZM31.8064 21.7136C31.9065 21.942 32.0609 22.1425 32.2561 22.2977C32.4514 22.4528 32.6816 22.5579 32.9267 22.6038L33.2068 22.4938C33.5083 22.4212 33.7699 22.2348 33.937 21.9736C34.0164 21.3091 34.0164 20.6376 33.937 19.9731C33.937 19.663 33.937 19.3629 33.887 19.0628L31.8865 18.4527C31.8865 18.7628 31.8864 19.0728 31.8264 19.3729C31.7378 20.1468 31.7278 20.9277 31.7964 21.7036L31.8064 21.7136Z" fill="#010101"/>
<path d="M20.7234 11.9409C21.7068 11.9409 22.5039 11.0765 22.5039 10.0103C22.5039 8.94413 21.7068 8.0798 20.7234 8.0798C19.7401 8.0798 18.9429 8.94413 18.9429 10.0103C18.9429 11.0765 19.7401 11.9409 20.7234 11.9409Z" fill="#010101"/>
<path d="M21.5336 10.9406C21.7656 10.9406 21.9537 10.7212 21.9537 10.4505C21.9537 10.1798 21.7656 9.96033 21.5336 9.96033C21.3016 9.96033 21.1135 10.1798 21.1135 10.4505C21.1135 10.7212 21.3016 10.9406 21.5336 10.9406Z" fill="white"/>
<path d="M35.6275 11.4607C36.5943 11.4607 37.378 10.5964 37.378 9.5302C37.378 8.464 36.5943 7.59967 35.6275 7.59967C34.6607 7.59967 33.877 8.464 33.877 9.5302C33.877 10.5964 34.6607 11.4607 35.6275 11.4607Z" fill="#010101"/>
<path d="M36.4177 10.4605C36.6442 10.4605 36.8278 10.2411 36.8278 9.97036C36.8278 9.69967 36.6442 9.48022 36.4177 9.48022C36.1912 9.48022 36.0076 9.69967 36.0076 9.97036C36.0076 10.2411 36.1912 10.4605 36.4177 10.4605Z" fill="white"/>
<path d="M29.0257 18.8228C28.2455 20.7033 29.4558 24.4643 31.5664 21.6936C31.5022 20.5127 31.5323 19.3286 31.6564 18.1526L29.0257 18.8228Z" fill="white"/>
<path d="M30.116 22.8639C29.9331 22.8657 29.7532 22.8172 29.5959 22.7239C28.7456 22.2337 28.2155 20.2232 28.8156 18.7228V18.6427L31.8165 17.8825V18.1226C31.8165 18.5127 31.8165 18.9028 31.7465 19.2729C31.665 20.0577 31.665 20.8488 31.7465 21.6336V21.7636C31.5844 22.0656 31.3513 22.3236 31.0672 22.5153C30.7832 22.707 30.4567 22.8267 30.116 22.8639ZM29.1257 18.9728C28.6956 20.1432 29.0357 21.9737 29.7859 22.4038C30.3261 22.7139 30.9262 22.1737 31.3463 21.6336C31.2702 20.8485 31.2702 20.058 31.3463 19.2729C31.3463 18.9828 31.3463 18.6728 31.4064 18.3727L29.1257 18.9728Z" fill="#010101"/>
<path d="M29.2557 15.2018C28.895 15.2361 28.5475 15.3555 28.2419 15.5502C27.9363 15.7449 27.6812 16.0093 27.4977 16.3218C27.3141 16.6342 27.2073 16.9857 27.186 17.3475C27.1647 17.7092 27.2296 18.0708 27.3752 18.4026C28.3755 20.2031 30.5961 18.2426 31.9765 18.4026C33.5669 18.4026 34.8773 20.0831 36.1576 18.7027C37.578 17.1623 35.5474 15.7019 33.957 14.9917L29.2557 15.2018Z" fill="#F6D2A2"/>
<path d="M35.0274 19.463C34.5189 19.4206 34.0231 19.2814 33.567 19.0529C33.0723 18.8086 32.5362 18.6593 31.9865 18.6127C31.4136 18.6125 30.8474 18.7353 30.3261 18.9728C29.2058 19.3629 27.9354 19.8031 27.2152 18.5127C27.0365 18.1915 26.9427 17.83 26.9427 17.4624C26.9427 17.0948 27.0365 16.7334 27.2152 16.4121C27.4095 16.0362 27.6939 15.7143 28.043 15.4751C28.3921 15.236 28.795 15.0871 29.2158 15.0418L34.0271 14.8317C35.2074 15.3318 36.5578 16.2421 36.7878 17.3024C36.8227 17.5612 36.804 17.8245 36.7331 18.0759C36.6622 18.3273 36.5405 18.5614 36.3755 18.7639C36.2105 18.9664 36.0057 19.1329 35.7739 19.2531C35.542 19.3734 35.2879 19.4448 35.0274 19.463ZM32.0265 18.2526C32.6179 18.3006 33.1949 18.4602 33.727 18.7228C34.6272 19.1029 35.3374 19.393 36.0576 18.6127C36.2221 18.4616 36.3459 18.2716 36.4175 18.06C36.4892 17.8485 36.5065 17.6224 36.4678 17.4024C36.2677 16.4822 34.9973 15.6419 33.9571 15.2018L29.3058 15.3919C28.9478 15.4357 28.6059 15.5661 28.3096 15.7718C28.0133 15.9774 27.7716 16.2521 27.6053 16.5722C27.4573 16.8402 27.3797 17.1413 27.3797 17.4474C27.3797 17.7535 27.4573 18.0547 27.6053 18.3227C28.1755 19.3229 29.1958 18.9928 30.2861 18.6227C30.8335 18.3777 31.4267 18.2515 32.0265 18.2526Z" fill="#231F20"/>
<path d="M29.0257 15.1318C28.9156 12.6311 33.697 12.311 34.2571 14.4116C34.8173 16.5122 29.2557 16.9923 29.0257 15.1318Z" fill="#010101"/>
</svg>
