<svg width="64" height="64" viewBox="0 0 64 64" fill="none" xmlns="http://www.w3.org/2000/svg">
<g clip-path="url(#clip0_1205_1622)">
<path d="M38.2735 41.4198L22.5772 38.1398C22.5115 38.2668 22.4384 38.39 22.3582 38.5085L36.6475 59.353L37.5095 58.492L39.9405 43.3745C39.5296 43.2009 39.1649 42.9338 38.8755 42.5944C38.5861 42.255 38.38 41.8527 38.2735 41.4195V41.4198ZM32.5475 20.9013C31.9595 21.8033 30.9445 22.4002 29.7885 22.4002C29.6105 22.4002 29.4375 22.3822 29.2675 22.3552L22.1092 33.5555L41.2337 25.3255C41.2277 25.2485 41.2108 25.1765 41.2108 25.0975C41.2108 24.9365 41.2327 24.7805 41.2588 24.6265L32.5475 20.9013ZM33.0675 18.8603L42.3338 22.8223C42.629 22.5914 42.9667 22.4209 43.3278 22.3202L44.8507 12.8503L39.0485 7.048L32.5175 17.2675C32.8376 17.741 33.0273 18.2902 33.0675 18.8603ZM52.4837 20.4832L46.6688 14.6672L45.4048 22.5193C45.7252 22.6804 46.013 22.8994 46.2537 23.1653L52.4837 20.4832ZM38.5515 39.3515C38.7791 38.9384 39.106 38.5885 39.5027 38.3334C39.8994 38.0783 40.3534 37.9261 40.8237 37.8905L42.4938 27.5035C42.3628 27.4165 42.2458 27.3125 42.1307 27.2055L22.8962 35.4835C22.9452 35.6845 22.9792 35.8895 22.9953 36.1025L38.5515 39.3515ZM54.0677 22.0683L47.3397 24.9632L63.94 32.0605L64 32.0005L54.0677 22.0683ZM42.0448 43.4058L40.0228 55.9767L51.7637 44.2357L43.3068 42.4697C42.9824 42.8942 42.545 43.2186 42.0448 43.4058ZM19.2232 40.1738C18.7983 40.1738 18.3913 40.1007 18.0103 39.9715L14.1103 46.0747L12.6032 44.5687L16.2973 38.7887C16.2059 38.6754 16.1208 38.5571 16.0422 38.4345L9.35025 41.3158L7.764 39.7295L15.089 36.5765L1.84625 33.8125L0.035 32.0005L0.608 31.4275L15.8792 34.6155C16.0549 34.2823 16.2797 33.9776 16.5462 33.7115L9.13425 22.9002L10.6313 21.4032L18.375 32.6995C18.6531 32.6349 18.9375 32.6017 19.223 32.6005C19.55 32.6005 19.867 32.6465 20.17 32.7245L27.4163 21.3862C26.8263 20.7743 26.4969 19.9573 26.4972 19.1073C26.4972 18.8472 26.5303 18.5953 26.5872 18.3533L17.5473 14.4882L19.133 12.9023L27.698 16.5653C28.1323 16.2073 28.6514 15.9671 29.2054 15.8678C29.7594 15.7685 30.3296 15.8134 30.8612 15.9983L37.5423 5.542L32.0005 0L0 32.0005L32.0005 64.001L35.1495 60.852L20.7533 39.8495C20.2714 40.0631 19.7503 40.1735 19.2232 40.1738ZM44.5308 27.9513L42.8317 38.5105C43.1287 38.7491 43.3745 39.045 43.5547 39.3805C43.735 39.7161 43.8458 40.0845 43.8807 40.4637L53.5238 42.4767L62.3537 33.6468L46.4157 26.8325C45.9597 27.4396 45.2821 27.8416 44.5308 27.9513Z" fill="#25C7B7"/>
</g>
<defs>
<clipPath id="clip0_1205_1622">
<rect width="64" height="64" fill="white"/>
</clipPath>
</defs>
</svg>
