<svg width="64" height="64" viewBox="0 0 64 64" fill="none" xmlns="http://www.w3.org/2000/svg">
<g clip-path="url(#clip0_1206_2202)">
<path d="M28.2009 63.9591C22.2102 63.5273 16.2891 62.0194 12.6578 60.0006C10.5894 58.8508 9.01353 57.4377 8.39517 56.1783L8.02725 55.4289V31.9244V8.41988L8.31838 7.82875C9.61938 5.18738 13.7715 2.80617 19.5675 1.37741C21.535 0.892385 24.3754 0.409372 26.6926 0.165806C29.0587 -0.0829713 35.3304 -0.0451216 37.6907 0.232547C43.9638 0.969553 49.3019 2.61953 52.5915 4.83841C53.8601 5.69409 55.1619 7.06326 55.6029 8.0057L55.981 8.81374L55.9486 32.2472L55.9163 55.6807L55.6127 56.2973C55.4458 56.6364 54.9416 57.3037 54.4923 57.7799C51.7569 60.6796 45.8896 62.8246 38.1935 63.7385C36.6249 63.9248 29.8102 64.0751 28.2009 63.9591ZM39.2409 43.8189C39.2179 43.7588 38.3223 42.961 37.2508 42.0459C36.1793 41.1308 35.2564 40.339 35.2 40.2865C35.1436 40.2339 35.3415 40.0478 35.6399 39.8729C35.9383 39.698 36.51 39.2114 36.9103 38.7916C38.081 37.564 38.6334 36.0475 38.6334 34.0612C38.6334 32.1057 38.0377 30.528 36.8444 29.3236C35.6419 28.1096 34.2611 27.588 32.2502 27.588C29.1508 27.588 26.7703 29.3965 26.0106 32.3286C25.7492 33.3372 25.7506 35.3751 26.0133 36.2694C26.6985 38.602 28.5646 40.2962 30.887 40.694C31.6729 40.8287 31.7794 40.8867 32.3152 41.4725C32.6336 41.8206 33.2871 42.5156 33.7673 43.0168L34.6405 43.928H36.9617C38.2383 43.928 39.264 43.8789 39.2409 43.8189ZM31.2807 37.3197C30.7219 37.0283 30.5106 36.8022 30.1919 36.1544C29.9458 35.6541 29.9037 35.3695 29.901 34.1869C29.8982 32.9853 29.9365 32.7256 30.1934 32.2038C30.6139 31.35 31.1933 30.9458 32.0895 30.8809C33.3371 30.7904 34.0572 31.4027 34.4347 32.8742C34.8974 34.6783 34.3885 36.5963 33.2783 37.2328C32.6958 37.5668 31.827 37.6046 31.2807 37.3197ZM20.9921 40.6684C23.4257 40.2069 24.8072 38.7916 24.8072 36.7599C24.8072 34.9576 23.9153 33.9073 21.4503 32.8069C20.0392 32.1769 19.5281 31.7815 19.5281 31.3195C19.5281 30.9366 20.0131 30.517 20.5778 30.4116C21.1291 30.3087 22.5914 30.5627 23.4549 30.9115L24.1788 31.2039V29.6017V27.9994L23.3932 27.8251C22.9076 27.7174 21.8874 27.6528 20.7222 27.6561C19.0716 27.6561 18.7484 27.6963 18.1273 27.943C16.313 28.6633 15.452 29.8902 15.4658 31.7359C15.4786 33.4637 16.3902 34.5415 18.6587 35.5111C19.9972 36.0831 20.5337 36.5188 20.5337 37.0336C20.5337 38.1275 18.7109 38.2621 16.7811 37.3107C16.2526 37.0502 15.7778 36.8158 15.7259 36.7898C15.6741 36.7638 15.6317 37.5123 15.6317 38.453C15.6317 40.1558 15.6335 40.164 15.9418 40.2814C17.1027 40.7228 19.6686 40.9194 20.9921 40.6684ZM48.8145 39.0889V37.6434H46.6149H44.4153V32.6785V27.7137H42.467H40.5188V34.124V40.5343H44.6666H48.8145V39.0889ZM35.2397 13.7586C39.1112 13.49 42.0133 12.983 44.567 12.1292C47.1112 11.2785 48.6141 10.2493 48.9502 9.12724C49.0798 8.69488 49.0705 8.53088 48.8895 8.05682C48.0778 5.93156 43.5437 4.29871 36.6153 3.63668C33.6516 3.35343 28.2617 3.44525 25.4358 3.82697C21.124 4.40955 17.6248 5.49167 16.0689 6.72367C12.9214 9.21602 16.2499 11.9573 23.9903 13.2475C27.3465 13.807 31.6946 14.0045 35.2397 13.7586Z" fill="#00BCF2"/>
</g>
<defs>
<clipPath id="clip0_1206_2202">
<rect width="64" height="64" fill="white"/>
</clipPath>
</defs>
</svg>
