<svg width="64" height="64" viewBox="0 0 64 64" fill="none" xmlns="http://www.w3.org/2000/svg">
<path d="M41.1541 39.4559L58.0384 22.062C59.0023 21.069 59.0023 19.4614 58.0384 18.471L45.8356 5.89978C44.8717 4.90678 43.3112 4.90678 42.3498 5.89978L9.77689 39.4559H22.628H41.1541Z" fill="#00ACCA"/>
<path d="M41.1541 39.4563L45.9687 34.4964L30.4354 18.1742L9.77689 39.4563H22.628H41.1541Z" fill="#03BCD5"/>
<path d="M16.2604 32.7771L9.77689 39.4563H22.628L16.2604 32.7771Z" fill="#E2E2E2"/>
<path d="M25.4657 23.294V3.90133C25.4657 2.49945 24.3613 1.36169 23.0005 1.36169H5.74397C4.38317 1.36169 3.27875 2.49945 3.27875 3.90133V41.9958C3.27875 40.5939 4.38317 39.4562 5.74397 39.4562H9.77705L25.4657 23.294Z" fill="#F09F53"/>
<path d="M25.4657 21.6788V3.90133C25.4657 2.49945 24.3613 1.36169 23.0005 1.36169H5.74397C4.38317 1.36169 3.27875 2.49945 3.27875 3.90133V21.6788H25.4657Z" fill="#ED8E43"/>
<path d="M5.74397 62.3129C4.38317 62.3129 3.27875 61.1752 3.27875 59.7733V41.9959C3.27875 40.594 4.38317 39.4562 5.74397 39.4562H59.9786C61.3394 39.4562 62.4439 40.594 62.4439 41.9959V59.7733C62.4439 61.1752 61.3394 62.3129 59.9786 62.3129H5.74397Z" fill="#CF5252"/>
<path d="M5.74397 62.3129C4.38317 62.3129 3.27875 61.1752 3.27875 59.7733V41.9959C3.27875 40.594 4.38317 39.4562 5.74397 39.4562H22.6257H42.7222V62.3129H22.6257H5.74397Z" fill="#F2696A"/>
<path d="M5.74397 62.3129C4.38317 62.3129 3.27875 61.1752 3.27875 59.7733V41.9959C3.27875 40.594 4.38317 39.4562 5.74397 39.4562H22.6257V62.3129H5.74397Z" fill="#E2E2E2"/>
<path d="M13.1396 53.4242C14.5011 53.4242 15.6048 52.2872 15.6048 50.8846C15.6048 49.482 14.5011 48.345 13.1396 48.345C11.7781 48.345 10.6744 49.482 10.6744 50.8846C10.6744 52.2872 11.7781 53.4242 13.1396 53.4242Z" fill="#5273AA"/>
</svg>
