<svg width="64" height="64" viewBox="0 0 64 64" fill="none" xmlns="http://www.w3.org/2000/svg">
<path d="M55.0741 35.5752C52.8426 35.5869 50.9032 36.1243 49.2793 36.9187C48.6834 35.7388 48.0876 34.6873 47.9825 33.9162C47.8656 33.0166 47.7254 32.4675 47.8656 31.3926C48.0058 30.3178 48.6367 28.7873 48.625 28.6705C48.6133 28.5536 48.4848 28.0045 47.1997 27.9929C45.9146 27.9812 44.8047 28.2382 44.6761 28.577C44.5476 28.9158 44.3023 29.6869 44.1387 30.4814C43.9167 31.6497 41.5684 35.8205 40.2249 38.0053C39.7926 37.1524 39.4188 36.4047 39.337 35.8088C39.2201 34.9093 39.0799 34.3601 39.2201 33.2853C39.3603 32.2105 39.9912 30.68 39.9795 30.5631C39.9679 30.4463 39.8393 29.8972 38.5542 29.8855C37.2691 29.8738 36.1592 30.1309 36.0307 30.4697C35.9021 30.8085 35.7619 31.6029 35.4932 32.374C35.2245 33.1451 32.1051 40.1082 31.2873 41.9074C30.8667 42.8304 30.5045 43.5664 30.2475 44.0688C30.2475 44.0688 30.2358 44.1038 30.2008 44.1623C29.9788 44.5945 29.8503 44.8282 29.8503 44.8282C29.8503 44.8282 29.8503 44.8282 29.8503 44.8399C29.675 45.1553 29.4881 45.4474 29.3947 45.4474C29.3246 45.4474 29.196 44.6062 29.418 43.4613C29.8853 41.0429 30.9952 37.2809 30.9836 37.1524C30.9836 37.0823 31.1938 36.4281 30.2592 36.0892C29.3479 35.7504 29.0208 36.3112 28.939 36.3112C28.8572 36.3112 28.7988 36.5098 28.7988 36.5098C28.7988 36.5098 29.8152 32.2806 26.8594 32.2806C25.0135 32.2806 22.4666 34.3017 21.2048 36.1243C20.4104 36.5566 18.7163 37.4795 16.9054 38.4726C16.2161 38.8581 15.5035 39.2437 14.8375 39.6059C14.7908 39.5591 14.7441 39.5007 14.6973 39.454C11.1223 35.6336 4.50966 32.9348 4.79005 27.8059C4.8952 25.9366 5.53777 21.0297 17.4896 15.0714C27.3267 10.2229 35.1544 11.5664 36.5097 14.5456C38.4491 18.7983 32.3154 26.696 22.1511 27.841C18.2723 28.2733 16.2395 26.7778 15.7254 26.217C15.188 25.6329 15.1062 25.5978 14.9076 25.7147C14.5805 25.8899 14.7908 26.4156 14.9076 26.7194C15.2114 27.5139 16.4615 28.9158 18.5761 29.6051C20.4454 30.2126 24.9901 30.5515 30.4929 28.4251C36.6499 26.0418 41.4633 19.4175 40.0496 13.868C38.636 8.23674 29.2895 6.37913 20.4454 9.52188C15.188 11.3912 9.48666 14.3353 5.38589 18.1674C0.514037 22.7238 -0.257047 26.6844 0.0583964 28.3434C1.19166 34.2316 9.31141 38.0637 12.5593 40.9027C12.3957 40.9961 12.2439 41.0779 12.1154 41.148C10.4914 41.9542 4.29936 45.1904 2.75719 48.6135C1.00473 52.4923 3.03759 55.2729 4.38114 55.6467C8.55201 56.8034 12.8397 54.7238 15.1413 51.2889C17.4428 47.8541 17.1625 43.3912 16.0993 41.3466C16.0876 41.3233 16.0759 41.2999 16.0526 41.2765C16.4731 41.0312 16.9054 40.7742 17.326 40.5288C18.1555 40.0381 18.9733 39.5825 19.6743 39.2086C19.2771 40.2952 18.985 41.592 18.8448 43.4613C18.6696 45.6577 19.5692 48.5084 20.7492 49.6299C21.2749 50.1206 21.8941 50.1323 22.2913 50.1323C23.6699 50.1323 24.2891 48.9874 24.9784 47.6321C25.8196 45.9731 26.579 44.0454 26.579 44.0454C26.579 44.0454 25.6327 49.2561 28.203 49.2561C29.1376 49.2561 30.084 48.041 30.5045 47.4218C30.5045 47.4335 30.5045 47.4335 30.5045 47.4335C30.5045 47.4335 30.5279 47.3985 30.5746 47.3167C30.6681 47.1648 30.7265 47.0714 30.7265 47.0714C30.7265 47.0714 30.7265 47.0597 30.7265 47.048C31.1004 46.3937 31.9416 44.91 33.1917 42.4448C34.8039 39.267 36.3578 35.2948 36.3578 35.2948C36.3578 35.2948 36.498 36.2645 36.977 37.8768C37.2574 38.8231 37.8415 39.8629 38.3089 40.8676C37.935 41.3934 37.7013 41.6854 37.7013 41.6854C37.7013 41.6854 37.7013 41.6854 37.713 41.6971C37.4093 42.0944 37.0821 42.5266 36.72 42.9472C35.4465 44.466 33.9277 46.2068 33.7174 46.7092C33.4721 47.305 33.5305 47.7373 33.9978 48.0878C34.3366 48.3448 34.9441 48.3799 35.5633 48.3448C36.7083 48.263 37.5144 47.9826 37.9116 47.8074C38.5308 47.5854 39.2552 47.2466 39.9328 46.7442C41.1829 45.8213 41.9423 44.5011 41.8722 42.7603C41.8372 41.8023 41.5217 40.8443 41.1362 39.9447C41.253 39.7811 41.3581 39.6175 41.475 39.454C43.4494 36.5683 44.9799 33.4021 44.9799 33.4021C44.9799 33.4021 45.1201 34.3718 45.5991 35.9841C45.8328 36.8019 46.3118 37.6898 46.7324 38.5544C44.8748 40.0615 43.7298 41.814 43.3209 42.9589C42.5849 45.0852 43.1573 46.0432 44.2439 46.2652C44.7346 46.3704 45.4355 46.1367 45.9496 45.9147C46.6039 45.7044 47.3749 45.3423 48.111 44.8048C49.3611 43.8819 50.5644 42.5967 50.4943 40.8559C50.4593 40.0615 50.249 39.2787 49.9569 38.5193C51.5341 37.8651 53.567 37.5029 56.1606 37.8067C61.7218 38.4609 62.82 41.9308 62.6097 43.3912C62.3994 44.8516 61.2311 45.646 60.8456 45.8914C60.46 46.1367 60.3315 46.2185 60.3665 46.3937C60.4133 46.6508 60.6002 46.6391 60.9273 46.5923C61.383 46.5106 63.8481 45.4124 63.9533 42.7252C64.1285 39.2904 60.8572 35.5401 55.0741 35.5752ZM12.1738 50.0389C10.3278 52.0483 7.75756 52.8078 6.64766 52.1652C5.45599 51.4759 5.92331 48.5084 8.18983 46.382C9.56844 45.0852 11.3443 43.8819 12.5243 43.1458C12.793 42.9823 13.1902 42.7486 13.6692 42.4565C13.751 42.4098 13.7977 42.3864 13.7977 42.3864C13.8912 42.328 13.9846 42.2696 14.0781 42.2112C14.9076 45.2488 14.1132 47.9242 12.1738 50.0389ZM25.6093 40.9027C24.9668 42.4682 23.6232 46.4755 22.8054 46.2535C22.1044 46.0666 21.6721 43.029 22.6652 40.0264C23.1676 38.5193 24.2307 36.7201 24.8499 36.0191C25.8547 34.8976 26.9646 34.5237 27.2333 34.9793C27.5721 35.5752 26.0066 39.9213 25.6093 40.9027ZM36.6966 46.2068C36.4279 46.347 36.1708 46.4405 36.054 46.3704C35.9722 46.3236 36.1708 46.1367 36.1708 46.1367C36.1708 46.1367 37.5611 44.6413 38.1102 43.9636C38.4257 43.5664 38.7995 43.0991 39.1968 42.5734C39.1968 42.6201 39.1968 42.6785 39.1968 42.7252C39.1968 44.5128 37.4677 45.7161 36.6966 46.2068ZM45.2486 44.2557C45.05 44.1155 45.0851 43.6482 45.751 42.1878C46.008 41.6153 46.6155 40.6573 47.6553 39.7344C47.7722 40.1082 47.8539 40.4704 47.8423 40.8092C47.8306 43.064 46.2183 43.9052 45.2486 44.2557Z" fill="#CD6799"/>
</svg>
