<svg width="64" height="64" viewBox="0 0 64 64" fill="none" xmlns="http://www.w3.org/2000/svg">
<g clip-path="url(#clip0_1201_1573)">
<circle cx="32" cy="32" r="28" fill="#F6F6F6"/>
<path d="M31.9813 63.984C36.1901 64.0066 40.3615 63.1944 44.2543 61.5943C48.1471 59.9942 51.6839 57.638 54.6601 54.662C57.6363 51.6861 59.9928 48.1495 61.5933 44.2568C63.1937 40.3642 64.0063 36.1928 63.984 31.984C63.984 14.176 49.7947 -0.0159912 31.984 -0.0159912C14.1733 -0.0159912 -0.0159993 14.176 -0.0159993 31.9813C-0.0389776 36.19 0.772932 40.3614 2.37274 44.2541C3.97256 48.1469 6.3285 51.6837 9.30425 54.66C12.28 57.6362 15.8164 59.9928 19.7089 61.5932C23.6014 63.1937 27.7727 64.0063 31.9813 63.984ZM6.93867 32.2613L31.7067 57.0293C18.0693 57.0293 6.93867 45.8987 6.93867 32.2613ZM31.9813 6.93868C35.9238 6.94325 39.8104 7.87112 43.3298 9.64794C46.8491 11.4248 49.9034 14.0011 52.248 17.1707L52.296 17.2373L48.68 20.296C44.9493 14.8907 38.7893 11.392 31.8133 11.392H31.576C27.397 11.3921 23.3212 12.6905 19.9122 15.1077C16.5032 17.525 13.9294 20.9417 12.5467 24.8853L12.504 25.0267L38.6613 51.1867C45.064 48.96 50.0693 43.3973 51.4613 36.7147H40.608V31.984H57.0267C57.0267 43.9493 48.6773 53.968 37.5467 56.472L7.496 26.4187C9.99467 15.288 20.0187 6.93868 31.9813 6.93868Z" fill="#744C9E"/>
</g>
<defs>
<clipPath id="clip0_1201_1573">
<rect width="64" height="64" fill="white"/>
</clipPath>
</defs>
</svg>
