<svg width="64" height="64" viewBox="0 0 64 64" fill="none" xmlns="http://www.w3.org/2000/svg">
<g clip-path="url(#clip0_1208_2499)">
<path d="M32 64C49.6733 64 64 49.6733 64 32C64 14.3267 49.6733 0 32 0C14.3267 0 0 14.3267 0 32C0 49.6733 14.3267 64 32 64Z" fill="white"/>
<path fill-rule="evenodd" clip-rule="evenodd" d="M37.9467 12.0907L15.7467 13.7254C13.9573 13.88 13.3333 15.0467 13.3333 16.4454V40.7094C13.3333 41.7987 13.7227 42.7307 14.6573 43.976L19.876 50.7414C20.7333 51.8307 21.512 52.064 23.1493 51.9867L48.9293 50.4307C51.1093 50.276 51.7333 49.264 51.7333 47.5534V20.2574C51.7333 19.372 51.3827 19.1174 50.3507 18.364C50.2919 18.321 50.2333 18.2779 50.1747 18.2347L43.088 13.2574C41.3747 12.0147 40.6733 11.8574 37.9467 12.0907ZM23.7333 19.8094C21.628 19.9507 21.1507 19.9827 19.9547 19.0134L16.9147 16.6027C16.6053 16.2907 16.7613 15.9014 17.5387 15.824L38.8813 14.2694C40.672 14.1134 41.6067 14.736 42.308 15.28L45.9693 17.924C46.1253 18.0027 46.5133 18.468 46.0467 18.468L24.0053 19.7907L23.7333 19.8094ZM21.2787 47.32V24.1467C21.2787 23.1347 21.5893 22.668 22.524 22.5894L47.8373 21.112C48.696 21.0347 49.0853 21.5787 49.0853 22.5894V45.608C49.0853 46.62 48.9293 47.476 47.5253 47.5534L23.3027 48.9534C21.9013 49.0307 21.2787 48.5654 21.2787 47.32ZM45.192 25.3894C45.3467 26.0894 45.192 26.7894 44.4893 26.8694L43.3213 27.1V44.2094C42.308 44.7534 41.3747 45.064 40.596 45.064C39.3493 45.064 39.036 44.6747 38.1027 43.5094L30.468 31.5334V43.12L32.884 43.6654C32.884 43.6654 32.884 45.0654 30.9347 45.0654L25.5613 45.376C25.4067 45.064 25.5613 44.288 26.108 44.132L27.508 43.744V28.424L25.5613 28.2667C25.4067 27.5667 25.7947 26.556 26.8867 26.4787L32.6507 26.0894L40.596 38.2227V27.4894L38.5693 27.2574C38.4147 26.4 39.036 25.7787 39.816 25.7014L45.192 25.3894Z" fill="black"/>
</g>
<defs>
<clipPath id="clip0_1208_2499">
<rect width="64" height="64" fill="white"/>
</clipPath>
</defs>
</svg>
