<svg width="64" height="64" viewBox="0 0 64 64" fill="none" xmlns="http://www.w3.org/2000/svg">
<g clip-path="url(#clip0_1205_1621)">
<circle cx="32" cy="32" r="21" fill="#F6F6F6"/>
<path d="M28.875 0.137531C22.6 0.825031 16.7 3.25003 11.9375 7.08753C10.325 8.38753 7.6875 11.1 6.525 12.65C3.2125 17.075 1.1 22.125 0.300001 27.5625C0.0250007 29.4 -0.0624993 32.9125 0.112501 34.75C0.637501 40.1625 2.3625 45.1625 5.175 49.425C10.35 57.2875 18.2625 62.325 27.5625 63.7C29.4 63.975 32.9125 64.0625 34.75 63.8875C40.1625 63.3625 45.1625 61.6375 49.425 58.825C57.2875 53.65 62.325 45.7375 63.7 36.4375C63.975 34.6 64.0625 31.0875 63.8875 29.25C63.25 22.7 60.9125 16.9 56.9125 11.9375C55.6125 10.325 52.9 7.68753 51.35 6.52503C46.925 3.21253 41.9125 1.12503 36.4375 0.30003C34.925 0.0750313 30.35 -0.024971 28.875 0.137531ZM40.2375 29.4875C44.575 37.075 48.125 43.3 48.125 43.325C48.125 43.35 41.0125 43.375 32.3125 43.375C23.6125 43.375 16.5 43.35 16.5 43.3125C16.5 43.2125 32.2875 15.6125 32.325 15.6625C32.3375 15.675 35.9125 21.9 40.2375 29.4875Z" fill="black"/>
</g>
<defs>
<clipPath id="clip0_1205_1621">
<rect width="64" height="64" fill="white"/>
</clipPath>
</defs>
</svg>
