<svg width="64" height="64" viewBox="0 0 64 64" fill="none" xmlns="http://www.w3.org/2000/svg">
<g clip-path="url(#clip0_1205_1615)">
<path d="M57.528 39.816L52.4053 40.12C49.6293 40.2533 46.6507 42.5173 45.5973 45.2933L45.2213 46.2613C45.2027 46.3041 45.1953 46.3508 45.1998 46.3972C45.2042 46.4436 45.2204 46.4881 45.2468 46.5265C45.2733 46.565 45.309 46.596 45.3507 46.6168C45.3924 46.6376 45.4388 46.6474 45.4853 46.6453H63.08C63.2853 46.6453 63.472 46.512 63.5307 46.304C63.8293 45.2 64 44.04 64 42.8427C64 35.8107 58.3333 30.0667 51.376 30.0667V30.0533C51.1707 30.0533 50.9467 30.0533 50.7413 30.0827C50.5893 30.0827 50.4613 30.1973 50.4027 30.3467L49.5013 33.52C49.1093 34.8907 49.256 36.144 49.912 37.0773C50.5147 37.9307 51.528 38.424 52.744 38.48L57.6613 38.7867C57.8107 38.7867 57.9413 38.856 58.016 38.976C58.0896 39.1035 58.1097 39.255 58.072 39.3973C58.0305 39.5116 57.9572 39.6116 57.8609 39.6858C57.7645 39.7599 57.6491 39.8051 57.528 39.816Z" fill="#F4A83F"/>
<path d="M0 44.8453C0 45.3173 0.0373333 45.7946 0.0933333 46.2693C0.109127 46.3782 0.163122 46.478 0.245674 46.5508C0.328227 46.6236 0.433963 46.6646 0.544 46.6666H43.1627C43.2857 46.6635 43.4045 46.6212 43.5019 46.5459C43.5992 46.4706 43.67 46.3663 43.704 46.248L44.024 45.0933C44.416 43.7226 44.2667 42.4666 43.6107 41.536C43.0107 40.6826 41.9973 40.1866 40.7787 40.1306L17.688 39.8266H17.6827C17.6129 39.8269 17.5443 39.8095 17.4831 39.7759C17.422 39.7423 17.3705 39.6937 17.3333 39.6346C17.296 39.5724 17.2717 39.5004 17.2621 39.4284C17.2525 39.3564 17.2577 39.2832 17.2773 39.2133C17.3185 39.0986 17.3915 38.998 17.4879 38.9233C17.5843 38.8487 17.6999 38.8031 17.8213 38.792L41.1173 38.488C43.8773 38.3546 46.8773 36.0906 47.928 33.3146L49.2587 29.7973C49.3178 29.6538 49.3318 29.4956 49.2987 29.344C47.7973 22.4666 41.7387 17.3333 34.4987 17.3333C27.8213 17.3333 22.1573 21.7066 20.1307 27.768C18.7627 26.732 17.0543 26.2502 15.3467 26.4186C12.1387 26.7413 9.57067 29.3466 9.25067 32.5973C9.176 33.4346 9.232 34.2533 9.41867 35.0133C4.18133 35.1653 0 39.5013 0 44.8453Z" fill="#ED7E1F"/>
</g>
<defs>
<clipPath id="clip0_1205_1615">
<rect width="64" height="64" fill="white"/>
</clipPath>
</defs>
</svg>
