<svg width="64" height="64" viewBox="0 0 64 64" fill="none" xmlns="http://www.w3.org/2000/svg">
<path d="M19.5001 36.625L32.0001 13.75L44.5001 36.625L39.5001 49.875H24.5001L19.5001 36.625Z" fill="#E2E2E2"/>
<path d="M39.5 49.875C40.8813 49.875 42 50.9937 42 52.375C42 53.065 41.72 53.69 41.2675 54.1425C40.815 54.595 40.19 54.875 39.5 54.875H24.5C23.1187 54.875 22 53.7562 22 52.375C22 51.685 22.28 51.06 22.7325 50.6075C23.185 50.155 23.81 49.875 24.5 49.875H39.5Z" fill="#FEB756"/>
<path d="M39.4999 54.8751H24.4999V62.7501H39.4999V54.8751Z" fill="#4DBBEB"/>
<path d="M31.9999 34.125C33.3811 34.125 34.4999 35.2437 34.4999 36.625C34.4999 38.0062 33.3811 39.125 31.9999 39.125C30.6186 39.125 29.4999 38.0062 29.4999 36.625C29.4999 35.2437 30.6186 34.125 31.9999 34.125Z" fill="#4DBBEB"/>
<path fill-rule="evenodd" clip-rule="evenodd" d="M3.45514 3.29346C3.45514 3.15539 3.56707 3.04346 3.70514 3.04346H60.311C60.449 3.04346 60.561 3.15539 60.561 3.29346C60.561 3.43153 60.449 3.54346 60.311 3.54346H38.3848C42.5215 4.2414 45.8924 5.62701 48.638 7.42627C52.6575 10.0604 55.3215 13.5712 57.0864 17.0751C58.8508 20.5779 59.7188 24.0777 60.146 26.6996C60.3598 28.0112 60.4635 29.1047 60.5138 29.8714C60.539 30.2547 60.5508 30.5565 60.5563 30.763C60.559 30.8663 60.5602 30.9458 60.5607 30.9998C60.5609 31.0268 60.561 31.0474 60.561 31.0615L60.561 31.0776L60.561 31.0819L60.561 31.0831C60.561 31.0834 60.561 31.0836 60.3363 31.082L60.561 31.0836C60.5599 31.2217 60.4472 31.3328 60.3091 31.3318C60.1711 31.3307 60.06 31.218 60.061 31.0799L60.1003 31.0802C60.061 31.0799 60.061 31.08 60.061 31.0799L60.061 31.0792L60.061 31.0759L60.061 31.0618C60.061 31.0491 60.0609 31.0299 60.0607 31.0043C60.0602 30.9532 60.0591 30.8766 60.0564 30.7764C60.0511 30.5759 60.0396 30.2806 60.0149 29.9041C59.9655 29.1511 59.8634 28.0736 59.6525 26.7801C59.2307 24.1917 58.3748 20.7444 56.6399 17.3001C54.9055 13.8569 52.2949 10.4206 48.3639 7.84446C44.4341 5.26914 39.1698 3.54345 32.111 3.54346C25.0521 3.54347 19.7747 5.26917 15.8254 7.8448C11.8748 10.4213 9.23847 13.858 7.47848 17.3014C5.71793 20.746 4.83642 24.1935 4.39543 26.7818C4.17503 28.0755 4.06494 29.1529 4.00996 29.906C3.98247 30.2824 3.96876 30.5777 3.96193 30.7782C3.95851 30.8785 3.95682 30.955 3.95597 31.0062C3.95555 31.0318 3.95534 31.051 3.95524 31.0637L3.95515 31.0777L3.95514 31.081L3.95514 31.0817C3.95514 31.0818 3.95514 31.0818 3.90849 31.0818L3.95514 31.0817C3.95514 31.2198 3.84321 31.3318 3.70514 31.3318C3.56707 31.3318 3.45514 31.2199 3.45514 31.0818H3.70514C3.45514 31.0818 3.45514 31.0815 3.45514 31.0812L3.45514 31.08L3.45515 31.0757L3.45526 31.0596C3.45537 31.0456 3.45559 31.0249 3.45604 30.9979C3.45693 30.9439 3.4587 30.8645 3.46222 30.7612C3.46926 30.5546 3.48329 30.2529 3.51128 29.8695C3.56726 29.1029 3.67908 28.0094 3.90253 26.6979C4.34923 24.076 5.24308 20.5764 7.03326 17.0739C8.824 13.5702 11.5137 10.0598 15.5523 7.426C18.3108 5.62694 21.6918 4.24139 25.8335 3.54346H3.70514C3.56707 3.54346 3.45514 3.43153 3.45514 3.29346Z" fill="#91C0CF"/>
<path d="M6.23505 28.8175V33.8175H1.23505V28.8175H3.84755H6.23505Z" fill="#4DBBEB"/>
<path fill-rule="evenodd" clip-rule="evenodd" d="M5.98505 33.5675V29.0675H1.48505V33.5675H5.98505ZM6.23505 28.8175H1.23505V33.8175H6.23505V28.8175Z" fill="#6A6A6A"/>
<path d="M3.73505 0.823364C5.1163 0.823364 6.23505 1.94211 6.23505 3.32336C6.23505 4.70461 5.1163 5.82336 3.73505 5.82336C2.3538 5.82336 1.23505 4.70461 1.23505 3.32336C1.23505 1.94211 2.3538 0.823364 3.73505 0.823364Z" fill="#4DBBEB"/>
<path fill-rule="evenodd" clip-rule="evenodd" d="M5.98505 3.32336C5.98505 2.08019 4.97823 1.07336 3.73505 1.07336C2.49187 1.07336 1.48505 2.08019 1.48505 3.32336C1.48505 4.56654 2.49187 5.57336 3.73505 5.57336C4.97823 5.57336 5.98505 4.56654 5.98505 3.32336ZM6.23505 3.32336C6.23505 1.94211 5.1163 0.823364 3.73505 0.823364C2.3538 0.823364 1.23505 1.94211 1.23505 3.32336C1.23505 4.70461 2.3538 5.82336 3.73505 5.82336C5.1163 5.82336 6.23505 4.70461 6.23505 3.32336Z" fill="#6A6A6A"/>
<path d="M34.6409 3.43586V5.82336H29.6409V3.43586V3.32336V0.823364H34.6409V3.32336V3.43586Z" fill="#4DBBEB"/>
<path fill-rule="evenodd" clip-rule="evenodd" d="M34.3909 5.57336V1.07336H29.8909V5.57336H34.3909ZM34.6409 0.823364H29.6409V5.82336H34.6409V0.823364Z" fill="#6A6A6A"/>
<path d="M62.6351 28.8175V33.8175H57.6351V28.8175H60.0226H62.6351Z" fill="#4DBBEB"/>
<path fill-rule="evenodd" clip-rule="evenodd" d="M62.3851 33.5675V29.0675H57.8851V33.5675H62.3851ZM62.6351 28.8175H57.6351V33.8175H62.6351V28.8175Z" fill="#6A6A6A"/>
<path d="M60.1351 0.823364C61.5164 0.823364 62.6351 1.94211 62.6351 3.32336C62.6351 4.70461 61.5164 5.82336 60.1351 5.82336C58.7539 5.82336 57.6351 4.70461 57.6351 3.32336C57.6351 1.94211 58.7539 0.823364 60.1351 0.823364Z" fill="#4DBBEB"/>
<path fill-rule="evenodd" clip-rule="evenodd" d="M62.3851 3.32336C62.3851 2.08019 61.3783 1.07336 60.1351 1.07336C58.892 1.07336 57.8851 2.08019 57.8851 3.32336C57.8851 4.56654 58.892 5.57336 60.1351 5.57336C61.3783 5.57336 62.3851 4.56654 62.3851 3.32336ZM62.6351 3.32336C62.6351 1.94211 61.5164 0.823364 60.1351 0.823364C58.7539 0.823364 57.6351 1.94211 57.6351 3.32336C57.6351 4.70461 58.7539 5.82336 60.1351 5.82336C61.5164 5.82336 62.6351 4.70461 62.6351 3.32336Z" fill="#6A6A6A"/>
</svg>
