<svg width="64" height="64" viewBox="0 0 64 64" fill="none" xmlns="http://www.w3.org/2000/svg">
<path d="M32 37.7216C35.162 37.7216 37.7253 35.1583 37.7253 31.9963C37.7253 28.8343 35.162 26.2709 32 26.2709C28.838 26.2709 26.2747 28.8343 26.2747 31.9963C26.2747 35.1583 28.838 37.7216 32 37.7216Z" fill="#53C1DE"/>
<path d="M12.0373 42.1353C12.6 42.3219 13.1627 42.5113 13.7387 42.6739C13.552 43.4233 13.3893 44.1619 13.2373 44.9246C11.9253 51.8633 12.9493 57.3619 16.224 59.2499C19.6 61.1993 25.2747 59.1993 30.8 54.3619C31.2373 53.9753 31.6747 53.5753 32.112 53.1486C32.6613 53.6873 33.2373 54.1993 33.8107 54.6979C39.16 59.2979 44.448 61.1593 47.712 59.2739C51.088 57.3246 52.1867 51.4126 50.7627 44.2126C50.6507 43.6633 50.5253 43.1006 50.3867 42.5246C50.7867 42.4126 51.1733 42.2873 51.5627 42.1619C58.776 39.7753 64 35.9113 64 31.9486C64 28.1619 59.0747 24.4873 52.2747 22.1486V22.1459C51.6 21.9219 50.9253 21.7086 50.2507 21.5086C50.3627 21.0473 50.464 20.5833 50.5627 20.1219C52.1013 12.6713 51.088 6.68726 47.6747 4.71126C44.3867 2.82326 39.024 4.78592 33.6 9.51126C33.0613 9.97259 32.5387 10.4606 32.0373 10.9486C31.6987 10.6233 31.3493 10.2979 31 9.98592C25.312 4.93526 19.6133 2.80992 16.2 4.79926C12.9253 6.70059 11.9493 12.3379 13.3253 19.3833C13.464 20.0846 13.6133 20.7699 13.7867 21.4713C12.9867 21.6953 12.2 21.9459 11.4613 22.2099C4.78667 24.5219 0 28.1726 0 31.9486C0 35.8499 5.09867 39.7593 12.0373 42.1353ZM29.0373 52.3193C26.976 54.2073 24.5867 55.7059 21.9867 56.7326C20.6 57.3939 19 57.4579 17.5733 56.8953C15.5867 55.7459 14.76 51.3326 15.8853 45.3939C16.024 44.6953 16.1733 43.9939 16.3467 43.3059C19.1467 43.9059 21.9707 44.3193 24.8347 44.5299C26.4853 46.8686 28.296 49.1059 30.2347 51.2046C29.8347 51.5913 29.4347 51.9673 29.0347 52.3166L29.0373 52.3193ZM44.912 28.8473C44.3253 27.7459 43.7253 26.6473 43.0987 25.5726C42.4853 24.5113 41.848 23.4606 41.1867 22.4233C43.2 22.6739 45.1253 23.0099 46.9253 23.4233C46.3493 25.2739 45.6747 27.0739 44.912 28.8473ZM44.936 35.0713C45.736 36.8846 46.4373 38.7219 47.048 40.6099C45.1093 41.0473 43.1493 41.3859 41.1733 41.6099C41.848 40.5593 42.4853 39.4846 43.112 38.4099C43.7493 37.3086 44.3493 36.1966 44.936 35.0713ZM43.4907 31.9619C42.6533 33.6873 41.752 35.3859 40.792 37.0606C39.8427 38.7219 38.8293 40.3353 37.768 41.9353C35.9067 42.0739 33.968 42.1353 32.0053 42.1353C30.0427 42.1353 28.144 42.0739 26.3067 41.9593C25.2187 40.3726 24.1947 38.7459 23.232 37.0846C22.2693 35.4233 21.3813 33.7353 20.544 32.0099H20.5387C21.3627 30.2846 22.264 28.5966 23.2133 26.9353C24.1627 25.2739 25.1893 23.6606 26.264 22.0739C28.1387 21.9353 30.0507 21.8606 32.0027 21.8606C33.9547 21.8606 35.8773 21.9353 37.7413 22.0739C38.8027 23.6499 39.816 25.2606 40.7787 26.9113C41.7413 28.5619 42.64 30.2499 43.4907 31.9619ZM20.8853 25.5966C20.272 26.6579 19.672 27.7433 19.1093 28.8446C18.3227 26.9833 17.6587 25.1593 17.1093 23.3966C18.9093 22.9966 20.8213 22.6713 22.808 22.4206C22.1493 23.4579 21.4987 24.5193 20.8853 25.5966ZM19.112 35.1699C19.688 36.2713 20.2747 37.3593 20.8987 38.4339C21.536 39.5219 22.1867 40.6099 22.8747 41.6713C20.9253 41.4579 18.9867 41.1459 17.0747 40.7326C17.624 38.9326 18.312 37.0713 19.112 35.1699ZM32.1013 49.2793C30.8267 47.9059 29.552 46.3833 28.3147 44.7433C29.5147 44.7939 30.752 44.8179 32.0027 44.8179C33.2907 44.8179 34.552 44.7939 35.8027 44.7299C34.6533 46.3166 33.416 47.8313 32.1013 49.2793ZM48.44 53.0339C48.3253 54.5566 47.576 55.9806 46.376 56.9433C44.3893 58.0926 40.152 56.5939 35.576 52.6686C35.0507 52.2179 34.5253 51.7299 33.9893 51.2313C35.9013 49.1193 37.664 46.8819 39.264 44.5326C42.1253 44.2953 44.976 43.8579 47.7893 43.2206C47.9147 43.7326 48.0267 44.2446 48.128 44.7459C48.7413 47.4473 48.84 50.2579 48.44 53.0339ZM49.5253 24.0846C50.176 24.2713 50.8 24.4713 51.4 24.6713C57.224 26.6713 61.312 29.6473 61.312 31.9219C61.312 34.3726 56.9493 37.5353 50.712 39.5966C50.3627 39.7086 50.0133 39.8206 49.6507 39.9219C48.776 37.1966 47.7013 34.5353 46.464 31.9459C47.664 29.3966 48.6773 26.7699 49.5253 24.0846ZM35.36 11.5353C40.0133 7.48726 44.3493 5.90059 46.3253 7.03659C48.4373 8.24992 49.2507 13.1486 47.9253 19.5859C47.8373 20.0099 47.7493 20.4233 47.6373 20.8366C44.8613 20.2126 42.0507 19.7619 39.224 19.5113C37.6 17.1833 35.824 14.9593 33.8987 12.8713C34.3867 12.4099 34.8613 11.9726 35.36 11.5353ZM32.0267 14.7859C33.3387 16.2099 34.576 17.7086 35.7253 19.2579C33.2507 19.1459 30.7627 19.1459 28.288 19.2579C29.512 17.6473 30.776 16.1486 32.0267 14.7859ZM17.5253 7.12459C19.6267 5.90059 24.288 7.64992 29.2 11.9993C29.512 12.2739 29.824 12.5753 30.1493 12.8739C28.2107 14.9593 26.424 17.1833 24.7867 19.5086C21.9627 19.7593 19.1627 20.1966 16.3867 20.8099C16.224 20.1726 16.088 19.5219 15.9493 18.8713C14.7733 12.8206 15.5493 8.26059 17.5253 7.12459ZM12.3387 24.7459C13.0507 24.4953 13.776 24.2713 14.5013 24.0579C15.352 26.7699 16.376 29.4339 17.5627 32.0073C16.3627 34.6206 15.3253 37.3193 14.464 40.0686L14.4613 40.0713C13.936 39.9219 13.424 39.7593 12.912 39.5833C10.2507 38.7459 7.224 37.4206 5.03733 35.6846C3.776 34.8099 2.92533 33.4606 2.688 31.9459C2.688 29.6579 6.63733 26.7326 12.3387 24.7459Z" fill="#53C1DE"/>
</svg>
