<svg width="64" height="64" viewBox="0 0 64 64" fill="none" xmlns="http://www.w3.org/2000/svg">
<g clip-path="url(#clip0_1206_2003)">
<path d="M61.3088 38.381C64.8118 34.878 64.8115 29.1782 61.3088 25.6752C59.612 23.9782 57.3558 23.044 54.956 23.044C54.386 23.044 53.8252 23.096 53.278 23.1982C55.6625 21.5672 57.208 18.8245 57.208 15.7747C57.208 10.8207 53.1775 6.79048 48.2235 6.79048C45.1677 6.79048 42.4202 8.34173 40.7902 10.7345C41.3295 7.89023 40.4837 4.85023 38.3228 2.68948C36.6265 0.992483 34.37 0.0579834 31.9705 0.0579834C29.5705 0.0579834 27.3145 0.992483 25.6175 2.68948C23.4568 4.85023 22.611 7.89023 23.15 10.7345C21.5203 8.34198 18.7728 6.79048 15.7168 6.79048C10.763 6.79048 6.73275 10.8205 6.73275 15.7747C6.73275 18.8247 8.27775 21.5672 10.6622 23.1982C10.109 23.0952 9.54731 23.0435 8.9845 23.044C6.5845 23.044 4.3285 23.9785 2.63175 25.6755C0.9345 27.3722 0 29.6285 0 32.028C0 34.428 0.9345 36.684 2.6315 38.381C4.32825 40.0777 6.5845 41.0125 8.984 41.0125C9.554 41.0125 10.1147 40.9605 10.662 40.858C8.2775 42.4892 6.7325 45.232 6.7325 48.2817C6.7325 53.2355 10.7625 57.2657 15.7165 57.2657C18.7725 57.2657 21.5203 55.7142 23.15 53.3217C22.6108 56.1662 23.4565 59.2062 25.6175 61.3667C27.3143 63.0637 29.5705 63.9982 31.97 63.9982C34.37 63.9982 36.6263 63.0637 38.323 61.3667C40.4838 59.206 41.3295 56.166 40.7902 53.3217C42.4202 55.7142 45.1677 57.2657 48.2235 57.2657C53.1775 57.2657 57.2077 53.2357 57.2077 48.2817C57.2077 45.2317 55.6628 42.4892 53.278 40.858C53.8252 40.9605 54.3862 41.0125 54.956 41.0125C57.3558 41.0125 59.612 40.0777 61.3088 38.381Z" fill="black"/>
<path d="M58.5978 28.3845C56.5855 26.3725 53.323 26.3725 51.3107 28.3845H40.7648L48.222 20.9275C51.0677 20.9275 53.3745 18.6205 53.3745 15.7748C53.3745 12.929 51.0677 10.6218 48.222 10.6218C45.376 10.6218 43.0692 12.929 43.0692 15.7748L35.612 23.232V12.6858C37.6242 10.6735 37.6242 7.41103 35.612 5.39878C33.5995 3.38628 30.337 3.38628 28.3247 5.39878C26.3125 7.41128 26.3125 10.6738 28.3247 12.6858V23.232L20.8677 15.7745C20.8677 12.929 18.5607 10.622 15.715 10.622C12.8692 10.622 10.5622 12.929 10.5622 15.7745C10.5622 18.6205 12.8692 20.9275 15.7147 20.9275L23.1722 28.3845H12.626C10.6135 26.3723 7.351 26.3725 5.3385 28.3845C3.3265 30.397 3.3265 33.6595 5.3385 35.672C7.351 37.684 10.6135 37.684 12.626 35.672H23.1717L15.715 43.1288C12.8692 43.1288 10.5622 45.4355 10.5622 48.2813C10.5622 51.1273 12.8692 53.4343 15.7147 53.4343C18.5607 53.4343 20.8677 51.1273 20.8677 48.2815L28.3247 40.8243V51.3703C26.3125 53.3825 26.3125 56.6453 28.3247 58.6575C30.3372 60.6698 33.5997 60.6698 35.6122 58.6575C37.6242 56.645 37.6242 53.3825 35.6122 51.37V40.8243L43.0692 48.2815C43.0692 51.1273 45.376 53.434 48.2217 53.434C51.0677 53.434 53.3747 51.1273 53.3747 48.2815C53.3747 45.4355 51.0677 43.1288 48.222 43.1288L40.7645 35.6715H51.3107C53.3232 37.684 56.5858 37.684 58.5978 35.6715C60.6103 33.6593 60.6103 30.3968 58.5978 28.3845Z" fill="#FFB13B"/>
</g>
<defs>
<clipPath id="clip0_1206_2003">
<rect width="64" height="64" fill="white"/>
</clipPath>
</defs>
</svg>
