<svg width="64" height="64" viewBox="0 0 64 64" fill="none" xmlns="http://www.w3.org/2000/svg">
<g clip-path="url(#clip0_1379_3039)">
<path d="M32.0011 64.0003C49.6744 64.0003 64.0014 49.6734 64.0014 32.0002C64.0014 14.327 49.6744 6.10352e-05 32.0011 6.10352e-05C14.3279 6.10352e-05 0.000915527 14.327 0.000915527 32.0002C0.000915527 49.6734 14.3279 64.0003 32.0011 64.0003Z" fill="white"/>
<path fill-rule="evenodd" clip-rule="evenodd" d="M31.2228 47.1336C26.0073 46.8146 21.0128 43.6244 18.5848 38.9623C16.3315 34.6359 16.3669 29.2008 18.6699 24.9074C21.2482 20.1015 26.3623 17.1708 32.0228 16.9187C32.0228 16.9187 33.4293 16.8286 34.3682 16.2954C37.1537 14.7127 37.5697 10.0407 34.5759 8.13298C33.77 7.6195 32.8081 7.38172 31.849 7.38467C22.3923 7.47526 13.2476 13.3849 9.4037 22.1524C6.17317 29.5218 6.84517 38.4586 11.2341 45.2924C14.727 50.7304 20.4235 54.7072 26.7428 56.0823C35.3907 57.9644 44.9695 54.7658 50.7502 48.0217C56.4817 41.3342 58.2328 31.4487 55.023 23.1498C53.1827 18.3922 49.9222 14.0535 45.5593 11.4433C45.3314 11.3069 45.0926 11.1946 44.8465 11.105C49.2354 14.8638 52.0179 20.4412 52.0179 26.662C52.0179 37.9693 42.826 47.1488 31.5034 47.1488C31.4109 47.1488 31.4015 47.1444 31.2228 47.1336Z" fill="#1292EE"/>
</g>
<defs>
<clipPath id="clip0_1379_3039">
<rect width="64" height="64" fill="white"/>
</clipPath>
</defs>
</svg>
