<svg width="64" height="64" viewBox="0 0 64 64" fill="none" xmlns="http://www.w3.org/2000/svg">
<path d="M1.5918 22.7089C1.5918 22.7089 0.0767859 21.6168 1.89481 20.1586L6.13055 16.3711C6.13055 16.3711 7.34256 15.0959 8.62401 16.2069L47.7115 45.8003V59.9909C47.7115 59.9909 47.6925 62.2193 44.8329 61.9731L1.5918 22.7089Z" fill="#2489CA"/>
<path d="M11.6666 31.8558L1.59177 41.0154C1.59177 41.0154 0.556507 41.7855 1.59177 43.1616L6.26939 47.4163C6.26939 47.4163 7.3804 48.6094 9.02167 47.2522L19.7025 39.1532L11.6666 31.8558Z" fill="#1070B3"/>
<path d="M29.3544 31.9316L47.8314 17.823L47.7114 3.70805C47.7114 3.70805 46.9223 0.627512 44.29 2.23091L19.7025 24.609L29.3544 31.9316Z" fill="#0877B9"/>
<path d="M44.8329 61.992C45.9061 63.0904 47.2065 62.7306 47.2065 62.7306L61.6055 55.6353C63.4488 54.3791 63.19 52.8199 63.19 52.8199V10.4498C63.19 8.58764 61.2836 7.94375 61.2836 7.94375L48.8035 1.92787C46.0765 0.242413 44.29 2.23087 44.29 2.23087C44.29 2.23087 46.5878 0.57698 47.7115 3.70802V59.7321C47.7115 60.1172 47.6294 60.4959 47.4653 60.8368C47.137 61.4996 46.4237 62.1183 44.713 61.8595L44.8329 61.992Z" fill="#3C99D4"/>
</svg>
