<svg width="64" height="64" viewBox="0 0 64 64" fill="none" xmlns="http://www.w3.org/2000/svg">
<path d="M52.8 24.0349C50.4002 23.2073 48.2819 21.7192 46.688 19.7412C44.9314 17.5373 42.6946 15.7651 40.1488 14.5599C37.603 13.3547 34.8157 12.7485 32 12.7878C28.2124 12.5192 24.4627 13.689 21.4976 16.0642C18.5326 18.4395 16.5697 21.8459 16 25.6051C17.1222 23.7249 18.8111 22.2497 20.8237 21.3918C22.8363 20.5338 25.0688 20.3373 27.2 20.8306C29.5958 21.6824 31.7107 23.1792 33.312 25.1565C35.0783 27.3427 37.3193 29.0967 39.8645 30.2849C42.4098 31.4732 45.1922 32.0644 48 32.0137C51.7876 32.2823 55.5373 31.1125 58.5024 28.7373C61.4674 26.362 63.4303 22.9556 64 19.1964C62.8982 21.0991 61.2147 22.5965 59.198 23.4678C57.1813 24.339 54.9382 24.5379 52.8 24.0349ZM11.2 39.9924C13.5998 40.8201 15.7181 42.3082 17.312 44.2862C19.0686 46.49 21.3054 48.2623 23.8512 49.4675C26.397 50.6727 29.1843 51.2788 32 51.2396C35.7876 51.5082 39.5373 50.3384 42.5024 47.9631C45.4674 45.5879 47.4303 42.1815 48 38.4223C46.8778 40.3025 45.1889 41.7776 43.1763 42.6356C41.1637 43.4935 38.9312 43.69 36.8 43.1967C34.4042 42.345 32.2893 40.8482 30.688 38.8709C28.917 36.6901 26.675 34.94 24.1309 33.7522C21.5868 32.5645 18.8067 31.97 16 32.0137C12.2124 31.7451 8.46267 32.9149 5.49762 35.2901C2.53257 37.6653 0.569735 41.0717 0 44.8309C1.10178 42.9283 2.78531 41.4308 4.80203 40.5596C6.81875 39.6883 9.06179 39.4895 11.2 39.9924Z" fill="#16BDB8"/>
</svg>
