<svg width="64" height="64" viewBox="0 0 64 64" fill="none" xmlns="http://www.w3.org/2000/svg">
<path d="M49.28 18.6666L47.4933 18.1066C47.4933 17.7066 47.68 17.28 47.7867 16.88C49.12 10.32 48.24 5.03998 45.12 3.30665C42 1.57331 37.52 3.30665 32.72 7.54665C32.2667 7.94665 31.7867 8.37331 31.36 8.79998L30.56 7.99998C25.5467 3.43998 20.5333 1.54665 17.52 3.30665C14.5067 5.06665 13.76 9.94665 14.8533 16.16C14.96 16.7822 15.0933 17.3955 15.2533 18C14.56 18.1866 13.8667 18.4 13.2 18.64C7.33333 20.6666 3.12 23.9733 3.12 27.2266C3.12 30.48 7.6 34.1066 13.7867 36.1866L15.28 36.6666C15.12 37.3333 14.9867 37.9733 14.8533 38.64C13.7067 44.7466 14.5867 49.6 17.52 51.2533C20.4533 52.9066 25.52 51.2533 30.3467 46.96L31.4933 45.8933C31.9733 46.3733 32.48 46.8 32.9867 47.2533C37.7067 51.3066 42.3733 52.9333 45.2533 51.28C48.1333 49.6266 49.1733 44.3466 47.92 37.9466C47.92 37.44 47.7067 36.96 47.6 36.4533L48.64 36.1333C54.9867 34.0266 59.5733 30.64 59.5733 27.1466C59.5733 23.6533 55.28 20.64 49.28 18.6666ZM34.4 9.25331C38.48 5.67998 42.4 4.26665 44.0533 5.27998C45.7067 6.29331 46.72 10.6133 45.4667 16.32C45.4667 16.6933 45.3067 17.0666 45.2 17.44C42.7593 16.8761 40.2822 16.484 37.7867 16.2666C36.3655 14.209 34.7969 12.2573 33.0933 10.4266C33.52 9.99998 33.9467 9.62665 34.4 9.25331ZM21.6533 32.9333C22.2133 33.8933 22.8 34.8533 23.3867 35.7866C21.68 35.6 19.9733 35.3066 18.2933 34.96C18.7733 33.36 19.3867 31.7333 20.08 30.0533C20.5867 31.0133 21.0933 31.9733 21.6533 32.9333ZM18.32 19.6C19.8933 19.2533 21.6 18.96 23.3333 18.7466C22.7467 19.6533 22.1867 20.5422 21.6533 21.4133C21.0933 22.3466 20.5867 23.3066 20.08 24.2666C19.4085 22.699 18.821 21.0968 18.32 19.4666V19.6ZM21.3333 27.28C22.0533 25.76 22.8533 24.2666 23.68 22.8C24.5067 21.3333 25.44 19.92 26.3467 18.5333C28 18.5333 29.68 18.3466 31.4133 18.3466C33.1467 18.3466 34.8267 18.3466 36.4533 18.5333C37.3867 19.92 38.2933 21.2 39.12 22.7733C39.9467 24.3466 40.7733 25.7333 41.52 27.2266C40.7733 28.7466 40 30.24 39.1467 31.7066C38.2933 33.1733 37.3333 34.6666 36.5067 36C34.8533 36.1333 33.1467 36.1866 31.44 36.1866C29.7333 36.1866 28.0267 36.1866 26.4 36.0266C25.44 34.64 24.56 33.2 23.7333 31.7333C22.9067 30.2666 22.08 28.8 21.3333 27.28ZM41.2267 32.9066C41.7867 31.9466 42.2933 30.96 42.8267 29.9733C43.52 31.5733 44.1333 33.1733 44.6933 34.8533C42.9867 35.2266 41.2533 35.52 39.52 35.7333C40.1067 34.8 40.6667 33.8666 41.2267 32.9066ZM42.8 24.48C42.2844 23.52 41.7511 22.56 41.2 21.6C40.6667 20.6666 40.1067 19.7333 39.52 18.9333C41.2235 19.1352 42.9148 19.429 44.5867 19.8133C44.0713 21.3984 43.475 22.956 42.8 24.48ZM31.44 12.1066C32.5924 13.3387 33.6699 14.6389 34.6667 16C32.5156 16 30.3467 16 28.16 16C29.1872 14.6479 30.2819 13.3484 31.44 12.1066ZM18.6667 5.33331C20.5067 4.23998 24.6133 5.78665 28.9333 9.62665L29.7867 10.4C28.082 12.2461 26.505 14.2062 25.0667 16.2666C22.5824 16.4902 20.1151 16.8732 17.68 17.4133C17.68 16.8533 17.4133 16.2666 17.3067 15.7066C16.2667 10.3733 16.9333 6.34665 18.6667 5.33331ZM16 34.3733L14.64 33.9466C12.1497 33.2035 9.80484 32.0401 7.70667 30.5066C7.15552 30.1324 6.68833 29.6474 6.33482 29.0827C5.98131 28.518 5.74923 27.8859 5.65333 27.2266C5.65333 25.2 9.12 22.64 14.1333 20.88L16 20.2666C16.7383 22.6589 17.629 25.0015 18.6667 27.28C17.6293 29.5859 16.7386 31.9551 16 34.3733ZM28.8533 45.1733C27.0337 46.8281 24.9283 48.1383 22.64 49.04C22.0251 49.3409 21.3542 49.5105 20.6702 49.5381C19.9861 49.5656 19.3038 49.4505 18.6667 49.2C16.9333 48.1866 16.1867 44.2933 17.1733 39.0666C17.1733 38.4533 17.44 37.84 17.6 37.2266C20.0611 37.7554 22.556 38.1118 25.0667 38.2933C26.5224 40.3564 28.1078 42.3248 29.8133 44.1866L28.7733 45.1733H28.8533ZM31.52 42.5066C30.3427 41.2299 29.2301 39.8949 28.1867 38.5066H31.44C31.44 38.5066 33.68 38.5066 34.7733 38.5066C33.76 40 32.6667 41.2 31.52 42.48V42.5066ZM45.8933 45.8133C45.8478 46.4815 45.6629 47.1327 45.3506 47.7252C45.0383 48.3176 44.6055 48.8382 44.08 49.2533C42.3467 50.2666 38.6133 48.96 34.5867 45.4933L33.1733 44.24C34.8606 42.381 36.4113 40.4025 37.8133 38.32C40.3456 38.1159 42.8592 37.7237 45.3333 37.1466C45.3333 37.6 45.5467 38.0533 45.6267 38.48C46.1687 40.8778 46.2591 43.3557 45.8933 45.7866V45.8133ZM48 33.9466L47.04 34.24C46.2804 31.8365 45.3445 29.4924 44.24 27.2266C45.2847 24.9785 46.1756 22.6621 46.9067 20.2933L48.56 20.8C53.7067 22.56 57.3067 25.2 57.3067 27.2C57.3067 29.2 53.3333 32.1333 48 33.9466ZM31.52 32.2933C32.5133 32.2775 33.4797 31.9686 34.2979 31.4053C35.1162 30.842 35.7497 30.0495 36.1189 29.1272C36.4882 28.205 36.5766 27.1943 36.3732 26.2219C36.1698 25.2496 35.6836 24.3591 34.9756 23.6622C34.2677 22.9653 33.3696 22.4932 32.3942 22.3051C31.4188 22.117 30.4095 22.2214 29.4932 22.6051C28.577 22.9888 27.7945 23.6347 27.2442 24.4617C26.6938 25.2887 26.4001 26.2599 26.4 27.2533C26.4 27.9152 26.5304 28.5706 26.7836 29.182C27.0369 29.7935 27.4082 30.3491 27.8762 30.8171C28.3442 31.2851 28.8998 31.6564 29.5113 31.9097C30.1228 32.163 30.7781 32.2933 31.44 32.2933H31.52ZM6.08 58.2133C6.57576 58.0454 7.00303 57.72 7.2967 57.2867C7.59037 56.8534 7.73434 56.336 7.70667 55.8133C7.73024 55.457 7.67742 55.0998 7.55174 54.7656C7.42606 54.4314 7.23044 54.1279 6.97795 53.8754C6.72546 53.6229 6.42195 53.4273 6.08773 53.3016C5.75351 53.1759 5.39629 53.1231 5.04 53.1466H1.6V61.5733H2.90667V58.4266H4.74667L6.45333 61.6533H8L6.08 58.2133ZM4.77333 57.3066H2.90667V54.3733H4.74667C4.95309 54.3462 5.16293 54.3643 5.36172 54.4261C5.5605 54.488 5.74352 54.5922 5.89814 54.7316C6.05276 54.871 6.17531 55.0423 6.25735 55.2337C6.33938 55.425 6.37896 55.6319 6.37333 55.84C6.38299 56.0468 6.34708 56.2532 6.26815 56.4447C6.18922 56.6361 6.0692 56.8078 5.91656 56.9477C5.76393 57.0877 5.58242 57.1923 5.38487 57.2543C5.18731 57.3164 4.97855 57.3342 4.77333 57.3066ZM13.8133 58.8V58.3733C13.8133 56.3733 12.7467 55.1466 10.96 55.1466C10.5378 55.1433 10.1197 55.2303 9.73389 55.4018C9.34807 55.5733 9.0034 55.8254 8.72304 56.1411C8.44268 56.4569 8.23311 56.8289 8.1084 57.2323C7.98369 57.6357 7.94673 58.0611 8 58.48C7.94592 58.8963 7.98269 59.3195 8.10777 59.7203C8.23285 60.1211 8.44328 60.49 8.72457 60.8017C9.00586 61.1134 9.35134 61.3605 9.73724 61.5259C10.1231 61.6913 10.5403 61.7712 10.96 61.76C11.5448 61.7886 12.1229 61.6239 12.6048 61.2914C13.0868 60.9588 13.4458 60.4769 13.6267 59.92H12.5333C12.3837 60.1837 12.1598 60.3976 11.8896 60.5351C11.6193 60.6726 11.3146 60.7276 11.0133 60.6933C10.7788 60.6978 10.5459 60.6531 10.3297 60.5621C10.1135 60.4711 9.91874 60.3358 9.75797 60.165C9.5972 59.9942 9.47398 59.7916 9.39625 59.5703C9.31852 59.349 9.28801 59.1138 9.30667 58.88L13.8133 58.8ZM10.96 56.1333C11.1734 56.1253 11.386 56.1623 11.5841 56.2419C11.7822 56.3216 11.9613 56.442 12.1097 56.5955C12.2582 56.749 12.3726 56.932 12.4456 57.1326C12.5186 57.3332 12.5485 57.547 12.5333 57.76H9.30667C9.33402 57.3427 9.52105 56.9519 9.82892 56.6689C10.1368 56.3858 10.5419 56.2322 10.96 56.24V56.1333ZM16.9067 55.04C15.4667 55.04 14.4267 55.76 14.24 56.8533H15.4667C15.4667 56.4 16.08 56.1333 16.8 56.1333C17.52 56.1333 18.08 56.5333 18.08 57.2V57.7333H16.3733C14.8533 57.7333 14 58.48 14 59.6266C14.0025 59.8965 14.061 60.163 14.1719 60.409C14.2828 60.6551 14.4437 60.8754 14.6443 61.0559C14.8449 61.2365 15.0809 61.3733 15.3372 61.4578C15.5936 61.5423 15.8647 61.5725 16.1333 61.5466C16.5108 61.563 16.8857 61.4776 17.2188 61.2993C17.5519 61.1211 17.8309 60.8565 18.0267 60.5333V61.44H19.2267V57.3066C19.3867 56 18.48 55.1466 16.9067 55.1466V55.04ZM18.1333 59.2C18.1199 59.3987 18.0669 59.5927 17.9774 59.7707C17.8879 59.9486 17.7637 60.1068 17.6122 60.236C17.4606 60.3652 17.2847 60.4628 17.0948 60.523C16.905 60.5833 16.705 60.6049 16.5067 60.5866C15.8133 60.5866 15.3067 60.24 15.3067 59.68C15.3067 59.12 15.7067 58.8266 16.5867 58.7733H18.1333V59.2ZM24.4533 57.2533C24.3666 56.9247 24.1664 56.6375 23.8882 56.4423C23.6101 56.247 23.2718 56.1565 22.9333 56.1866C21.8933 56.1866 21.2533 56.9866 21.2533 58.3466C21.2533 59.7066 21.8933 60.5333 22.9333 60.5333C23.2701 60.576 23.6108 60.4938 23.8909 60.3021C24.1711 60.1104 24.3712 59.8227 24.4533 59.4933H25.68C25.5935 60.125 25.2696 60.6999 24.7742 61.1012C24.2788 61.5025 23.6492 61.6999 23.0133 61.6533C22.5889 61.6691 22.1661 61.5916 21.7748 61.4264C21.3834 61.2612 21.0331 61.0122 20.7484 60.697C20.4636 60.3817 20.2515 60.0079 20.1268 59.6019C20.0021 59.1958 19.9679 58.7673 20.0267 58.3466C19.9855 57.941 20.0302 57.5313 20.1577 57.144C20.2852 56.7568 20.4928 56.4007 20.7669 56.0989C21.041 55.7971 21.3756 55.5564 21.7488 55.3923C22.1221 55.2283 22.5256 55.1446 22.9333 55.1466C23.5686 55.1374 24.1863 55.3553 24.6752 55.7611C25.1641 56.1669 25.4921 56.7339 25.6 57.36L24.4533 57.2533ZM28 53.6V55.2H29.3333V56.2666H28V59.5466C28 60.1866 28.2667 60.48 28.9067 60.48H29.3333V61.52C29.112 61.5479 28.888 61.5479 28.6667 61.52C27.28 61.52 26.72 61.04 26.72 59.8133V56.3733H25.7333V55.3066H26.6667V53.7066L28 53.6ZM32.48 61.6V53.3333H33.6533L37.9733 59.3066V53.3333H39.2267V61.76H38.0533L33.7333 55.76V61.76L32.48 61.6ZM42.9067 55.0933C41.4667 55.0933 40.4267 55.8133 40.24 56.9066H41.4667C41.4667 56.4533 42.08 56.1866 42.8 56.1866C43.52 56.1866 44.08 56.5866 44.08 57.2533V57.7866H42.3733C40.8533 57.7866 40 58.5333 40 59.68C40.0025 59.9499 40.061 60.2163 40.1719 60.4623C40.2828 60.7084 40.4437 60.9287 40.6443 61.1092C40.8449 61.2898 41.0809 61.4267 41.3372 61.5111C41.5936 61.5956 41.8647 61.6259 42.1333 61.6C42.5108 61.6164 42.8857 61.531 43.2188 61.3527C43.5519 61.1744 43.8309 60.9098 44.0267 60.5866V61.4933H45.3333V57.3066C45.3333 56 44.5067 55.1466 42.9067 55.1466V55.0933ZM44.1333 59.2533C44.1199 59.452 44.0669 59.6461 43.9774 59.824C43.8879 60.0019 43.7637 60.1602 43.6122 60.2894C43.4606 60.4186 43.2847 60.5162 43.0948 60.5764C42.905 60.6366 42.705 60.6582 42.5067 60.64C41.8133 60.64 41.3067 60.2933 41.3067 59.7333C41.3067 59.1733 41.7067 58.88 42.5867 58.8266H44.1333V59.2533ZM48 53.7066V55.3066H49.3867V56.3733H48V59.6533C48 60.2933 48.2933 60.5866 48.9067 60.5866H49.3867V61.6266C49.1565 61.6568 48.9235 61.6568 48.6933 61.6266C47.3067 61.6266 46.7467 61.1466 46.7467 59.92V56.3733H45.7333V55.3066H46.7467V53.7066H48ZM49.8133 53.4133C49.7972 53.2462 49.8322 53.0782 49.9139 52.9315C49.9955 52.7848 50.1199 52.6665 50.2705 52.5922C50.421 52.518 50.5906 52.4913 50.7567 52.5158C50.9228 52.5403 51.0775 52.6147 51.2002 52.7293C51.3229 52.8438 51.4079 52.993 51.4437 53.157C51.4796 53.321 51.4647 53.492 51.401 53.6474C51.3373 53.8027 51.2278 53.9349 51.0871 54.0265C50.9464 54.1181 50.7811 54.1646 50.6133 54.16C50.5027 54.1679 50.3917 54.152 50.2878 54.1132C50.1839 54.0745 50.0896 54.0139 50.0112 53.9355C49.9328 53.8571 49.8722 53.7627 49.8334 53.6588C49.7947 53.5549 49.7787 53.4439 49.7867 53.3333L49.8133 53.4133ZM50 55.28H51.2533V61.6533H50V55.28ZM55.3333 61.6533H54L51.7067 55.28H53.04L54.6133 60.2933L56.1867 55.28H57.52L55.3333 61.6533ZM63.3333 58.8V58.3733C63.3914 57.9677 63.3606 57.5544 63.2431 57.1619C63.1255 56.7694 62.9241 56.4072 62.6527 56.1003C62.3813 55.7934 62.0464 55.5491 61.6713 55.3845C61.2961 55.2198 60.8896 55.1386 60.48 55.1466C60.06 55.1471 59.6449 55.2369 59.2623 55.4101C58.8797 55.5833 58.5384 55.8359 58.2609 56.1512C57.9835 56.4665 57.7763 56.8372 57.6531 57.2387C57.53 57.6402 57.4937 58.0634 57.5467 58.48C57.4883 58.8949 57.5212 59.3175 57.643 59.7183C57.7648 60.1192 57.9726 60.4887 58.2518 60.801C58.5311 61.1133 58.8752 61.3609 59.26 61.5265C59.6449 61.6922 60.0612 61.7718 60.48 61.76C61.0648 61.7886 61.6429 61.6239 62.1248 61.2914C62.6068 60.9588 62.9658 60.4769 63.1467 59.92H61.92C61.7804 60.1865 61.5623 60.4036 61.2952 60.5419C61.028 60.6803 60.7248 60.7331 60.4267 60.6933C60.1921 60.6978 59.9593 60.6531 59.743 60.5621C59.5268 60.4711 59.3321 60.3358 59.1713 60.165C59.0105 59.9942 58.8873 59.7916 58.8096 59.5703C58.7319 59.349 58.7013 59.1138 58.72 58.88L63.3333 58.8ZM60.48 56.1333C60.6923 56.1294 60.9031 56.1692 61.0993 56.2502C61.2955 56.3313 61.4729 56.4518 61.6205 56.6044C61.7681 56.757 61.8827 56.9384 61.9571 57.1372C62.0316 57.336 62.0644 57.548 62.0533 57.76H58.6667C58.6938 57.3473 58.8771 56.9605 59.1792 56.6781C59.4814 56.3958 59.8798 56.2391 60.2933 56.24L60.48 56.1333Z" fill="#080736"/>
</svg>
