<svg width="64" height="64" viewBox="0 0 64 64" fill="none" xmlns="http://www.w3.org/2000/svg">
<path d="M4 64H60C62.2091 64 64 62.2325 64 60.0234V3.9978C64 1.78867 62.2091 0 60 0H4C1.79086 0 0 1.79086 0 4V60C0 62.2091 1.79086 64 4 64Z" fill="#282828"/>
<path d="M24.0233 55.9303C25.0708 55.9303 26.1081 55.724 27.0758 55.3231C28.0436 54.9222 28.923 54.3347 29.6637 53.594C30.4044 52.8533 30.9919 51.9739 31.3928 51.0061C31.7937 50.0384 32 49.0011 32 47.9536V39.9769H24.0233C22.9758 39.9769 21.9385 40.1833 20.9708 40.5841C20.003 40.985 19.1237 41.5725 18.3829 42.3132C17.6422 43.0539 17.0547 43.9333 16.6538 44.9011C16.253 45.8688 16.0466 46.9061 16.0466 47.9536C16.0466 49.0011 16.253 50.0384 16.6538 51.0061C17.0547 51.9739 17.6422 52.8533 18.3829 53.594C19.1237 54.3347 20.003 54.9222 20.9708 55.3231C21.9385 55.724 22.9758 55.9303 24.0233 55.9303Z" fill="#0ACF83"/>
<path d="M16.0466 31.9996C16.0466 29.884 16.887 27.8551 18.3829 26.3592C19.8789 24.8633 21.9078 24.0229 24.0233 24.0229H32V39.9762H24.0233C21.9078 39.9762 19.8789 39.1358 18.3829 37.6399C16.887 36.144 16.0466 34.1151 16.0466 31.9996Z" fill="#A259FF"/>
<path d="M16.0466 16.0466C16.0466 13.9311 16.887 11.9022 18.3829 10.4063C19.8789 8.91034 21.9078 8.06995 24.0233 8.06995H32V24.0233H24.0233C21.9078 24.0233 19.8789 23.1829 18.3829 21.687C16.887 20.1911 16.0466 18.1622 16.0466 16.0466Z" fill="#F24E1E"/>
<path d="M31.9999 8.11664H39.9766C42.0922 8.11664 44.1211 8.95704 45.617 10.453C47.1129 11.9489 47.9533 13.9778 47.9533 16.0933C47.9533 18.2089 47.1129 20.2378 45.617 21.7337C44.1211 23.2296 42.0922 24.07 39.9766 24.07H31.9999V8.11664Z" fill="#FF7262"/>
<path d="M47.9533 31.9996C47.9533 33.5772 47.4855 35.1194 46.609 36.4312C45.7325 37.7429 44.4867 38.7653 43.0292 39.369C41.5716 39.9728 39.9678 40.1308 38.4204 39.823C36.8731 39.5152 35.4518 38.7555 34.3363 37.6399C33.2207 36.5244 32.461 35.1031 32.1532 33.5557C31.8454 32.0084 32.0034 30.4046 32.6071 28.947C33.2109 27.4895 34.2333 26.2437 35.545 25.3672C36.8568 24.4907 38.399 24.0229 39.9766 24.0229C42.0922 24.0229 44.1211 24.8633 45.617 26.3592C47.1129 27.8551 47.9533 29.884 47.9533 31.9996Z" fill="#1ABCFE"/>
</svg>
