<svg width="64" height="64" viewBox="0 0 64 64" fill="none" xmlns="http://www.w3.org/2000/svg">
<g clip-path="url(#clip0_1200_1561)">
<path d="M32 1C42 4 57 14 58.5 17.5C60.5 28 54.5 47.5 54.5 47.5C54.5 47.5 41.5 60 32 63C24 61 6.50001 50.5 5.00001 47C4.00002 36 4.5 25 5.49999 16.5C13.5 10.5 21.5 3.5 32 1Z" fill="#E7E7E7"/>
<path fill-rule="evenodd" clip-rule="evenodd" d="M56.114 13.06L35.904 1.06404C34.7298 0.366903 33.3895 -0.00100708 32.024 -0.00100708C30.6585 -0.00100708 29.3182 0.366903 28.144 1.06404L7.92999 13.06C6.72862 13.7769 5.73451 14.7941 5.04544 16.0116C4.35638 17.2291 3.99608 18.6051 3.99999 20.004V43.996C3.99257 45.3918 4.34771 46.7655 5.03066 47.9827C5.7136 49.2 6.70093 50.219 7.89599 50.94L28.106 62.936C29.2802 63.6332 30.6205 64.0011 31.986 64.0011C33.3515 64.0011 34.6918 63.6332 35.866 62.936L56.08 50.94C57.2751 50.219 58.2624 49.2 58.9453 47.9827C59.6283 46.7655 59.9834 45.3918 59.976 43.996V20.004C59.9872 18.6118 59.6375 17.2403 58.961 16.0234C58.2845 14.8065 57.3044 13.7855 56.116 13.06H56.114ZM40.46 50.524V52.244C40.458 52.46 40.346 52.658 40.164 52.774L39.14 53.36C38.98 53.444 38.844 53.36 38.844 53.134V51.44C38.1211 51.7953 37.2937 51.8756 36.516 51.666C36.392 51.582 36.344 51.422 36.404 51.266L36.77 49.706C36.802 49.574 36.87 49.456 36.974 49.366C37.0031 49.3372 37.0369 49.3135 37.074 49.296C37.1254 49.276 37.1826 49.276 37.234 49.296C37.9478 49.4877 38.7084 49.3915 39.352 49.028C39.8092 48.8047 40.1974 48.4619 40.4756 48.0358C40.7537 47.6098 40.9114 47.1164 40.932 46.608C40.932 45.732 40.452 45.368 39.292 45.358C37.824 45.358 36.492 45.078 36.432 42.91C36.466 41.036 37.336 39.276 38.804 38.11V36.366C38.802 36.166 38.916 35.966 39.1 35.83L40.088 35.202C40.248 35.118 40.384 35.202 40.384 35.434V37.178C40.9893 36.9029 41.6648 36.8219 42.318 36.946C42.458 37.026 42.514 37.202 42.446 37.346L42.1 38.892C42.07 39.012 42.01 39.118 41.924 39.202C41.896 39.232 41.864 39.258 41.824 39.282C41.784 39.306 41.724 39.298 41.676 39.282C41.0393 39.1426 40.3733 39.2514 39.814 39.586C39.406 39.762 39.0566 40.0505 38.8065 40.4178C38.5565 40.7851 38.4162 41.216 38.402 41.66C38.402 42.45 38.818 42.69 40.216 42.72C42.086 42.72 42.89 43.566 42.912 45.444C42.876 47.41 41.978 49.26 40.456 50.504L40.46 50.524ZM51.046 47.624C51.07 47.772 51.01 47.924 50.89 48.012L45.8 51.116C45.752 51.156 45.68 51.162 45.626 51.13C45.572 51.098 45.546 51.03 45.56 50.97V49.65C45.566 49.506 45.66 49.378 45.792 49.326L50.824 46.312C50.872 46.272 50.944 46.266 50.998 46.298C51.052 46.33 51.078 46.398 51.064 46.458V47.622L51.046 47.624ZM54.576 18.12L35.452 29.932C33.066 31.344 31.312 32.888 31.312 35.76V59.316C31.312 61.036 32.018 62.116 33.076 62.476C32.7263 62.5413 32.3717 62.5768 32.016 62.582C30.8928 62.5796 29.7909 62.2749 28.826 61.7L8.61599 49.706C6.59999 48.5 5.40399 46.33 5.41199 44V20.004C5.39999 17.668 6.59999 15.5 8.61599 14.288L28.826 2.29204C30.786 1.13204 33.218 1.13204 35.178 2.29204L55.388 14.288C57.054 15.296 58.188 16.988 58.492 18.888C57.836 17.462 56.326 17.088 54.568 18.098H54.574L54.576 18.12Z" fill="#1B1B1F"/>
</g>
<defs>
<clipPath id="clip0_1200_1561">
<rect width="64" height="64" fill="white"/>
</clipPath>
</defs>
</svg>
