<svg width="64" height="64" viewBox="0 0 64 64" fill="none" xmlns="http://www.w3.org/2000/svg">
<circle cx="32" cy="32" r="32" fill="#F6F6F6"/>
<path d="M4.54848 31.9992C4.54848 42.8652 10.863 52.2555 20.0195 56.7054L6.9251 20.8272C5.40198 24.2413 4.54848 28.0194 4.54848 31.9992ZM50.5306 30.6139C50.5306 27.2213 49.312 24.8717 48.2668 23.043C46.8753 20.7817 45.571 18.8668 45.571 16.6055C45.571 14.0821 47.4848 11.733 50.1806 11.733C50.3023 11.733 50.4178 11.7482 50.5363 11.755C45.6525 7.28053 39.1458 4.54863 31.9992 4.54863C22.4092 4.54863 13.9719 9.46918 9.06354 16.9221C9.70757 16.9414 10.3145 16.955 10.8301 16.955C13.7013 16.955 18.1459 16.6066 18.1459 16.6066C19.6256 16.5193 19.8001 18.6928 18.3219 18.8678C18.3219 18.8678 16.8348 19.0428 15.1801 19.1295L25.1765 48.8644L31.1839 30.8469L26.907 19.1285C25.4288 19.0418 24.0284 18.8668 24.0284 18.8668C22.5492 18.7801 22.7226 16.5183 24.2018 16.6055C24.2018 16.6055 28.7352 16.9539 31.4325 16.9539C34.3032 16.9539 38.7483 16.6055 38.7483 16.6055C40.2291 16.5183 40.403 18.6918 38.9243 18.8668C38.9243 18.8668 37.4341 19.0418 35.7825 19.1285L45.7026 48.6382L48.4407 39.4882C49.6275 35.6912 50.5306 32.964 50.5306 30.6139ZM32.4808 34.4005L24.2446 58.3341C26.7038 59.057 29.3045 59.4524 31.9992 59.4524C35.1959 59.4524 38.2615 58.8998 41.115 57.8963C41.0413 57.7788 40.9745 57.654 40.9196 57.5181L32.4808 34.4005ZM56.0861 18.8287C56.2042 19.7031 56.271 20.6417 56.271 21.6514C56.271 24.4371 55.7508 27.5686 54.1838 31.4842L45.7988 55.7281C53.9597 50.9689 59.4489 42.1271 59.4489 31.9997C59.4494 27.227 58.2303 22.739 56.0861 18.8287ZM31.9992 0C14.3553 0 0 14.3547 0 31.9992C0 49.6458 14.3553 64 31.9992 64C49.6426 64 64 49.6458 64 31.9992C63.9995 14.3547 49.6426 0 31.9992 0ZM31.9992 62.5332C15.1644 62.5332 1.46724 48.8356 1.46724 31.9992C1.46724 15.1638 15.1639 1.46728 31.9992 1.46728C48.8335 1.46728 62.5296 15.1638 62.5296 31.9992C62.5296 48.8356 48.8335 62.5332 31.9992 62.5332Z" fill="#464342"/>
</svg>
