<svg width="64" height="64" viewBox="0 0 64 64" fill="none" xmlns="http://www.w3.org/2000/svg">
<g clip-path="url(#clip0_1238_3952)">
<rect width="64" height="64" fill="white"/>
<path d="M0 14.3882C0 22.2978 0.0628993 28.7764 0.125799 28.7764C0.188698 28.7764 1.16364 27.1882 2.2801 25.2383L4.32433 21.7002H6.73022C8.03538 21.7002 9.12039 21.7474 9.12039 21.7946C9.12039 21.8418 7.53219 24.4678 5.58231 27.597L2.04423 33.3209V38.2742V43.2432H1.02211H0V53.6216V64H19.5774H39.1548V63.5597C39.1548 62.3017 38.2113 60.8708 36.969 60.226C35.8998 59.6914 34.5631 59.5971 27.7229 59.5971H21.0713V57.6314V55.6658H28.3518C35.0978 55.6658 35.7425 55.6816 36.859 55.9803C38.4944 56.3892 39.5165 56.971 40.6644 58.1032C42.0639 59.5027 42.63 60.745 43.0074 63.4025L43.1017 64H53.543H64V53.4644V42.9287H63.2767C60.5877 42.9287 57.8202 41.1361 56.6093 38.6044C55.7288 36.7489 55.6659 36.1828 55.6659 28.1789V20.8983L57.6786 20.9455L59.6757 20.9926L59.7543 28.5405L59.8329 36.0884L60.2575 36.8904C60.4934 37.3307 60.9337 37.9125 61.2324 38.1798C61.7514 38.6359 63.0722 39.1548 63.717 39.1548C63.9843 39.1548 64 38.4 64 19.5774V0H53.6216H43.2432V1.02211V2.04422H38.1799H33.1007L27.487 5.58231C24.3892 7.53218 21.826 9.12039 21.7789 9.12039C21.7317 9.12039 21.716 8.0511 21.7317 6.73022L21.7789 4.35577L25.1912 2.29582C27.0624 1.16363 28.6506 0.188694 28.7135 0.110069C28.7764 0.0471687 22.345 0 14.4197 0H0V14.3882ZM34.8619 20.9926C36.3872 21.2757 38.6044 22.345 39.7523 23.3671L40.6015 24.1061L39.2963 25.4113C38.573 26.1346 37.9283 26.7322 37.8496 26.7322C37.771 26.7322 37.4093 26.4806 37.0477 26.1818C34.2015 23.8545 29.5941 24.1376 27.0624 26.8108C24.7194 29.2953 24.4049 33.3523 26.3391 36.2614C27.0152 37.2993 27.9587 38.0698 29.3425 38.7145C30.3961 39.2177 30.4904 39.2334 32.4717 39.2334C34.4373 39.2334 34.5631 39.2177 35.5538 38.7459C37.0005 38.0541 37.8496 37.2521 38.4786 35.9312C38.7617 35.3337 38.9975 34.7518 38.9975 34.6418C38.9975 34.4845 38.2585 34.4373 35.6167 34.4373H32.2359V32.7076V30.9779H37.5666H42.8973L43.0074 32.0314C43.1174 33.1794 42.913 34.9405 42.5199 36.3243C41.828 38.7459 40.0197 40.8373 37.5666 42.0482C34.7361 43.4319 31.4968 43.6049 28.4147 42.5356C25.3641 41.4821 22.8324 38.9661 21.6688 35.8211C21.2442 34.6732 21.1813 34.2644 21.1184 32.4717C21.0084 29.5312 21.4644 27.8329 22.9425 25.6472C25.5057 21.8732 30.0816 20.0806 34.8619 20.9926Z" fill="#A11D28"/>
</g>
<defs>
<clipPath id="clip0_1238_3952">
<rect width="64" height="64" fill="white"/>
</clipPath>
</defs>
</svg>
