<svg width="64" height="64" viewBox="0 0 64 64" fill="none" xmlns="http://www.w3.org/2000/svg">
<g clip-path="url(#clip0_1206_1959)">
<path d="M34.7597 10.981H32.2879C31.8133 10.981 31.4286 11.3657 31.4286 11.8403V12.2168C31.4286 12.6914 31.8133 13.0762 32.2879 13.0762H34.7597C35.2343 13.0762 35.619 12.6914 35.619 12.2168V11.8403C35.619 11.3657 35.2343 10.981 34.7597 10.981Z" fill="#56B3B4"/>
<path d="M11.7121 44.5048H0.859375C0.384755 44.5048 0 44.8895 0 45.3641V45.7406C0 46.2152 0.384755 46.6 0.859375 46.6H11.7121C12.1867 46.6 12.5714 46.2152 12.5714 45.7406V45.3641C12.5714 44.8895 12.1867 44.5048 11.7121 44.5048Z" fill="#EA5E5E"/>
<path d="M32.6645 27.7429H26.0023C25.5276 27.7429 25.1429 28.1276 25.1429 28.6022V28.9787C25.1429 29.4533 25.5276 29.8381 26.0023 29.8381H32.6645C33.1391 29.8381 33.5238 29.4533 33.5238 28.9787V28.6022C33.5238 28.1276 33.1391 27.7429 32.6645 27.7429Z" fill="#BF85BF"/>
<path d="M22.1883 27.7429H13.4308C12.9562 27.7429 12.5714 28.1276 12.5714 28.6022V28.9787C12.5714 29.4533 12.9562 29.8381 13.4308 29.8381H22.1883C22.6629 29.8381 23.0476 29.4533 23.0476 28.9787V28.6022C23.0476 28.1276 22.6629 27.7429 22.1883 27.7429Z" fill="#EA5E5E"/>
<path d="M9.61682 27.7429H0.859375C0.384755 27.7429 0 28.1276 0 28.6022V28.9787C0 29.4533 0.384755 29.8381 0.859375 29.8381H9.61682C10.0914 29.8381 10.4762 29.4533 10.4762 28.9787V28.6022C10.4762 28.1276 10.0914 27.7429 9.61682 27.7429Z" fill="#56B3B4"/>
<path d="M11.7121 36.1238H0.859375C0.384755 36.1238 0 36.5086 0 36.9832V37.3597C0 37.8343 0.384755 38.2191 0.859375 38.2191H11.7121C12.1867 38.2191 12.5714 37.8343 12.5714 37.3597V36.9832C12.5714 36.5086 12.1867 36.1238 11.7121 36.1238Z" fill="#BF85BF"/>
<path d="M11.7121 19.3619H0.859375C0.384755 19.3619 0 19.7467 0 20.2213V20.5978C0 21.0724 0.384755 21.4572 0.859375 21.4572H11.7121C12.1867 21.4572 12.5714 21.0724 12.5714 20.5978V20.2213C12.5714 19.7467 12.1867 19.3619 11.7121 19.3619Z" fill="#BF85BF"/>
<path d="M32.6644 6.79047H11.3355C10.8609 6.79047 10.4762 7.17522 10.4762 7.64984V8.02633C10.4762 8.50095 10.8609 8.8857 11.3355 8.8857H32.6644C33.139 8.8857 33.5238 8.50095 33.5238 8.02633V7.64984C33.5238 7.17522 33.139 6.79047 32.6644 6.79047Z" fill="#F7BA3E"/>
<path d="M7.52158 6.79047H0.859375C0.384755 6.79047 0 7.17522 0 7.64984V8.02633C0 8.50095 0.384755 8.8857 0.859375 8.8857H7.52158C7.9962 8.8857 8.38095 8.50095 8.38095 8.02633V7.64984C8.38095 7.17522 7.9962 6.79047 7.52158 6.79047Z" fill="#EA5E5E"/>
<path d="M11.7121 40.3143H9.24033C8.76571 40.3143 8.38095 40.6991 8.38095 41.1737V41.5502C8.38095 42.0248 8.76571 42.4096 9.24033 42.4096H11.7121C12.1867 42.4096 12.5714 42.0248 12.5714 41.5502V41.1737C12.5714 40.6991 12.1867 40.3143 11.7121 40.3143Z" fill="#F7BA3E"/>
<path d="M11.7121 15.1714H9.24033C8.76571 15.1714 8.38095 15.5562 8.38095 16.0308V16.4073C8.38095 16.8819 8.76571 17.2667 9.24033 17.2667H11.7121C12.1867 17.2667 12.5714 16.8819 12.5714 16.4073V16.0308C12.5714 15.5562 12.1867 15.1714 11.7121 15.1714Z" fill="#56B3B4"/>
<path d="M5.42634 40.3143H0.859375C0.384755 40.3143 0 40.6991 0 41.1737V41.5502C0 42.0248 0.384755 42.4096 0.859375 42.4096H5.42634C5.90096 42.4096 6.28572 42.0248 6.28572 41.5502V41.1737C6.28572 40.6991 5.90096 40.3143 5.42634 40.3143Z" fill="#56B3B4"/>
<path d="M5.42634 15.1714H0.859375C0.384755 15.1714 0 15.5562 0 16.0308V16.4073C0 16.8819 0.384755 17.2667 0.859375 17.2667H5.42634C5.90096 17.2667 6.28572 16.8819 6.28572 16.4073V16.0308C6.28572 15.5562 5.90096 15.1714 5.42634 15.1714Z" fill="#F7BA3E"/>
<path opacity="0.5" d="M30.5692 40.3143H28.0975C27.6229 40.3143 27.2381 40.6991 27.2381 41.1737V41.5502C27.2381 42.0248 27.6229 42.4096 28.0975 42.4096H30.5692C31.0438 42.4096 31.4286 42.0248 31.4286 41.5502V41.1737C31.4286 40.6991 31.0438 40.3143 30.5692 40.3143Z" fill="#D0D4D8"/>
<path opacity="0.5" d="M24.2835 40.3143H15.5261C15.0514 40.3143 14.6667 40.6991 14.6667 41.1737V41.5502C14.6667 42.0248 15.0514 42.4096 15.5261 42.4096H24.2835C24.7581 42.4096 25.1429 42.0248 25.1429 41.5502V41.1737C25.1429 40.6991 24.7581 40.3143 24.2835 40.3143Z" fill="#D0D4D8"/>
<path opacity="0.5" d="M43.1406 40.3143H34.3832C33.9086 40.3143 33.5238 40.6991 33.5238 41.1737V41.5502C33.5238 42.0248 33.9086 42.4096 34.3832 42.4096H43.1406C43.6153 42.4096 44 42.0248 44 41.5502V41.1737C44 40.6991 43.6153 40.3143 43.1406 40.3143Z" fill="#D0D4D8"/>
<path d="M34.7597 23.5524H17.6213C17.1467 23.5524 16.7619 23.9371 16.7619 24.4117V24.7882C16.7619 25.2629 17.1467 25.6476 17.6213 25.6476H34.7597C35.2343 25.6476 35.619 25.2629 35.619 24.7882V24.4117C35.619 23.9371 35.2343 23.5524 34.7597 23.5524Z" fill="#56B3B4"/>
<path d="M13.8073 23.5524H7.14508C6.67046 23.5524 6.28571 23.9371 6.28571 24.4117V24.7882C6.28571 25.2629 6.67046 25.6476 7.14508 25.6476H13.8073C14.2819 25.6476 14.6667 25.2629 14.6667 24.7882V24.4117C14.6667 23.9371 14.2819 23.5524 13.8073 23.5524Z" fill="#F7BA3E"/>
<path d="M3.3311 23.5524H0.859375C0.384755 23.5524 0 23.9371 0 24.4117V24.7882C0 25.2629 0.384755 25.6476 0.859375 25.6476H3.3311C3.80572 25.6476 4.19048 25.2629 4.19048 24.7882V24.4117C4.19048 23.9371 3.80572 23.5524 3.3311 23.5524Z" fill="#EA5E5E"/>
<path d="M28.4739 10.981H19.7165C19.2419 10.981 18.8571 11.3657 18.8571 11.8403V12.2168C18.8571 12.6914 19.2419 13.0762 19.7165 13.0762H28.4739C28.9486 13.0762 29.3333 12.6914 29.3333 12.2168V11.8403C29.3333 11.3657 28.9486 10.981 28.4739 10.981Z" fill="#BF85BF"/>
<path d="M15.9025 10.981H0.859375C0.384755 10.981 0 11.3657 0 11.8403V12.2168C0 12.6914 0.384755 13.0762 0.859375 13.0762H15.9025C16.3771 13.0762 16.7619 12.6914 16.7619 12.2168V11.8403C16.7619 11.3657 16.3771 10.981 15.9025 10.981Z" fill="#56B3B4"/>
<path d="M26.3787 31.9333H7.14508C6.67046 31.9333 6.28571 32.3181 6.28571 32.7927V33.1692C6.28571 33.6438 6.67046 34.0286 7.14508 34.0286H26.3787C26.8533 34.0286 27.2381 33.6438 27.2381 33.1692V32.7927C27.2381 32.3181 26.8533 31.9333 26.3787 31.9333Z" fill="#F7BA3E"/>
<path d="M3.3311 31.9333H0.859375C0.384755 31.9333 0 32.3181 0 32.7927V33.1692C0 33.6438 0.384755 34.0286 0.859375 34.0286H3.3311C3.80572 34.0286 4.19048 33.6438 4.19048 33.1692V32.7927C4.19048 32.3181 3.80572 31.9333 3.3311 31.9333Z" fill="#BF85BF"/>
<path d="M36.8549 15.1714H26.0023C25.5276 15.1714 25.1429 15.5562 25.1429 16.0308V16.4073C25.1429 16.8819 25.5276 17.2667 26.0023 17.2667H36.8549C37.3296 17.2667 37.7143 16.8819 37.7143 16.4073V16.0308C37.7143 15.5562 37.3296 15.1714 36.8549 15.1714Z" fill="#EA5E5E"/>
<path d="M36.8549 19.3619H26.0023C25.5276 19.3619 25.1429 19.7467 25.1429 20.2213V20.5978C25.1429 21.0724 25.5276 21.4572 26.0023 21.4572H36.8549C37.3296 21.4572 37.7143 21.0724 37.7143 20.5978V20.2213C37.7143 19.7467 37.3296 19.3619 36.8549 19.3619Z" fill="#F7BA3E"/>
<path d="M26.3787 2.59998H0.859375C0.384755 2.59998 0 2.98473 0 3.45935V3.83584C0 4.31046 0.384755 4.69521 0.859375 4.69521H26.3787C26.8533 4.69521 27.2381 4.31046 27.2381 3.83584V3.45935C27.2381 2.98473 26.8533 2.59998 26.3787 2.59998Z" fill="#56B3B4"/>
<path opacity="0.5" d="M43.1406 2.59998H30.1927C29.7181 2.59998 29.3333 2.98473 29.3333 3.45935V3.83584C29.3333 4.31046 29.7181 4.69521 30.1927 4.69521H43.1406C43.6153 4.69521 44 4.31046 44 3.83584V3.45935C44 2.98473 43.6153 2.59998 43.1406 2.59998Z" fill="#D0D4D8"/>
<path opacity="0.5" d="M34.7597 31.9333H30.1927C29.7181 31.9333 29.3333 32.3181 29.3333 32.7927V33.1692C29.3333 33.6438 29.7181 34.0286 30.1927 34.0286H34.7597C35.2343 34.0286 35.6191 33.6438 35.6191 33.1692V32.7927C35.6191 32.3181 35.2343 31.9333 34.7597 31.9333Z" fill="#D0D4D8"/>
<path opacity="0.5" d="M43.1406 31.9333H38.5737C38.099 31.9333 37.7143 32.3181 37.7143 32.7927V33.1692C37.7143 33.6438 38.099 34.0286 38.5737 34.0286H43.1406C43.6153 34.0286 44 33.6438 44 33.1692V32.7927C44 32.3181 43.6153 31.9333 43.1406 31.9333Z" fill="#D0D4D8"/>
<path opacity="0.5" d="M43.1406 27.7429H36.4784C36.0038 27.7429 35.619 28.1276 35.619 28.6022V28.9787C35.619 29.4533 36.0038 29.8381 36.4784 29.8381H43.1406C43.6152 29.8381 44 29.4533 44 28.9787V28.6022C44 28.1276 43.6152 27.7429 43.1406 27.7429Z" fill="#D0D4D8"/>
<path opacity="0.5" d="M43.1406 6.79047H36.4784C36.0038 6.79047 35.619 7.17522 35.619 7.64984V8.02633C35.619 8.50095 36.0038 8.8857 36.4784 8.8857H43.1406C43.6152 8.8857 44 8.50095 44 8.02633V7.64984C44 7.17522 43.6152 6.79047 43.1406 6.79047Z" fill="#D0D4D8"/>
<path opacity="0.5" d="M43.1406 23.5524H38.5737C38.099 23.5524 37.7143 23.9371 37.7143 24.4117V24.7882C37.7143 25.2629 38.099 25.6476 38.5737 25.6476H43.1406C43.6153 25.6476 44 25.2629 44 24.7882V24.4117C44 23.9371 43.6153 23.5524 43.1406 23.5524Z" fill="#D0D4D8"/>
<path opacity="0.5" d="M43.1406 10.981H38.5737C38.099 10.981 37.7143 11.3657 37.7143 11.8403V12.2168C37.7143 12.6914 38.099 13.0762 38.5737 13.0762H43.1406C43.6153 13.0762 44 12.6914 44 12.2168V11.8403C44 11.3657 43.6153 10.981 43.1406 10.981Z" fill="#D0D4D8"/>
<path opacity="0.5" d="M43.1406 15.1714H40.6689C40.1943 15.1714 39.8095 15.5562 39.8095 16.0308V16.4073C39.8095 16.8819 40.1943 17.2667 40.6689 17.2667H43.1406C43.6152 17.2667 44 16.8819 44 16.4073V16.0308C44 15.5562 43.6152 15.1714 43.1406 15.1714Z" fill="#D0D4D8"/>
<path opacity="0.5" d="M43.1406 19.3619H40.6689C40.1943 19.3619 39.8095 19.7467 39.8095 20.2213V20.5978C39.8095 21.0724 40.1943 21.4572 40.6689 21.4572H43.1406C43.6152 21.4572 44 21.0724 44 20.5978V20.2213C44 19.7467 43.6152 19.3619 43.1406 19.3619Z" fill="#D0D4D8"/>
<path opacity="0.5" d="M43.1406 36.1238H23.907C23.4324 36.1238 23.0476 36.5086 23.0476 36.9832V37.3597C23.0476 37.8343 23.4324 38.2191 23.907 38.2191H43.1406C43.6152 38.2191 44 37.8343 44 37.3597V36.9832C44 36.5086 43.6152 36.1238 43.1406 36.1238Z" fill="#D0D4D8"/>
<path opacity="0.5" d="M20.093 36.1238H15.5261C15.0514 36.1238 14.6667 36.5086 14.6667 36.9832V37.3597C14.6667 37.8343 15.0514 38.2191 15.5261 38.2191H20.093C20.5676 38.2191 20.9524 37.8343 20.9524 37.3597V36.9832C20.9524 36.5086 20.5676 36.1238 20.093 36.1238Z" fill="#D0D4D8"/>
<path opacity="0.5" d="M43.1406 44.5048H32.2879C31.8133 44.5048 31.4286 44.8895 31.4286 45.3641V45.7406C31.4286 46.2152 31.8133 46.6 32.2879 46.6H43.1406C43.6152 46.6 44 46.2152 44 45.7406V45.3641C44 44.8895 43.6152 44.5048 43.1406 44.5048Z" fill="#D0D4D8"/>
<path opacity="0.5" d="M28.474 44.5048H15.5261C15.0514 44.5048 14.6667 44.8895 14.6667 45.3641V45.7406C14.6667 46.2152 15.0514 46.6 15.5261 46.6H28.474C28.9486 46.6 29.3334 46.2152 29.3334 45.7406V45.3641C29.3334 44.8895 28.9486 44.5048 28.474 44.5048Z" fill="#D0D4D8"/>
<path opacity="0.5" d="M22.1883 15.1714H15.5261C15.0514 15.1714 14.6667 15.5562 14.6667 16.0308V16.4073C14.6667 16.8819 15.0514 17.2667 15.5261 17.2667H22.1883C22.6629 17.2667 23.0476 16.8819 23.0476 16.4073V16.0308C23.0476 15.5562 22.6629 15.1714 22.1883 15.1714Z" fill="#D0D4D8"/>
<path opacity="0.5" d="M22.1883 19.3619H15.5261C15.0514 19.3619 14.6667 19.7467 14.6667 20.2213V20.5978C14.6667 21.0724 15.0514 21.4572 15.5261 21.4572H22.1883C22.6629 21.4572 23.0476 21.0724 23.0476 20.5978V20.2213C23.0476 19.7467 22.6629 19.3619 22.1883 19.3619Z" fill="#D0D4D8"/>
</g>
<g clip-path="url(#clip1_1206_1959)">
<path d="M42.5813 52.6426L42.5796 52.6408L42.5778 52.6408L42.5813 52.6426ZM43.2223 33.27L43.224 33.2718L43.2257 33.2718L43.2223 33.27Z" fill="black"/>
<path d="M51.0702 48.3041L43.1403 52.883C43.043 52.9394 42.9324 52.9691 42.8199 52.9691C42.7073 52.9691 42.5968 52.9394 42.4994 52.883L34.5696 48.3041C34.4721 48.2478 34.3911 48.1668 34.3349 48.0693C34.2786 47.9718 34.2491 47.8611 34.2491 47.7485L34.2491 38.5909C34.2491 38.361 34.3711 38.1502 34.5696 38.0353L42.4994 33.4564C42.5968 33.4 42.7073 33.3703 42.8199 33.3703C42.9324 33.3703 43.043 33.4 43.1404 33.4564L51.0702 38.0353C51.1677 38.0916 51.2486 38.1726 51.3049 38.2701C51.3611 38.3676 51.3907 38.4783 51.3906 38.5909L51.3906 47.7485C51.3906 47.9784 51.2687 48.1892 51.0702 48.3041Z" fill="#8080F2"/>
<path d="M22.2577 43.9203L31.7429 60.4226C32.0877 61.02 32.7234 61.4589 33.4131 61.4589L52.3851 61.4589C53.0748 61.4589 53.7105 61.0182 54.0553 60.4226L63.5405 43.9569C63.71 43.6604 63.7992 43.3248 63.7992 42.9833C63.7992 42.6417 63.71 42.3061 63.5405 42.0097L54.0553 25.6432C53.7105 25.0458 53.0748 24.741 52.3851 24.741L33.4131 24.741C32.7234 24.741 32.0877 25.0371 31.7429 25.6345L22.2577 42.0288C22.0893 42.3155 22.0005 42.642 22.0005 42.9746C22.0005 43.3071 22.0893 43.6336 22.2577 43.9203ZM30.1127 35.9852C30.1161 35.8646 30.1508 35.7469 30.2134 35.6437C30.276 35.5405 30.3643 35.4553 30.4697 35.3966L42.5516 28.4247C42.6554 28.3647 42.7732 28.3332 42.893 28.3332C43.0128 28.3332 43.1306 28.3647 43.2344 28.4247L55.3268 35.3948C55.4322 35.4536 55.5205 35.5388 55.5831 35.642C55.6457 35.7452 55.6804 35.8629 55.6838 35.9835L55.6838 49.9273C55.6806 50.0478 55.6461 50.1653 55.5838 50.2685C55.5216 50.3717 55.4336 50.457 55.3285 50.516L43.2483 57.4861C43.1445 57.546 43.0268 57.5776 42.9069 57.5776C42.7871 57.5776 42.6694 57.546 42.5656 57.4861L30.4732 50.5142C30.3674 50.4557 30.2788 50.3706 30.2159 50.2674C30.153 50.1642 30.118 50.0464 30.1144 49.9255L30.1127 35.9852Z" fill="#4B32C3"/>
</g>
<defs>
<clipPath id="clip0_1206_1959">
<rect width="44.1379" height="45.8632" fill="white" transform="translate(0 2.59998)"/>
</clipPath>
<clipPath id="clip1_1206_1959">
<rect width="42" height="38.4" fill="white" transform="translate(64 61.4) rotate(-180)"/>
</clipPath>
</defs>
</svg>
