<svg width="64" height="64" viewBox="0 0 64 64" fill="none" xmlns="http://www.w3.org/2000/svg">
<path d="M62.793 29.1487L34.85 1.20718C33.2417 -0.402068 30.6317 -0.402068 29.0215 1.20718L23.219 7.00968L30.5797 14.3704C32.2902 13.7924 34.2517 14.1802 35.6152 15.5437C36.9852 16.9159 37.3703 18.8942 36.7782 20.6102L43.872 27.7042C45.5882 27.1129 47.5685 27.4954 48.9392 28.8684C50.855 30.7834 50.855 33.8872 48.9392 35.8034C47.023 37.7199 43.9192 37.7199 42.002 35.8034C40.561 34.3609 40.205 32.2447 40.9345 30.4694L34.319 23.8539L34.3182 41.2632C34.7978 41.5003 35.2358 41.8135 35.6152 42.1907C37.531 44.1057 37.531 47.2097 35.6152 49.1274C33.699 51.0429 30.5937 51.0429 28.6802 49.1274C26.7645 47.2097 26.7645 44.1059 28.6802 42.1909C29.1393 41.7316 29.6849 41.3678 30.2855 41.1207V23.5492C29.6841 23.3037 29.1382 22.9397 28.6802 22.4789C27.2287 21.0294 26.8797 18.8997 27.6235 17.1174L20.3675 9.86068L1.2075 29.0194C-0.4025 30.6302 -0.4025 33.2404 1.2075 34.8499L29.151 62.7919C30.7597 64.4014 33.3692 64.4014 34.98 62.7919L62.7927 34.9797C64.4022 33.3697 64.4022 30.7579 62.7927 29.1487" fill="#DE4C36"/>
</svg>
