<svg width="64" height="64" viewBox="0 0 64 64" fill="none" xmlns="http://www.w3.org/2000/svg">
<path d="M64 32C64 14.3269 49.6731 0 32 0C14.3269 0 0 14.3269 0 32C0 49.6731 14.3269 64 32 64C49.6731 64 64 49.6731 64 32Z" fill="black"/>
<path fill-rule="evenodd" clip-rule="evenodd" d="M41.8967 62.4383C38.7799 63.4521 35.4535 64.0001 32 64.0001C28.5441 64.0001 25.2157 63.4513 22.0971 62.4363C23.5377 62.609 24.07 61.671 24.07 60.8611C24.07 60.5086 24.064 59.8867 24.0559 59.0549C24.0467 58.0923 24.0345 56.8486 24.026 55.4154C15.124 57.3506 13.246 51.1225 13.246 51.1225C11.792 47.4241 9.69401 46.4393 9.69401 46.4393C6.78801 44.4518 9.91401 44.4921 9.91401 44.4921C13.124 44.7183 14.814 47.7923 14.814 47.7923C17.67 52.6859 22.304 51.273 24.128 50.4522C24.418 48.3829 25.246 46.9715 26.16 46.1711C19.054 45.3627 11.584 42.6167 11.584 30.3463C11.584 26.8498 12.83 23.9921 14.878 21.7523C14.548 20.9421 13.45 17.6877 15.19 13.2786C15.19 13.2786 17.878 12.4179 23.99 16.5609C26.544 15.8502 29.28 15.4963 32.002 15.4819C34.72 15.4958 37.458 15.8502 40.014 16.5609C46.122 12.4179 48.804 13.2786 48.804 13.2786C50.55 17.6877 49.452 20.9421 49.122 21.7523C51.174 23.9921 52.412 26.8498 52.412 30.3463C52.412 42.6466 44.93 45.3549 37.802 46.1473C38.95 47.1359 39.974 49.0891 39.974 52.0774C39.974 54.9399 39.9561 57.4319 39.9443 59.0834C39.9384 59.9015 39.934 60.5134 39.934 60.8617C39.934 61.6753 40.4535 62.6151 41.8967 62.4383Z" fill="#F2F2F2"/>
</svg>
