<svg width="64" height="64" viewBox="0 0 64 64" fill="none" xmlns="http://www.w3.org/2000/svg">
<path fill-rule="evenodd" clip-rule="evenodd" d="M4.54806 32.9976L4.64018 33.063L4.65451 33.0124L4.54805 32.9976H4.54806ZM4.64022 33.063L7.13609 34.8329C48.206 40.9012 6.68564 66.7235 8.79717 50.6042C8.49247 50.3789 8.09012 50.2025 7.56888 50.0855L7.36238 53.3895C6.44122 68.1281 57.3448 39.2776 4.64021 33.063H4.64022Z" fill="url(#paint0_linear_1608_3203)"/>
<path fill-rule="evenodd" clip-rule="evenodd" d="M7.36238 53.3895L7.56893 50.0856C5.28844 49.6434 3.49553 49.7015 0.658226 51.4365L0.421292 55.245C0.0709723 60.8768 4.91982 64.0356 10.8404 63.9997C45.1615 63.7914 46.3311 22.9999 6.2169 27.4982L4.64018 33.063C57.3448 39.2776 6.44101 68.1281 7.36238 53.3895L7.36238 53.3895Z" fill="url(#paint1_linear_1608_3203)"/>
<path fill-rule="evenodd" clip-rule="evenodd" d="M12.4209 50.3747C20.2491 51.502 44.1047 70.0487 58.5778 61.4443C59.7706 59.7834 67.0795 56.043 62.5164 43.6757L41.316 5.95957C39.8379 3.32988 36.8956 -0.0064978 31.7635 9.50416e-06C27.0817 0.277524 24.8681 1.94492 22.4013 6.5616L3.86281 40.217C2.99114 41.6601 1.96204 43.9033 3.56775 44.0194C5.95651 44.1921 7.35445 42.948 9.7693 43.1562L28.4523 9.62316C29.2637 8.43167 30.2316 7.73699 31.4255 7.7594C32.5331 7.72753 33.6459 8.16765 34.5706 9.41744L54.177 41.9837C56.8058 46.35 55.6241 49.8705 52.7629 52.322C43.0077 59.826 25.8368 41.7042 9.46424 43.704C7.08957 43.9941 -0.159738 45.072 0.00268595 51.2015C5.04255 48.5433 7.35177 49.4351 12.4209 50.3747L12.4209 50.3747Z" fill="url(#paint2_linear_1608_3203)"/>
<path fill-rule="evenodd" clip-rule="evenodd" d="M50.4617 47.2717C51.4415 51.1774 50.0785 51.7012 46.8533 52.4205C43.6282 53.1398 38.126 50.3082 27.2166 47.5095C37.334 51.6841 46.5434 57.1063 52.763 52.322C55.6241 49.8705 56.8058 46.35 54.177 41.9837L34.5706 9.41748C33.646 8.16766 32.5331 7.72754 31.4256 7.75941C30.2316 7.737 29.2637 8.43168 28.4523 9.6232L9.76929 43.1562C9.94071 43.0508 12.9852 43.1551 14.6626 43.3866L31.853 12.3515C38.6976 26.5624 49.4819 43.3659 50.4617 47.2717L50.4617 47.2717ZM9.64011 43.1466L9.76929 43.1562C9.72586 43.1525 9.68288 43.1493 9.64011 43.1466Z" fill="url(#paint3_linear_1608_3203)"/>
<defs>
<linearGradient id="paint0_linear_1608_3203" x1="24.5629" y1="35.7612" x2="8.98651" y2="55.2178" gradientUnits="userSpaceOnUse">
<stop stop-color="#165581"/>
<stop offset="1" stop-color="#42BFF5"/>
</linearGradient>
<linearGradient id="paint1_linear_1608_3203" x1="0.403363" y1="56.8963" x2="33.1984" y2="56.8963" gradientUnits="userSpaceOnUse">
<stop stop-color="#165581"/>
<stop offset="1" stop-color="#42BFF5"/>
</linearGradient>
<linearGradient id="paint2_linear_1608_3203" x1="7.03323" y1="11.8689" x2="56.9667" y2="51.8455" gradientUnits="userSpaceOnUse">
<stop stop-color="#5D8CAB"/>
<stop offset="1" stop-color="#101823"/>
</linearGradient>
<linearGradient id="paint3_linear_1608_3203" x1="32.696" y1="6.43879" x2="32.5393" y2="54.5388" gradientUnits="userSpaceOnUse">
<stop stop-color="#162431"/>
<stop offset="0.223529" stop-color="#1E2F40"/>
<stop offset="0.831373" stop-color="#263B4F"/>
<stop offset="1" stop-color="#9DB9D4"/>
</linearGradient>
</defs>
</svg>
