<svg width="64" height="64" viewBox="0 0 64 64" fill="none" xmlns="http://www.w3.org/2000/svg">
<rect x="2.25" y="14.75" width="59" height="34.25" fill="white"/>
<path fill-rule="evenodd" clip-rule="evenodd" d="M4.61538 15C3.60639 15 2.78845 15.8179 2.78845 16.8269V46.9808C2.78845 47.9898 3.60639 48.8077 4.61538 48.8077H59.3846C60.3936 48.8077 61.2115 47.9898 61.2115 46.9808V16.8269C61.2115 15.8179 60.3936 15 59.3846 15H4.61538ZM0.288452 16.8269C0.288452 14.4372 2.22568 12.5 4.61538 12.5H59.3846C61.7743 12.5 63.7115 14.4372 63.7115 16.8269V46.9808C63.7115 49.3705 61.7743 51.3077 59.3846 51.3077H4.61538C2.22568 51.3077 0.288452 49.3705 0.288452 46.9808V16.8269Z" fill="black"/>
<path d="M9.23077 42.3653V21.4423H15.3846L21.5385 29.1346L27.6923 21.4423H33.8462V42.3653H27.6923V30.3653L21.5385 38.0576L15.3846 30.3653V42.3653H9.23077ZM47.6923 42.3653L38.4615 32.2115H44.6154V21.4423H50.7692V32.2115H56.9231L47.6923 42.3653Z" fill="black"/>
</svg>
