<svg width="64" height="64" viewBox="0 0 64 64" fill="none" xmlns="http://www.w3.org/2000/svg">
<g clip-path="url(#clip0_1208_2545)">
<circle cx="31.5" cy="31.5" r="26.5" fill="#F6F6F6"/>
<path d="M50.28 16.1306C50.2155 16.178 50.1672 16.2442 50.1419 16.3202C50.1166 16.3961 50.1155 16.478 50.1387 16.5546V16.552C50.2346 16.7442 50.2721 16.9603 50.2465 17.1736C50.2209 17.3868 50.1334 17.5879 49.9947 17.752L49.9974 17.7493C49.9451 17.8153 49.9169 17.8971 49.9174 17.9813C49.9174 18.0986 49.9734 18.2053 50.0587 18.2746C50.1229 18.3245 50.2014 18.3525 50.2827 18.3546C50.3947 18.3546 50.496 18.3013 50.5654 18.2213C50.7948 17.9458 50.9388 17.6092 50.9795 17.2529C51.0203 16.8966 50.956 16.5362 50.7947 16.216C50.7666 16.1765 50.7309 16.1429 50.6898 16.1173C50.6487 16.0916 50.6029 16.0743 50.5551 16.0664C50.5073 16.0584 50.4584 16.06 50.4111 16.0711C50.3639 16.0821 50.3194 16.1023 50.28 16.1306ZM50.7974 16.2186L50.792 16.208L50.7947 16.216L50.7974 16.2186Z" fill="#F36933"/>
<path d="M36.0715 0.2635C18.5462 -1.9845 2.51155 10.3995 0.263547 27.9275C-1.98445 45.4528 10.3969 61.4848 27.9249 63.7355C45.4529 65.9835 61.4929 53.5995 63.7355 36.0715C65.9862 18.5462 53.6049 2.51417 36.0715 0.2635ZM42.6609 20.2235C42.0668 20.2302 41.4991 20.4695 41.0795 20.8902L29.2049 32.7648L26.6715 30.2315C38.3755 18.5622 40.4875 18.4502 42.6609 20.2235ZM29.6929 33.1862L41.5329 21.3462C41.6878 21.1831 41.8745 21.0533 42.0813 20.9648C42.2881 20.8764 42.5109 20.831 42.7358 20.8316C42.9608 20.8322 43.1833 20.8787 43.3897 20.9683C43.5961 21.0578 43.782 21.1886 43.9361 21.3525C44.0902 21.5164 44.2092 21.71 44.2859 21.9215C44.3625 22.133 44.3952 22.358 44.3819 22.5826C44.3687 22.8071 44.3097 23.0266 44.2086 23.2276C44.1076 23.4286 43.9666 23.6069 43.7942 23.7515L43.7915 23.7542L31.2609 34.7542L29.6929 33.1862ZM30.5729 35.0368L27.6395 35.6715C27.6281 35.6737 27.6165 35.6746 27.6049 35.6742C27.5751 35.6744 27.5458 35.6662 27.5203 35.6507C27.4949 35.6351 27.4743 35.6128 27.4609 35.5862C27.443 35.5554 27.436 35.5195 27.4408 35.4843C27.4456 35.449 27.4621 35.4164 27.4875 35.3915L29.2075 33.6715L30.5729 35.0368ZM23.0982 33.8128L26.2235 30.6875L28.5675 33.0288L23.2902 34.1648C23.2735 34.1681 23.2566 34.1699 23.2395 34.1702C23.203 34.17 23.1671 34.1598 23.136 34.1405C23.105 34.1211 23.0799 34.0936 23.0635 34.0608C23.0439 34.0297 23.0337 33.9936 23.0342 33.9568C23.0342 33.9008 23.0582 33.8475 23.0982 33.8128ZM13.3755 49.9648C13.3251 49.9614 13.2779 49.9388 13.2436 49.9016C13.2094 49.8643 13.1907 49.8154 13.1915 49.7648V49.7435C13.1966 49.6971 13.2173 49.6539 13.2502 49.6208H13.2555L15.7782 47.0982L19.0369 50.3568L13.3755 49.9648ZM19.8449 46.6182C19.7226 46.6805 19.6251 46.7825 19.5684 46.9075C19.5117 47.0325 19.4992 47.1731 19.5329 47.3062V47.3008L20.0742 49.6075C20.0917 49.6786 20.0853 49.7534 20.056 49.8205C20.0267 49.8876 19.9762 49.9431 19.9122 49.9786C19.8482 50.0141 19.7743 50.0276 19.7019 50.0169C19.6294 50.0062 19.5626 49.972 19.5115 49.9195H19.5035L16.2289 46.6422L26.2609 36.6208L31.1142 35.5728L33.4449 37.9035C30.0982 40.8422 25.5222 43.7728 19.8449 46.6182ZM33.9195 37.4768H33.9142L31.6769 35.2395L44.2075 24.2395C44.321 24.1377 44.4254 24.0261 44.5195 23.9062L44.5249 23.9008C44.1329 27.4875 39.1142 32.5542 33.9195 37.4768ZM47.0982 21.6688C46.4617 21.67 45.8313 21.5452 45.2432 21.3018C44.6551 21.0583 44.121 20.7009 43.6716 20.2502L43.6662 20.2448C42.7926 19.3568 42.2935 18.167 42.2719 16.9215C42.2504 15.6759 42.7081 14.4697 43.5506 13.5519C44.393 12.6342 45.5557 12.0751 46.7986 11.9902C48.0414 11.9052 49.2694 12.3009 50.2289 13.0955L50.2209 13.0902L45.9275 17.3915C45.8978 17.4207 45.8742 17.4556 45.8582 17.4941C45.8422 17.5325 45.834 17.5738 45.8342 17.6155C45.8342 17.7035 45.8689 17.7835 45.9275 17.8395L49.2529 21.1648C48.5837 21.4983 47.8459 21.6708 47.0982 21.6688ZM50.5489 20.2502C50.3329 20.4635 50.0982 20.6528 49.8422 20.8208L49.8262 20.8315L46.6049 17.6128L50.6929 13.5248C52.4556 15.4448 52.3915 18.4102 50.5489 20.2502Z" fill="#F36933"/>
</g>
<defs>
<clipPath id="clip0_1208_2545">
<rect width="64" height="64" fill="white"/>
</clipPath>
</defs>
</svg>
