<svg width="64" height="64" viewBox="0 0 64 64" fill="none" xmlns="http://www.w3.org/2000/svg">
<path d="M50.0815 33.9842C42.3936 33.9842 36.1624 40.2155 36.1624 47.9027C36.1624 55.5903 42.3936 61.8222 50.0815 61.8222C57.7684 61.8222 64 55.5903 64 47.9027C64 40.2155 57.7684 33.9842 50.0815 33.9842ZM13.9188 33.9851C6.23189 33.9851 0 40.2155 0 47.9034C0 55.5903 6.23189 61.8222 13.9188 61.8222C21.6063 61.8222 27.8384 55.5903 27.8384 47.9034C27.8384 40.2155 21.6063 33.9851 13.9188 33.9851ZM45.9184 16.5852C45.9184 24.2724 39.6873 30.5054 32.0004 30.5054C24.3127 30.5054 18.0813 24.2724 18.0813 16.5852C18.0813 8.89858 24.3127 2.66669 32.0004 2.66669C39.6873 2.66669 45.9184 8.89858 45.9184 16.5852Z" fill="url(#paint0_radial_1208_2498)"/>
<defs>
<radialGradient id="paint0_radial_1208_2498" cx="0" cy="0" r="1" gradientUnits="userSpaceOnUse" gradientTransform="translate(32 34.996) scale(42.4085 39.1984)">
<stop stop-color="#FFB900"/>
<stop offset="0.6" stop-color="#F95D8F"/>
<stop offset="0.999" stop-color="#F95353"/>
</radialGradient>
</defs>
</svg>
