<svg width="64" height="64" viewBox="0 0 64 64" fill="none" xmlns="http://www.w3.org/2000/svg">
<path d="M31.9655 64L8.92821 57.6023L3.79446 0H60.2055L55.0663 57.5933L31.9655 64Z" fill="#264DE4"/>
<path d="M50.6666 53.926L55.0584 4.7099H32V59.1031L50.6666 53.926Z" fill="#2965F1"/>
<path d="M15.5634 26.0738L16.1964 33.1384H32V26.0738H15.5634Z" fill="#EBEBEB"/>
<path d="M14.2916 11.7745L14.9336 18.8393H32V11.7745H14.2916Z" fill="#EBEBEB"/>
<path d="M32 44.4215L31.969 44.4297L24.104 42.3052L23.6012 36.6708H16.5119L17.5013 47.7634L31.9675 51.7807L32 51.7717V44.4215Z" fill="#EBEBEB"/>
<path d="M48.3914 26.0736L49.6663 11.7745H31.9757V18.8393H41.9269L41.2843 26.0736H31.9757V33.1383H40.6719L39.8521 42.3006L31.9757 44.4273V51.7773L46.4533 47.7633L46.5596 46.5697L48.2191 27.9707L48.3914 26.0736Z" fill="white"/>
</svg>
