<svg width="64" height="64" viewBox="0 0 64 64" fill="none" xmlns="http://www.w3.org/2000/svg">
<g clip-path="url(#clip0_1201_1611)">
<path d="M49.1279 25.6968C48.7918 25.8856 49.0658 24.9762 48.7366 25.3354C48.5708 25.5172 48.6905 25.9155 48.8333 26.0744C48.8557 26.1005 48.8725 26.1313 48.8824 26.1646C48.8923 26.1979 48.8952 26.233 48.8908 26.2677C48.8693 26.4534 48.9177 26.6069 49.0358 26.7282C49.0577 26.7501 49.075 26.7783 49.0869 26.8111C49.0988 26.844 49.1049 26.8807 49.1049 26.9192L49.1072 27.3037C49.1071 27.3386 49.0979 27.3719 49.0812 27.3982C49.0645 27.4245 49.0413 27.4423 49.0151 27.4487C48.3452 27.6076 48.4419 26.8916 47.9861 26.6062C47.9277 26.5693 47.8794 26.5156 47.841 26.445C47.5049 25.8188 47.0054 26.765 46.5012 26.0605C46.4836 26.0358 46.4576 26.0179 46.4275 26.01C46.3973 26.002 46.3649 26.0044 46.3354 26.0168C46.0776 26.1258 45.8458 26.0859 45.6402 25.8971C45.5867 25.8479 45.5167 25.8187 45.4422 25.8142C45.2258 25.8019 45.0516 25.7014 44.9196 25.5126C44.8984 25.4825 44.8707 25.4587 44.84 25.4444C44.8093 25.4301 44.7769 25.4258 44.7469 25.4321C44.5612 25.4689 44.4139 25.5564 44.3049 25.6945C44.2845 25.7212 44.2567 25.7408 44.2259 25.7504C44.1952 25.7599 44.1631 25.7589 44.1346 25.7475C43.7524 25.5924 43.4301 25.3584 43.1677 25.0453C43.142 25.0146 43.1118 24.99 43.0794 24.9736C43.047 24.9572 43.0133 24.9495 42.9812 24.9509C42.7832 24.9571 42.6251 25.0346 42.507 25.1834C42.4992 25.1934 42.4893 25.2016 42.478 25.2075C42.4667 25.2133 42.4542 25.2167 42.4414 25.2173C42.4285 25.218 42.4156 25.2159 42.4035 25.2113C42.3914 25.2066 42.3804 25.1995 42.3711 25.1903L41.9291 24.7506C41.9063 24.7287 41.8758 24.7128 41.8401 24.7044C41.8044 24.696 41.7647 24.6952 41.7242 24.7023C41.3267 24.7713 40.9338 24.7276 40.5455 24.5711C40.4799 24.5458 40.4045 24.5442 40.3314 24.5665C39.7866 24.7322 39.3991 24.545 39.1688 24.0047C39.1364 23.9265 39.0869 23.8672 39.0307 23.839C38.8926 23.7684 38.7406 23.7546 38.5749 23.7975C38.5417 23.8058 38.5072 23.8051 38.4755 23.7953C38.4437 23.7855 38.4159 23.7671 38.3953 23.7423C38.0638 23.3494 37.6671 23.2742 37.2051 23.5167C37.1748 23.5323 37.1406 23.5376 37.1086 23.5317C37.0766 23.5258 37.0488 23.5091 37.0302 23.4844L36.8207 23.2013C36.803 23.1777 36.7773 23.161 36.7476 23.1539C36.718 23.1468 36.6861 23.1497 36.6572 23.1621C36.0725 23.4154 35.688 21.3688 35.5637 20.9751C35.5391 20.8968 35.5115 20.8953 35.4808 20.9705C35.2552 21.5138 35.7294 21.7072 35.5453 22.186C34.6382 19.2347 33.7542 16.2772 32.8932 13.3136C32.6515 12.4825 32.2118 11.4834 31.2149 12.1487C30.977 12.3068 30.8036 12.5746 30.6947 12.9521C30.0424 15.2098 29.3763 17.4613 28.6964 19.7066C28.4017 19.9553 28.2007 20.2668 28.0932 20.6413C28.0856 20.6705 28.0848 20.6705 28.0909 20.6413C28.1692 20.2238 28.0771 19.8816 27.8147 19.6145C27.792 19.5918 27.7624 19.5749 27.7284 19.5653C27.6944 19.5557 27.6569 19.5536 27.619 19.5593C27.2675 19.6176 27.0588 19.5002 26.9928 19.2071C26.979 19.1426 26.9491 19.1342 26.903 19.1817C26.6544 19.4488 26.3942 19.4419 26.1226 19.161C26.1139 19.1521 26.1033 19.1452 26.0916 19.1407C26.0798 19.1363 26.0671 19.1343 26.0542 19.1349C26.0413 19.1356 26.0284 19.1388 26.0165 19.1445C26.0045 19.1502 25.9936 19.1581 25.9845 19.1679C25.9169 19.2416 25.831 19.2539 25.7266 19.2048C25.6967 19.1903 25.6638 19.1839 25.6313 19.1863C25.5989 19.1887 25.5682 19.1999 25.5424 19.2186C25.3782 19.3352 25.2071 19.3582 25.0291 19.2876C24.97 19.2654 24.914 19.2111 24.8725 19.1357C24.5963 18.6338 24.1681 18.3668 23.5879 18.3345C23.5254 18.3315 23.4571 18.3014 23.3945 18.2494C23.3025 18.1742 23.1866 18.1289 23.0469 18.1135C23.0168 18.1111 22.9882 18.098 22.9656 18.0764C22.9431 18.0547 22.928 18.0256 22.9226 17.9938C22.8919 17.8066 22.7899 17.6915 22.6164 17.6485C22.586 17.641 22.5528 17.6437 22.5207 17.6564C22.4885 17.669 22.4586 17.691 22.4346 17.7199C22.2934 17.8964 22.1169 18.0353 21.9051 18.1366C21.8778 18.1496 21.8459 18.1517 21.8149 18.1425C21.7839 18.1332 21.7555 18.1133 21.7347 18.0859L21.5321 17.8212C21.5121 17.7954 21.4849 17.7743 21.4526 17.7595C21.4203 17.7448 21.3837 17.7367 21.3456 17.736C20.8944 17.7329 20.4777 17.6224 20.0956 17.4045C19.9206 17.3055 19.9045 17.0891 19.619 17.1397C19.5812 17.1462 19.5439 17.1461 19.5095 17.1394C19.475 17.1326 19.4441 17.1194 19.4187 17.1006C19.1732 16.9256 18.9253 16.9095 18.6751 17.0523C18.6396 17.0732 18.6019 17.0864 18.5659 17.0905C18.53 17.0945 18.497 17.0893 18.4703 17.0753L18.0858 16.8658C18.0591 16.852 18.0288 16.8476 18.0004 16.8535C17.9721 16.8595 17.9476 16.8753 17.9316 16.898C17.8318 17.0438 17.7036 17.1229 17.5471 17.1351C17.5343 17.1361 17.5216 17.1335 17.51 17.1278C17.4984 17.122 17.4883 17.1131 17.4804 17.1019C17.4726 17.0906 17.4672 17.0773 17.4648 17.0631C17.4624 17.0489 17.463 17.0341 17.4665 17.02L17.9776 14.9458C17.9976 14.8644 17.9707 14.8437 17.897 14.8836L17.7129 14.9826C19.708 8.28185 20.9704 4.17789 21.4999 2.67075C22.1721 0.762272 23.7491 -0.147075 25.7335 -0.19542C29.3955 -0.285971 33.0567 -0.29825 36.7171 -0.232255C39.9953 -0.172399 41.3812 0.451482 42.3343 3.53405C44.6196 10.9147 46.8841 18.3023 49.1279 25.6968Z" fill="#07011A"/>
<path d="M28.6964 19.7066L23.2219 38.3471C23.2067 38.3988 23.1772 38.4452 23.1369 38.481C23.0967 38.5168 23.0471 38.5406 22.994 38.5496C18.1656 39.4014 13.5467 40.9523 9.13734 43.2023C9.03451 43.256 8.99998 43.2276 9.03374 43.1171L17.7128 14.9826L17.897 14.8836C17.9707 14.8437 17.9975 14.8644 17.9776 14.9457L17.4665 17.02C17.4629 17.0341 17.4623 17.0488 17.4648 17.0631C17.4672 17.0773 17.4725 17.0906 17.4804 17.1018C17.4883 17.1131 17.4984 17.1219 17.51 17.1277C17.5216 17.1335 17.5343 17.136 17.5471 17.1351C17.7036 17.1228 17.8318 17.0438 17.9315 16.898C17.9476 16.8752 17.9721 16.8594 18.0004 16.8535C18.0288 16.8476 18.0591 16.8519 18.0858 16.8657L18.4702 17.0752C18.497 17.0892 18.53 17.0945 18.5659 17.0904C18.6019 17.0864 18.6396 17.0732 18.6751 17.0522C18.9253 16.9095 19.1732 16.9256 19.4187 17.1006C19.4441 17.1194 19.475 17.1326 19.5094 17.1393C19.5439 17.1461 19.5812 17.1462 19.619 17.1397C19.9045 17.089 19.9206 17.3054 20.0956 17.4044C20.4777 17.6224 20.8944 17.7329 21.3456 17.7359C21.3837 17.7367 21.4203 17.7447 21.4526 17.7595C21.4849 17.7742 21.512 17.7953 21.5321 17.8211L21.7347 18.0859C21.7555 18.1132 21.7838 18.1332 21.8149 18.1424C21.8459 18.1517 21.8778 18.1496 21.905 18.1365C22.1168 18.0352 22.2933 17.8963 22.4345 17.7198C22.4586 17.691 22.4884 17.669 22.5206 17.6563C22.5528 17.6437 22.586 17.641 22.6164 17.6485C22.7898 17.6914 22.8919 17.8065 22.9226 17.9938C22.928 18.0256 22.9431 18.0546 22.9656 18.0763C22.9881 18.098 23.0167 18.1111 23.0469 18.1135C23.1866 18.1288 23.3024 18.1741 23.3945 18.2493C23.457 18.3014 23.5254 18.3315 23.5879 18.3345C24.168 18.3667 24.5962 18.6338 24.8725 19.1357C24.9139 19.211 24.97 19.2654 25.029 19.2876C25.2071 19.3582 25.3782 19.3352 25.5424 19.2185C25.5681 19.1999 25.5989 19.1887 25.6313 19.1863C25.6637 19.1838 25.6967 19.1902 25.7266 19.2047C25.831 19.2538 25.9169 19.2416 25.9844 19.1679C25.9936 19.1581 26.0044 19.1501 26.0164 19.1445C26.0284 19.1388 26.0413 19.1355 26.0542 19.1349C26.0671 19.1342 26.0798 19.1362 26.0915 19.1407C26.1033 19.1452 26.1139 19.1521 26.1226 19.161C26.3942 19.4418 26.6544 19.4487 26.903 19.1817C26.949 19.1341 26.979 19.1426 26.9928 19.207C27.0588 19.5002 27.2675 19.6176 27.619 19.5592C27.6569 19.5536 27.6944 19.5556 27.7284 19.5652C27.7624 19.5748 27.792 19.5917 27.8146 19.6145C28.0771 19.8815 28.1692 20.2238 28.0909 20.6413C28.0848 20.6704 28.0855 20.6704 28.0932 20.6413C28.2006 20.2668 28.4017 19.9552 28.6964 19.7066Z" fill="#100322"/>
<path d="M49.1279 25.6967L54.4804 43.1424C54.5111 43.2422 54.4797 43.2682 54.386 43.2207C50.0028 40.9768 45.3862 39.4198 40.5363 38.5496C40.4946 38.542 40.4558 38.523 40.4241 38.4945C40.3925 38.4661 40.3692 38.4294 40.3568 38.3885L35.5453 22.186C35.7295 21.7071 35.2552 21.5137 35.4808 20.9704C35.5115 20.8952 35.5391 20.8968 35.5637 20.975C35.688 21.3687 36.0725 23.4153 36.6572 23.1621C36.6861 23.1497 36.718 23.1468 36.7476 23.1539C36.7773 23.161 36.803 23.1776 36.8207 23.2012L37.0302 23.4844C37.0489 23.509 37.0766 23.5257 37.1086 23.5316C37.1406 23.5375 37.1748 23.5322 37.2051 23.5166C37.6671 23.2741 38.0638 23.3493 38.3953 23.7422C38.4159 23.7671 38.4437 23.7854 38.4755 23.7952C38.5072 23.805 38.5417 23.8058 38.5749 23.7975C38.7407 23.7545 38.8926 23.7683 39.0307 23.8389C39.087 23.8671 39.1364 23.9265 39.1689 24.0047C39.3991 24.5449 39.7866 24.7321 40.3315 24.5664C40.4045 24.5441 40.4799 24.5457 40.5455 24.571C40.9338 24.7275 41.3267 24.7713 41.7242 24.7022C41.7647 24.6952 41.8045 24.6959 41.8401 24.7043C41.8758 24.7127 41.9064 24.7286 41.9291 24.7506L42.3712 25.1903C42.3804 25.1994 42.3914 25.2066 42.4036 25.2112C42.4157 25.2159 42.4286 25.2179 42.4414 25.2173C42.4542 25.2166 42.4667 25.2133 42.478 25.2074C42.4893 25.2016 42.4992 25.1934 42.507 25.1834C42.6252 25.0345 42.7832 24.957 42.9812 24.9508C43.0134 24.9494 43.047 24.9572 43.0794 24.9736C43.1118 24.99 43.142 25.0145 43.1677 25.0452C43.4301 25.3583 43.7524 25.5924 44.1346 25.7474C44.1631 25.7588 44.1952 25.7599 44.226 25.7503C44.2567 25.7407 44.2845 25.7211 44.305 25.6944C44.4139 25.5563 44.5613 25.4688 44.747 25.432C44.7769 25.4257 44.8093 25.43 44.84 25.4443C44.8707 25.4586 44.8984 25.4824 44.9196 25.5126C45.0516 25.7013 45.2258 25.8019 45.4422 25.8142C45.5168 25.8186 45.5867 25.8479 45.6402 25.897C45.8459 26.0858 46.0776 26.1257 46.3354 26.0167C46.3649 26.0044 46.3973 26.002 46.4275 26.0099C46.4576 26.0179 46.4836 26.0357 46.5012 26.0605C47.0054 26.7649 47.5049 25.8188 47.841 26.4449C47.8794 26.5155 47.9278 26.5693 47.9861 26.6061C48.4419 26.8916 48.3452 27.6075 49.0151 27.4487C49.0413 27.4422 49.0646 27.4244 49.0813 27.3981C49.098 27.3718 49.1071 27.3386 49.1072 27.3036L49.1049 26.9192C49.1049 26.8807 49.0988 26.8439 49.0869 26.8111C49.075 26.7782 49.0577 26.75 49.0359 26.7281C48.9177 26.6069 48.8693 26.4534 48.8908 26.2677C48.8952 26.233 48.8923 26.1978 48.8824 26.1645C48.8725 26.1312 48.8558 26.1005 48.8333 26.0743C48.6905 25.9154 48.5708 25.5172 48.7366 25.3353C49.0658 24.9762 48.7918 25.8855 49.1279 25.6967Z" fill="#0F0321"/>
<path d="M26.6912 47.2311L26.4564 47.3554C26.4291 47.3704 26.4087 47.3954 26.3993 47.4253C26.3899 47.4553 26.3922 47.4879 26.4057 47.5165C26.6935 48.1266 27.1263 48.2348 27.7272 48.4512C28.4777 48.7206 29.09 49.1488 29.8382 49.4342C30.1536 49.5539 30.3654 49.8256 30.72 49.9522C31.8848 50.362 32.9715 50.9721 33.5562 51.2299C35.1017 51.916 36.3019 52.4907 37.1568 52.9542C37.4791 53.1315 37.8221 53.0785 38.1513 53.2857C38.6416 53.5988 39.6178 54.423 40.1703 53.9303C40.1814 53.9204 40.2007 53.9165 40.2252 53.9194C40.2497 53.9223 40.2781 53.9318 40.3061 53.9464L40.4189 54.004C39.1972 54.9893 37.9264 55.9071 36.6066 56.7574C33.8762 58.5139 32.8587 60.9312 34.2284 64.1542C34.2837 64.2831 34.2476 64.3168 34.1202 64.2554C31.772 63.1105 30.3263 61.311 29.783 58.8569C29.3594 56.9346 30.2411 53.5827 27.8423 52.7539C25.8832 52.0794 23.9033 53.3064 23.5994 55.4175C23.5749 55.5879 23.5066 55.6078 23.3945 55.4774C20.6435 52.2935 20.0173 48.1174 21.0648 44.1071C21.0985 43.9797 21.153 43.9705 21.2282 44.0794C22.4253 45.8176 24.7183 46.7085 26.6912 47.2311Z" fill="#FF5D01"/>
<path d="M41.9521 51.9988C41.8938 51.8468 41.8938 51.691 41.9521 51.5314C41.9573 51.5178 41.9598 51.5033 41.9593 51.4887C41.9589 51.4742 41.9556 51.4599 41.9495 51.4468C41.9435 51.4337 41.9349 51.422 41.9243 51.4124C41.9137 51.4028 41.9012 51.3955 41.8877 51.391C41.6114 51.3012 41.4042 51.1216 41.1257 51.0687C40.2048 50.896 39.3922 50.2721 38.7683 49.9959C37.1276 49.2653 36.0947 48.7627 35.6696 48.488C35.3826 48.3053 35.1033 48.1948 34.8316 48.1565C34.2653 48.0759 33.8601 47.9193 33.3674 47.8641C36.4892 47.8065 40.0828 47.1136 42.652 45.2235C42.6661 45.2132 42.6824 45.2064 42.6997 45.2038C42.7169 45.2012 42.7346 45.2028 42.7511 45.2084C42.7676 45.2141 42.7825 45.2236 42.7945 45.2363C42.8065 45.2489 42.8153 45.2643 42.8201 45.2811C43.4723 47.6968 43.183 49.936 41.9521 51.9988Z" fill="#FF4C0E"/>
<path d="M26.6912 47.2311C28.8875 47.7468 31.1129 47.9578 33.3674 47.8642C33.8601 47.9194 34.2653 48.076 34.8316 48.1565C35.1033 48.1949 35.3826 48.3054 35.6696 48.4881C36.0947 48.7628 37.1276 49.2654 38.7683 49.996C39.3922 50.2722 40.2048 50.8961 41.1257 51.0688C41.4042 51.1217 41.6114 51.3013 41.8877 51.3911C41.9012 51.3956 41.9137 51.4029 41.9243 51.4125C41.9349 51.4221 41.9435 51.4338 41.9495 51.4469C41.9556 51.46 41.9589 51.4743 41.9593 51.4888C41.9598 51.5033 41.9573 51.5179 41.9521 51.5315C41.8938 51.6911 41.8938 51.8469 41.9521 51.9988C41.527 52.7232 41.0159 53.3916 40.4189 54.004L40.3061 53.9464C40.2781 53.9318 40.2497 53.9223 40.2252 53.9194C40.2007 53.9165 40.1814 53.9203 40.1703 53.9303C39.6178 54.423 38.6416 53.5988 38.1513 53.2857C37.8221 53.0785 37.4791 53.1315 37.1568 52.9542C36.3019 52.4907 35.1017 51.9159 33.5562 51.2299C32.9715 50.9721 31.8849 50.362 30.72 49.9522C30.3654 49.8256 30.1536 49.5539 29.8382 49.4342C29.09 49.1488 28.4777 48.7206 27.7272 48.4512C27.1263 48.2348 26.6935 48.1266 26.4057 47.5165C26.3922 47.4879 26.3899 47.4553 26.3993 47.4253C26.4087 47.3954 26.4291 47.3704 26.4564 47.3554L26.6912 47.2311Z" fill="#FF5607"/>
</g>
<defs>
<clipPath id="clip0_1201_1611">
<rect width="45.5111" height="64" fill="white" transform="translate(9)"/>
</clipPath>
</defs>
</svg>
