<svg width="64" height="64" viewBox="0 0 64 64" fill="none" xmlns="http://www.w3.org/2000/svg">
<g clip-path="url(#clip0_1206_1958)">
<path d="M60.2416 0L55.0959 57.5933L31.9654 64L8.89868 57.6023L3.75836 0H60.2416Z" fill="#9BDC10"/>
<path d="M32.0001 59.103L50.6906 53.926L55.088 4.70984H32.0001V59.103Z" fill="#C2F84F"/>
<path d="M21.997 18.8448H32.0001V11.78H14.2691L14.4384 13.6754L16.1763 33.1438L16.6163 38.0699H23.7147L22.6432 26.0791L21.997 18.8448Z" fill="#EBEBEB"/>
<path d="M23.5905 36.6708H16.4922L17.4828 47.7634L31.9675 51.7808L32 51.7718V44.4215L31.9691 44.4298L24.0939 42.3053L23.5905 36.6708Z" fill="#EBEBEB"/>
<path d="M39.8622 42.3007L31.9756 44.4274V51.7773L46.4718 47.7634L47.2462 40.1659L39.8622 42.3007Z" fill="white"/>
<path d="M31.9756 18.8221V18.8394H41.8525L41.1953 26.1312H48.4297L49.0558 18.8394L49.1976 17.2514L49.5198 13.67L49.6889 11.7746H31.9756V18.8221Z" fill="white"/>
</g>
<defs>
<clipPath id="clip0_1206_1958">
<rect width="64" height="64" fill="white"/>
</clipPath>
</defs>
</svg>
