<svg width="64" height="64" viewBox="0 0 64 64" fill="none" xmlns="http://www.w3.org/2000/svg">
<g clip-path="url(#clip0_1199_1471)">
<path d="M60.2416 0L55.0959 57.5933L31.9654 64L8.89868 57.6023L3.75836 0H60.2416Z" fill="#E44D26"/>
<path d="M32.0002 59.1029L50.6907 53.9259L55.0881 4.70978H32.0002V59.1029Z" fill="#F16529"/>
<path d="M21.997 18.8394H32.0001V11.7746H14.2691L14.4384 13.67L16.1763 33.1383H32.0001V26.0737H22.6432L21.997 18.8394Z" fill="#EBEBEB"/>
<path d="M23.5904 36.6708H16.4922L17.4828 47.7634L31.9675 51.7807L32 51.7717V44.4215L31.969 44.4297L24.0939 42.3052L23.5904 36.6708Z" fill="#EBEBEB"/>
<path d="M31.9757 33.1383H40.683L39.8622 42.3007L31.9757 44.4274V51.7773L46.4719 47.7634L46.5782 46.5698L48.2399 27.9708L48.4124 26.0737H31.9757V33.1383Z" fill="white"/>
<path d="M31.9757 18.8221V18.8394H49.0558L49.1977 17.2514L49.5199 13.67L49.689 11.7746H31.9757V18.8221Z" fill="white"/>
</g>
<defs>
<clipPath id="clip0_1199_1471">
<rect width="64" height="64" fill="white"/>
</clipPath>
</defs>
</svg>
