<svg xmlns:xlink="http://www.w3.org/1999/xlink" height="128" viewBox="0 0 128 128" fill="currentColor" xmlns="http://www.w3.org/2000/svg" class="h-12 lg:h-16 w-auto mb-2 lg:mb-4" width="128" ><path fill="#9A4993" d="M118.102 38.892c0-2.033-.433-3.866-1.333-5.4-.867-1.533-2.167-2.8-3.901-3.8-14.4-8.3-28.834-16.6-43.235-24.9-3.9-2.234-7.633-2.168-11.5.1-5.734 3.366-34.468 19.833-43.002 24.8-3.534 2.034-5.234 5.167-5.234 9.234V89.06c0 2 .434 3.767 1.267 5.3.867 1.567 2.2 2.9 3.967 3.934 8.567 4.967 37.268 21.401 43.002 24.801 3.867 2.267 7.633 2.367 11.5.1 14.4-8.334 28.835-16.601 43.235-24.901 1.801-1.033 3.101-2.333 3.967-3.933.834-1.534 1.267-3.3 1.267-5.3v-50.17z"></path>       <path fill="#542550" fillrule="evenodd" d="M112.869 29.692c1.733 1 3.033 2.267 3.9 3.8.9 1.534 1.333 3.367 1.333 5.4v50.17c0 2-.433 3.766-1.267 5.3-.866 1.6-2.166 2.9-3.966 3.933-5.466 3.15-10.936 6.296-16.407 9.442a10962.126 10962.126 0 00-26.829 15.459c-3.866 2.267-7.633 2.167-11.5-.1-3.509-2.081-15.62-9.043-26.453-15.271a7092.829 7092.829 0 01-16.549-9.53c-1.767-1.033-3.1-2.367-3.967-3.933-.833-1.534-1.266-3.3-1.266-5.3V38.925c0-4.067 1.7-7.2 5.233-9.234 4.085-2.377 12.797-7.389 21.4-12.338 9.37-5.39 18.613-10.707 21.602-12.463 3.867-2.267 7.6-2.333 11.5-.1 7.202 4.151 14.412 8.302 21.622 12.453 7.208 4.15 14.415 8.299 21.614 12.448zm-99.317-2.729C8.99 29.592 6.745 33.8 6.745 38.926V89.06c0 2.47.539 4.763 1.649 6.806l.011.02c1.173 2.12 2.937 3.844 5.134 5.13l.01.006c3.352 1.943 9.735 5.612 16.62 9.57 10.81 6.215 22.86 13.143 26.356 15.215l.013.008c2.307 1.352 4.745 2.149 7.304 2.183 2.565.033 5.03-.703 7.378-2.078 8.93-5.168 17.868-10.308 26.808-15.448 5.47-3.145 10.941-6.291 16.411-9.444 2.246-1.29 3.991-2.992 5.168-5.164 1.109-2.042 1.648-4.335 1.648-6.804V38.893c0-2.468-.525-4.87-1.754-6.974-1.18-2.078-2.911-3.72-5.057-4.958-7.193-4.146-14.395-8.292-21.596-12.438l-.033-.02c-7.206-4.148-14.41-8.296-21.607-12.444l-.008-.004C68.85.709 66.395-.027 63.836.001c-2.554.028-4.986.815-7.298 2.17-2.994 1.758-12.195 7.051-21.54 12.427-8.598 4.947-17.32 9.964-21.446 12.365z" cliprule="evenodd"></path>       <path fill="#6A1577" d="M64.133 63.793L11.098 94.328c.866 1.567 2.2 2.9 3.966 3.933 8.567 4.967 37.269 21.401 43.002 24.801 3.867 2.267 7.634 2.367 11.5.101 14.401-8.334 28.835-16.601 43.236-24.901 1.8-1.034 3.1-2.334 3.967-3.934L64.133 63.793z"></path>       <path fill="#6A1577" d="M48.433 72.827c3.1 5.4 8.9 9.034 15.534 9.034 6.7 0 12.534-3.667 15.6-9.134l-15.434-8.934-15.7 9.034z"></path>       <path fill="#813084" d="M118.102 38.893c0-2.034-.433-3.867-1.333-5.4l-52.636 30.3 52.703 30.535c.833-1.533 1.266-3.3 1.266-5.3V38.893z"></path>       <path fill="#FFFFFF" d="M79.567 72.727c-3.066 5.433-8.9 9.134-15.6 9.134a17.826 17.826 0 01-15.534-9.034c-1.5-2.633-2.367-5.634-2.367-8.867 0-9.9 8-17.9 17.9-17.9 6.601 0 12.368 3.6 15.468 8.933l15.634-9c-6.234-10.734-17.834-17.968-31.135-17.968C44.066 28.025 28 44.125 28 63.96a35.81 35.81 0 004.766 17.9c6.2 10.768 17.868 18.035 31.202 18.035 13.367 0 25.034-7.3 31.234-18.134l-15.634-9.034zM99.335 55.46H95.77v17.234h3.566V55.46zM107.235 55.46h-3.567v17.234h3.567V55.46z"></path>       <path fill="#FFFFFF" d="M110.135 58.36H92.901v3.567h17.234V58.36zM110.135 66.227H92.901v3.567h17.234v-3.567z"></path></svg>