<?xml version="1.0" standalone="no"?>
<!DOCTYPE svg PUBLIC "-//W3C//DTD SVG 20010904//EN"
 "http://www.w3.org/TR/2001/REC-SVG-20010904/DTD/svg10.dtd">
<svg version="1.0" xmlns="http://www.w3.org/2000/svg"
 width="480.000000pt" height="480.000000pt" viewBox="0 0 480.000000 480.000000"
 preserveAspectRatio="xMidYMid meet">

<g transform="translate(0.000000,480.000000) scale(0.100000,-0.100000)"
fill="#000000" stroke="none">
<path d="M1204 4055 c-18 -74 24 -150 170 -305 162 -173 216 -251 266 -388 65
-179 84 -440 41 -595 -63 -238 -245 -481 -613 -823 -94 -87 -192 -178 -217
-202 -45 -42 -40 -40 154 59 110 56 281 146 380 200 297 162 535 264 900 385
574 190 1218 335 1839 414 88 11 161 21 162 23 10 10 -94 146 -176 228 -165
167 -375 308 -630 425 -285 130 -524 189 -1125 278 -653 98 -872 140 -980 191
-29 14 -79 51 -109 81 -55 55 -55 55 -62 29z m327 -260 c67 -18 288 -60 369
-70 99 -13 99 -15 10 -78 -44 -32 -106 -83 -139 -113 -32 -29 -63 -54 -68 -54
-6 0 -19 19 -29 42 -27 59 -95 152 -167 226 -34 34 -55 62 -48 62 7 0 39 -7
72 -15z m627 -173 c31 -72 41 -127 42 -219 l0 -82 -57 20 c-32 11 -119 36
-193 55 -74 19 -136 36 -138 38 -11 12 290 236 317 236 5 0 18 -22 29 -48z
m309 18 c109 -17 207 -34 217 -38 16 -7 1 -18 -80 -61 -54 -30 -144 -82 -199
-116 l-100 -63 -7 77 c-6 67 -27 170 -44 216 -8 19 -18 20 213 -15z m548 -104
c118 -29 266 -78 350 -115 l59 -27 -69 -18 c-118 -31 -395 -123 -497 -165 -54
-22 -98 -39 -98 -38 0 1 22 53 49 115 27 61 59 148 72 192 12 44 25 80 28 80
3 0 51 -11 106 -24z m-245 -83 c-24 -72 -135 -313 -144 -313 -4 0 -57 24 -119
54 -61 29 -122 57 -134 60 -13 4 -23 10 -23 14 0 16 428 267 438 257 2 -2 -6
-34 -18 -72z m-930 -128 c121 -28 291 -78 288 -85 -2 -4 -61 -54 -131 -111
-71 -57 -144 -116 -161 -131 l-33 -28 -7 103 c-3 56 -14 139 -25 185 -12 54
-14 82 -7 82 6 0 40 -7 76 -15z m1650 -22 c0 -10 -49 -91 -111 -184 -51 -76
-158 -214 -247 -319 l-30 -34 -91 86 c-50 48 -127 113 -171 144 -44 32 -80 61
-80 65 0 18 369 151 590 213 139 38 140 39 140 29z m216 -59 c49 -30 123 -81
164 -112 100 -77 246 -220 234 -231 -5 -4 -54 -14 -109 -20 -170 -21 -604 -99
-763 -136 -19 -5 -10 11 46 77 105 125 224 295 273 392 24 47 49 86 55 86 6 0
51 -25 100 -56z m-1221 -146 l49 -26 -84 -42 c-46 -23 -124 -64 -173 -92 -49
-27 -91 -47 -93 -45 -3 2 11 44 31 93 19 49 42 115 50 146 l16 57 77 -33 c43
-18 100 -45 127 -58z m-345 -40 c-24 -66 -65 -154 -106 -224 l-24 -41 -82 40
-81 41 54 49 c90 81 251 208 257 203 2 -3 -5 -34 -18 -68z m641 -139 c79 -59
239 -205 239 -219 0 -3 -35 -14 -77 -24 -106 -25 -410 -109 -508 -140 -44 -14
-85 -26 -92 -26 -6 0 18 39 54 88 70 92 205 292 243 361 27 47 21 49 141 -40z
m-298 -26 c-46 -72 -118 -174 -196 -277 l-60 -79 -25 49 c-13 27 -41 70 -63
95 l-38 46 142 81 c145 82 256 141 269 142 4 0 -9 -26 -29 -57z m-615 -138
l53 -25 -93 -63 c-51 -35 -94 -63 -95 -62 -1 0 9 32 22 71 14 38 25 77 25 87
0 24 25 21 88 -8z m236 -195 c14 -27 27 -65 29 -85 l2 -36 -130 -48 c-71 -26
-163 -62 -204 -79 -40 -18 -75 -32 -78 -32 -3 0 35 42 85 94 49 52 120 135
157 185 l68 91 22 -20 c12 -12 34 -43 49 -70z m-284 -30 c-17 -32 -259 -270
-330 -325 -70 -54 -71 -56 50 95 56 70 102 114 180 172 58 43 106 78 108 78 1
0 -2 -9 -8 -20z"/>
</g>
</svg>
